<?xml version="1.0" encoding="UTF-8"?>
<svg id="Layer_2" data-name="Layer 2" xmlns="http://www.w3.org/2000/svg" viewBox="0 0 894.69 632.4">
  <defs>
    <style>
      .cls-1, .cls-2 {
        font-size: 6.94px;
      }

      .cls-3 {
        letter-spacing: .01em;
      }

      .cls-4 {
        letter-spacing: 0em;
      }

      .cls-5, .cls-6, .cls-7, .cls-8, .cls-9, .cls-10, .cls-11, .cls-12, .cls-13, .cls-14, .cls-15, .cls-16, .cls-17, .cls-18, .cls-19, .cls-20, .cls-21, .cls-22, .cls-23, .cls-24, .cls-25, .cls-26, .cls-27, .cls-28, .cls-29, .cls-30, .cls-31, .cls-32, .cls-33, .cls-34, .cls-35, .cls-36, .cls-37, .cls-38, .cls-39, .cls-40, .cls-41, .cls-42, .cls-43 {
        fill: none;
      }

      .cls-5, .cls-44, .cls-45, .cls-46, .cls-47, .cls-48, .cls-49, .cls-50, .cls-51, .cls-52, .cls-53 {
        stroke-width: 0px;
      }

      .cls-54 {
        letter-spacing: -.02em;
      }

      .cls-55 {
        font-size: 5.21px;
      }

      .cls-55, .cls-56, .cls-57 {
        font-family: Stem-Bold, Stem-Bold;
        font-weight: 700;
      }

      .cls-55, .cls-57, .cls-44, .cls-53 {
        fill: #fff;
      }

      .cls-58 {
        font-size: 6.94px;
      }

      .cls-58, .cls-56, .cls-59, .cls-2, .cls-60, .cls-47 {
        fill: #231f20;
      }

      .cls-58, .cls-59, .cls-2, .cls-60 {
        font-family: Stem-Regular, Stem-Regular;
      }

      .cls-61 {
        letter-spacing: -.01em;
      }

      .cls-62 {
        letter-spacing: 0em;
      }

      .cls-63 {
        letter-spacing: -.03em;
      }

      .cls-64 {
        letter-spacing: -.03em;
      }

      .cls-6 {
        stroke-dasharray: 0 0 .93 2.78;
        stroke-width: .93px;
      }

      .cls-6, .cls-7, .cls-8, .cls-9, .cls-10, .cls-11, .cls-12, .cls-13, .cls-14, .cls-16, .cls-19, .cls-20, .cls-21, .cls-22, .cls-23, .cls-24, .cls-25, .cls-26, .cls-27, .cls-28, .cls-29, .cls-30, .cls-31, .cls-32, .cls-33, .cls-34, .cls-35, .cls-36, .cls-37, .cls-39, .cls-40, .cls-41, .cls-42, .cls-43 {
        stroke: #231f20;
      }

      .cls-6, .cls-11, .cls-12, .cls-13, .cls-14, .cls-15, .cls-17, .cls-18, .cls-37, .cls-40, .cls-41, .cls-42, .cls-43 {
        stroke-miterlimit: 22.93;
      }

      .cls-65 {
        letter-spacing: 0em;
      }

      .cls-7 {
        stroke-width: .93px;
      }

      .cls-7, .cls-8, .cls-9, .cls-10, .cls-16, .cls-19, .cls-20, .cls-21, .cls-22, .cls-23, .cls-24, .cls-25, .cls-26, .cls-27, .cls-28, .cls-29, .cls-30, .cls-31, .cls-32, .cls-33, .cls-34, .cls-35, .cls-36 {
        stroke-linecap: round;
        stroke-linejoin: round;
      }

      .cls-8 {
        stroke-width: .93px;
      }

      .cls-9 {
        stroke-width: .93px;
      }

      .cls-66 {
        letter-spacing: -.01em;
      }

      .cls-67 {
        letter-spacing: -.04em;
      }

      .cls-10 {
        stroke-width: .94px;
      }

      .cls-11 {
        stroke-dasharray: 0 0 .94 2.81;
        stroke-width: .94px;
      }

      .cls-12 {
        stroke-dasharray: 0 0 .93 2.8;
        stroke-width: .93px;
      }

      .cls-68 {
        letter-spacing: -.01em;
      }

      .cls-56 {
        font-size: 13.89px;
      }

      .cls-69 {
        letter-spacing: 0em;
      }

      .cls-70 {
        letter-spacing: -.1em;
      }

      .cls-57 {
        font-size: 5.14px;
      }

      .cls-13 {
        stroke-dasharray: 0 0 .93 2.79;
        stroke-width: .93px;
      }

      .cls-71 {
        letter-spacing: 0em;
      }

      .cls-72 {
        letter-spacing: -.01em;
      }

      .cls-73 {
        letter-spacing: -.01em;
      }

      .cls-14 {
        stroke-dasharray: 0 0 .93 2.8;
        stroke-width: .93px;
      }

      .cls-15 {
        stroke-width: 1.86px;
      }

      .cls-15, .cls-17, .cls-18, .cls-38 {
        stroke: #fff;
      }

      .cls-74 {
        letter-spacing: -.02em;
      }

      .cls-75 {
        letter-spacing: -.03em;
      }

      .cls-16 {
        stroke-width: .94px;
      }

      .cls-17 {
        stroke-width: 1.87px;
      }

      .cls-76 {
        letter-spacing: 0em;
      }

      .cls-18 {
        stroke-width: 1.86px;
      }

      .cls-19 {
        stroke-width: .93px;
      }

      .cls-20 {
        stroke-width: .93px;
      }

      .cls-21 {
        stroke-width: .93px;
      }

      .cls-22 {
        stroke-width: .93px;
      }

      .cls-23 {
        stroke-width: .93px;
      }

      .cls-24 {
        stroke-width: .93px;
      }

      .cls-25 {
        stroke-width: .93px;
      }

      .cls-26 {
        stroke-width: .93px;
      }

      .cls-27 {
        stroke-width: .93px;
      }

      .cls-28 {
        stroke-width: .93px;
      }

      .cls-29 {
        stroke-width: .93px;
      }

      .cls-30 {
        stroke-width: .93px;
      }

      .cls-31 {
        stroke-width: .93px;
      }

      .cls-32 {
        stroke-width: .93px;
      }

      .cls-33 {
        stroke-width: .93px;
      }

      .cls-34 {
        stroke-width: .93px;
      }

      .cls-35 {
        stroke-width: .93px;
      }

      .cls-36 {
        stroke-width: .93px;
      }

      .cls-37 {
        stroke-dasharray: 0 0 .93 2.78;
        stroke-width: .93px;
      }

      .cls-38 {
        stroke-miterlimit: 10;
        stroke-width: 2px;
      }

      .cls-77 {
        letter-spacing: -.11em;
      }

      .cls-78 {
        letter-spacing: -.06em;
      }

      .cls-39 {
        stroke-dasharray: 0 0 3.47 3.47;
        stroke-linejoin: bevel;
        stroke-width: .5px;
      }

      .cls-79 {
        letter-spacing: .02em;
      }

      .cls-80 {
        letter-spacing: 0em;
      }

      .cls-40 {
        stroke-dasharray: 0 0 1.74 1.74;
        stroke-width: 1.74px;
      }

      .cls-81 {
        letter-spacing: -.03em;
      }

      .cls-82 {
        letter-spacing: -.05em;
      }

      .cls-44 {
        fill-rule: evenodd;
      }

      .cls-83 {
        letter-spacing: -.02em;
      }

      .cls-84 {
        letter-spacing: -.02em;
      }

      .cls-41 {
        stroke-dasharray: 0 0 .93 2.79;
        stroke-width: .93px;
      }

      .cls-85 {
        letter-spacing: 0em;
      }

      .cls-86 {
        letter-spacing: 0em;
      }

      .cls-87 {
        letter-spacing: -.04em;
      }

      .cls-88 {
        letter-spacing: 0em;
      }

      .cls-89 {
        font-size: 6.08px;
      }

      .cls-60 {
        font-size: 6.94px;
      }

      .cls-42 {
        stroke-dasharray: 0 0 .93 2.8;
        stroke-width: .93px;
      }

      .cls-45 {
        fill: #93ce96;
      }

      .cls-46 {
        fill: #1d2023;
      }

      .cls-48 {
        fill: #d9dbda;
      }

      .cls-49 {
        fill: #9db1dc;
      }

      .cls-50 {
        fill: #64cbe8;
      }

      .cls-51 {
        fill: #f390bc;
      }

      .cls-52 {
        fill: #fee37c;
      }

      .cls-90 {
        letter-spacing: -.13em;
      }

      .cls-91 {
        letter-spacing: -.13em;
      }

      .cls-92 {
        letter-spacing: -.03em;
      }

      .cls-43 {
        stroke-dasharray: 0 0 .94 2.8;
        stroke-width: .93px;
      }
    </style>
  </defs>
  <g id="_осн" data-name="осн">
    <g>
      <path class="cls-53" d="m8.75,418.5l216.68,204.29h583.91l.06-138.55,76.53-241.92v-65.78L715.72,7.9h-142.06l-293.14,25.2-271.76-.16v385.56Z"/>
      <polygon class="cls-45" points="413.99 26.73 441.66 24.4 441.66 44.32 413.99 44.32 413.99 26.73"/>
      <polygon class="cls-45" points="446.17 91.19 446.17 44.32 441.66 44.32 441.66 24.4 464.55 22.21 464.55 91.08 446.17 91.19"/>
      <polygon class="cls-48" points="689.99 13.94 689.99 91.06 792.35 91.08 713.53 13.94 689.99 13.94"/>
      <polygon class="cls-45" points="656.02 150.43 656.02 91.08 792.35 91.08 835.46 134.74 819.77 150.43 656.02 150.43"/>
      <polygon class="cls-50" points="689.99 194.7 775.5 194.7 819.77 150.43 689.99 150.43 689.99 194.7"/>
      <polygon class="cls-49" points="656.02 243.18 695.89 243.18 696.33 326.48 656.02 326.48 656.02 243.18"/>
      <polygon class="cls-49" points="725.06 273.12 756.53 252.99 837.77 253.6 837.77 307.89 725.06 307.89 725.06 273.12"/>
      <rect class="cls-51" x="837.55" y="227.94" width="31.05" height="17.83" transform="translate(-27.21 331.37) rotate(-21.65)"/>
      <polygon class="cls-5" points="574.47 13.94 689.99 13.94 689.99 91.06 600.33 91.08 600.33 56.64 574.47 56.64 574.47 13.94"/>
      <polygon class="cls-5" points="446.17 91.19 446.17 44.32 413.99 44.32 413.99 26.73 281.27 39.1 159.31 39.1 159.31 91.08 446.17 91.19"/>
      <polygon class="cls-48" points="121.56 39.1 13.94 39.1 13.94 417 80.64 480.08 227.56 618.46 514.12 618.46 752.72 618.46 804.13 618.46 804.13 484.35 854.41 326.48 656.02 326.48 656.02 91.08 600.33 91.08 600.33 56.64 574.47 56.64 574.47 13.94 464.55 22.21 464.55 91.08 281.27 91.06 281.27 39.1 121.56 39.1"/>
      <rect class="cls-52" x="656.02" y="216.49" width="39.86" height="26.69"/>
      <polygon class="cls-52" points="281.27 39.1 281.27 91.06 307.84 91.06 307.72 36.63 281.27 39.1"/>
      <polygon class="cls-48" points="695.89 252.99 711.1 253.6 725.06 273.12 725.06 307.89 837.77 307.89 837.77 253.6 880.75 236.29 880.75 242.1 854.41 326.48 696.33 326.48 695.89 252.99"/>
      <polygon class="cls-48" points="121.56 39.1 159.31 39.1 159.31 91.08 464.55 91.08 464.55 22.21 554.76 15.42 574.47 13.94 574.47 56.64 600.33 56.64 600.33 91.08 656.02 91.08 656.02 326.48 854.41 326.48 804.13 484.35 804.13 618.46 227.56 618.46 80.64 480.08 80.5 132.4 121.56 91.06 121.56 39.1"/>
      <polygon class="cls-48" points="689.99 13.94 689.99 91.06 656.02 91.08 656.02 13.94 689.99 13.94"/>
      <polygon class="cls-48" points="656.02 150.43 689.99 150.43 689.99 194.7 656.02 195.5 656.02 150.43"/>
      <rect class="cls-18" x="689.99" y="150.43" width="49.17" height="44.27"/>
      <polygon class="cls-18" points="739.15 194.7 775.5 194.7 782.03 188.18 782.03 150.43 739.15 150.43 739.15 194.7"/>
      <polygon class="cls-18" points="819.77 150.43 782.03 188.18 782.03 150.43 819.77 150.43"/>
      <polyline class="cls-18" points="656.02 253.6 656.02 194.7 689.99 194.7 775.5 194.7 835.46 134.74 880.75 179.61 880.75 242.1 854.41 326.48 696.33 326.48 696.33 253.6"/>
      <polygon class="cls-47" points="790.62 284.02 790.62 284.77 793.02 286.32 790.62 287.85 790.62 288.63 793.7 286.66 795.57 286.66 795.57 286.02 793.7 286.02 790.62 284.02"/>
      <polygon class="cls-47" points="791.89 280.81 791.89 281.45 794.65 282.67 791.89 283.93 791.89 284.62 795.57 282.9 795.57 282.46 791.89 280.81"/>
      <path class="cls-47" d="m792.35,278.95c0-.66.37-1.07,1.03-1.11v2.31c-.6-.09-1.03-.52-1.03-1.2m2.16-1.22c.32.22.56.62.56,1.07,0,.75-.41,1.31-1.15,1.34v-2.9c-.16-.03-.33-.04-.45-.04-1.02,0-1.67.73-1.67,1.7,0,1.22.83,1.87,1.92,1.87,1.17,0,1.91-.79,1.91-1.96,0-.6-.25-1.12-.76-1.47l-.35.38Z"/>
      <path class="cls-47" d="m794.57,274.3c.38,0,.51.33.51.75,0,.57-.25,1.07-.64,1.29l.33.47c.52-.26.87-.91.87-1.66,0-.85-.33-1.47-1.07-1.47-1.44,0-.95,2.33-1.73,2.33-.33,0-.47-.42-.47-.79,0-.48.2-.86.47-1.06l-.39-.42c-.36.25-.64.73-.64,1.37,0,.9.4,1.53,1.05,1.53,1.36,0,.83-2.34,1.7-2.34"/>
      <path class="cls-47" d="m798.52,290.26c0-.96.37-1.28.88-1.28.57,0,.93.49.93,1.24v1.27h-1.81v-1.23Zm4.35,1.23h-1.94v-1.29l1.94-1.47v-.78l-2.07,1.58c-.15-.71-.69-1.21-1.4-1.21-.78,0-1.48.41-1.48,1.92v1.9h4.95v-.64Z"/>
      <path class="cls-47" d="m801.02,287.32c-.82,0-1.36-.56-1.36-1.32s.54-1.33,1.36-1.33,1.35.54,1.35,1.33-.57,1.32-1.35,1.32m0,.63c1.11,0,1.91-.81,1.91-1.94s-.8-1.96-1.91-1.96-1.92.8-1.92,1.96.8,1.94,1.92,1.94Z"/>
      <path class="cls-47" d="m801.81,280.54c.34.23.57.59.57,1.03,0,.83-.54,1.39-1.35,1.39s-1.36-.56-1.36-1.32c0-.45.16-.76.5-1.02l-.31-.46c-.45.25-.75.83-.75,1.49,0,1.16.83,1.93,1.92,1.93,1.17,0,1.91-.8,1.91-1.97,0-.59-.28-1.23-.82-1.51l-.3.42Z"/>
      <path class="cls-47" d="m802.87,279.63v-.59h-2.43c-.43-.19-.76-.57-.76-1.08,0-.72.37-1.07,1.17-1.07h2.03v-.59h-2.09c-1.16,0-1.67.54-1.67,1.55,0,.54.21.93.56,1.2h-1.97v.59h5.16Z"/>
      <path class="cls-47" d="m799.65,273.84c0-.66.37-1.07,1.03-1.11v2.31c-.6-.09-1.03-.52-1.03-1.2m2.16-1.22c.32.22.56.62.56,1.07,0,.75-.41,1.31-1.15,1.34v-2.9c-.16-.03-.33-.04-.45-.04-1.02,0-1.67.73-1.67,1.7,0,1.22.83,1.87,1.92,1.87,1.17,0,1.91-.79,1.91-1.96,0-.6-.25-1.12-.76-1.47l-.35.38Z"/>
      <path class="cls-47" d="m802.87,271.45v-.59h-2.56c-.38-.08-.64-.37-.64-.69,0-.23.07-.35.18-.44l-.41-.37c-.21.16-.33.4-.33.75,0,.28.1.63.36.76h-.28v.59h3.68Z"/>
      <g>
        <polygon class="cls-44" points="646.82 195.64 665.23 195.64 665.23 216.3 646.82 216.49 646.82 195.64"/>
        <polyline class="cls-29" points="662.25 210.45 662.25 214.03 649.8 214.04 649.8 197.18 662.25 197.18 662.25 200.76"/>
        <line class="cls-28" x1="663.96" y1="205.71" x2="659.35" y2="205.71"/>
        <polyline class="cls-26" points="660.78 202.34 664.04 205.6 660.78 208.86"/>
      </g>
      <polyline class="cls-18" points="760.59 253.6 755.14 253.6 725.06 273.12 711.1 253.6 696.33 253.6 695.89 217.32 656.02 217.32"/>
      <polyline class="cls-17" points="281.27 39.1 281.27 91.08 464.55 91.08 464.55 22.21"/>
      <polygon class="cls-47" points="695.89 170.77 697.61 170.77 697.61 175.11 698.25 175.11 698.25 170.77 699.98 170.77 699.98 170.16 695.89 170.16 695.89 170.77"/>
      <path class="cls-47" d="m701.11,171.9c.66,0,1.07.37,1.11,1.03h-2.31c.09-.6.52-1.03,1.2-1.03m1.22,2.16c-.22.32-.62.56-1.07.56-.75,0-1.31-.41-1.34-1.15h2.9c.03-.16.04-.33.04-.45,0-1.02-.73-1.67-1.7-1.67-1.22,0-1.87.83-1.87,1.92,0,1.17.79,1.91,1.96,1.91.6,0,1.12-.25,1.47-.76l-.38-.35Z"/>
      <path class="cls-47" d="m706.29,174.05c-.23.34-.59.57-1.03.57-.83,0-1.39-.54-1.39-1.35s.56-1.36,1.32-1.36c.45,0,.76.16,1.02.5l.46-.31c-.25-.45-.83-.75-1.49-.75-1.16,0-1.93.83-1.93,1.92,0,1.17.8,1.91,1.97,1.91.59,0,1.23-.28,1.51-.82l-.42-.3Z"/>
      <path class="cls-47" d="m707.2,175.11h.59v-2.43c.19-.43.57-.76,1.08-.76.72,0,1.07.37,1.07,1.17v2.03h.59v-2.09c0-1.16-.54-1.67-1.55-1.67-.54,0-.93.21-1.19.56v-1.97h-.59v5.16Z"/>
      <polygon class="cls-47" points="711.45 175.11 712.1 175.11 712.1 171.28 713.84 173.55 713.99 173.55 715.68 171.28 715.68 175.11 716.33 175.11 716.33 170.16 715.75 170.16 713.93 172.65 712.05 170.16 711.45 170.16 711.45 175.11"/>
      <path class="cls-47" d="m718.5,174.63c-.5,0-.85-.23-.85-.61,0-.45.47-.59,1.21-.59.3,0,.6.04.78.11v.37c-.13.3-.53.72-1.15.72m-.93-2.31c.34-.25.68-.41,1.1-.41.77,0,.98.43.98,1.1-.18-.06-.59-.11-.86-.11-1.06,0-1.76.34-1.76,1.14,0,.68.54,1.12,1.34,1.12.64,0,1.07-.28,1.29-.59v.54h.59v-2.27c0-.95-.52-1.49-1.51-1.49-.54,0-1.13.21-1.47.52l.3.45Z"/>
      <path class="cls-47" d="m721.06,175.11h.59v-2.56c.08-.38.37-.64.69-.64.23,0,.35.07.44.18l.37-.41c-.16-.21-.4-.33-.75-.33-.28,0-.63.1-.76.36v-.28h-.59v3.68Z"/>
      <polygon class="cls-47" points="723.56 175.11 724.15 175.11 724.15 173.64 724.44 173.4 726.07 175.11 726.85 175.11 724.97 173.07 726.73 171.44 725.94 171.44 724.15 173.07 724.15 169.95 723.56 169.95 723.56 175.11"/>
      <path class="cls-47" d="m728.72,171.9c.66,0,1.07.37,1.11,1.03h-2.31c.09-.6.52-1.03,1.2-1.03m1.22,2.16c-.22.32-.62.56-1.07.56-.75,0-1.31-.41-1.34-1.15h2.9c.03-.16.04-.33.04-.45,0-1.02-.73-1.67-1.7-1.67-1.22,0-1.87.83-1.87,1.92,0,1.17.79,1.91,1.96,1.91.6,0,1.12-.25,1.47-.76l-.38-.35Z"/>
      <path class="cls-47" d="m730.73,172h.76v1.77c0,.91.4,1.39,1.12,1.39.46,0,.81-.14,1.04-.39l-.27-.44c-.2.16-.41.26-.66.26-.44,0-.64-.25-.64-.98v-1.62h1.27v-.57h-1.27v-.94h-.59v.94h-.76v.57Z"/>
      <path class="cls-47" d="m753.59,170.77c.96,0,1.28.37,1.28.88,0,.57-.49.93-1.24.93h-1.27v-1.81h1.23Zm-1.23,4.35v-1.94h1.29l1.47,1.94h.78l-1.58-2.07c.71-.15,1.21-.69,1.21-1.4,0-.78-.41-1.48-1.92-1.48h-1.9v4.95h.64Z"/>
      <path class="cls-47" d="m756.53,173.27c0-.82.56-1.36,1.32-1.36s1.33.54,1.33,1.36-.54,1.35-1.33,1.35-1.32-.57-1.32-1.35m-.63,0c0,1.11.81,1.91,1.94,1.91s1.96-.8,1.96-1.91-.8-1.92-1.96-1.92-1.94.8-1.94,1.92Z"/>
      <path class="cls-47" d="m760.46,175.11h.59v-2.45c.2-.45.63-.74,1.08-.74.72,0,1.07.36,1.07,1.17v2.02h.59v-2.09c0-1.17-.53-1.66-1.49-1.66-.53,0-1.02.19-1.26.56v-.48h-.59v3.68Z"/>
      <path class="cls-47" d="m764.63,170.24c0,.21.16.37.38.37.2,0,.37-.16.37-.37,0-.2-.17-.35-.37-.35-.21,0-.38.15-.38.35m.08,4.87h.59v-3.68h-.59v3.68Z"/>
      <path class="cls-47" d="m766.24,175.11h.59v-2.45c.2-.45.63-.74,1.08-.74.72,0,1.07.36,1.07,1.17v2.02h.59v-2.09c0-1.17-.53-1.66-1.49-1.66-.53,0-1.02.19-1.26.56v-.48h-.59v3.68Z"/>
      <path class="cls-47" d="m347.38,602.9h.64v-4.95h-3.42v.81c0,3.26-.54,3.6-1.07,3.52v.62c.1,0,.21.01.3.01.7,0,1.41-.64,1.41-4.06v-.3h2.14v4.35Z"/>
      <polygon class="cls-47" points="349.52 602.9 351.76 600.15 351.76 602.9 352.36 602.9 352.36 599.22 351.81 599.22 349.57 601.98 349.57 599.22 348.98 599.22 348.98 602.9 349.52 602.9"/>
      <path class="cls-47" d="m355.65,599.72c.89,0,1.35.59,1.35,1.34,0,.81-.45,1.34-1.35,1.34h-.04v-2.68h.04Zm-2.02,1.34c0-.77.45-1.34,1.34-1.34h.05v2.68h-.04c-.88,0-1.34-.53-1.34-1.34Zm1.39,3.25h.59v-1.34h.04c1.26,0,1.98-.81,1.98-1.9s-.76-1.91-1.97-1.91h-.06v-1.42h-.59v1.42h-.05c-1.25,0-1.97.91-1.97,1.91,0,1.1.72,1.9,1.97,1.9h.04v1.34Z"/>
      <polygon class="cls-47" points="357.71 599.78 359.12 599.78 359.12 602.9 359.71 602.9 359.71 599.78 361.13 599.78 361.13 599.22 357.71 599.22 357.71 599.78"/>
      <polygon class="cls-47" points="322.84 610.2 323.44 610.2 323.44 608.86 323.74 608.58 325.39 610.2 326.19 610.2 324.19 608.21 326.09 606.52 325.29 606.52 323.44 608.17 323.44 606.52 322.84 606.52 322.84 610.2"/>
      <polygon class="cls-47" points="327.11 610.2 329.35 607.45 329.35 610.2 329.94 610.2 329.94 606.52 329.39 606.52 327.15 609.28 327.15 606.52 326.56 606.52 326.56 610.2 327.11 610.2"/>
      <polygon class="cls-47" points="333.52 610.2 334.11 610.2 334.11 606.52 333.52 606.52 333.52 608.05 331.4 608.05 331.4 606.52 330.8 606.52 330.8 610.2 331.4 610.2 331.4 608.61 333.52 608.61 333.52 610.2"/>
      <path class="cls-47" d="m335.4,608.35c0-.82.56-1.36,1.32-1.36s1.33.54,1.33,1.36-.54,1.35-1.33,1.35-1.32-.57-1.32-1.35m-.63,0c0,1.11.81,1.91,1.94,1.91s1.96-.8,1.96-1.91-.8-1.92-1.96-1.92-1.94.8-1.94,1.92Z"/>
      <polygon class="cls-47" points="338.77 607.08 340.17 607.08 340.17 610.2 340.77 610.2 340.77 607.08 342.19 607.08 342.19 606.52 338.77 606.52 338.77 607.08"/>
      <path class="cls-47" d="m344.11,606.98c.66,0,1.07.37,1.11,1.03h-2.31c.09-.6.52-1.03,1.2-1.03m1.22,2.16c-.22.32-.62.56-1.07.56-.75,0-1.31-.41-1.34-1.15h2.9c.03-.16.04-.33.04-.45,0-1.02-.73-1.67-1.7-1.67-1.22,0-1.87.83-1.87,1.92,0,1.17.79,1.91,1.96,1.91.6,0,1.12-.25,1.47-.76l-.38-.35Z"/>
      <path class="cls-47" d="m347.73,609.71c-.5,0-.85-.23-.85-.61,0-.45.47-.59,1.21-.59.3,0,.6.04.78.11v.37c-.13.3-.53.72-1.15.72m-.93-2.31c.34-.25.68-.41,1.1-.41.77,0,.98.43.98,1.1-.18-.06-.59-.11-.86-.11-1.06,0-1.76.34-1.76,1.14,0,.68.54,1.12,1.34,1.12.64,0,1.07-.28,1.29-.59v.54h.59v-2.27c0-.95-.52-1.49-1.51-1.49-.54,0-1.13.21-1.47.52l.3.45Z"/>
      <polygon class="cls-47" points="349.73 607.08 351.14 607.08 351.14 610.2 351.74 610.2 351.74 607.08 353.16 607.08 353.16 606.52 349.73 606.52 349.73 607.08"/>
      <path class="cls-47" d="m355.31,606.99c.74,0,1.2.52,1.2,1.34s-.52,1.36-1.25,1.36c-.43,0-.84-.17-1.07-.57v-1.37c.15-.37.54-.76,1.12-.76m-1.72,4.62h.59v-1.73c.27.27.65.37,1.12.37,1.09,0,1.83-.84,1.83-1.97s-.67-1.86-1.76-1.86c-.44,0-.92.15-1.19.54v-.46h-.59v5.09Z"/>
      <path class="cls-47" d="m359.01,609.71c-.5,0-.85-.23-.85-.61,0-.45.47-.59,1.21-.59.3,0,.6.04.78.11v.37c-.13.3-.53.72-1.15.72m-.93-2.31c.34-.25.68-.41,1.1-.41.77,0,.98.43.98,1.1-.18-.06-.59-.11-.86-.11-1.06,0-1.76.34-1.76,1.14,0,.68.54,1.12,1.34,1.12.64,0,1.07-.28,1.29-.59v.54h.59v-2.27c0-.95-.52-1.49-1.51-1.49-.54,0-1.13.21-1.47.52l.3.45Z"/>
      <line class="cls-22" x1="139.73" y1="53.44" x2="139.73" y2="44.67"/>
      <polyline class="cls-35" points="133.53 47.2 139.73 53.4 145.94 47.2"/>
      <g>
        <line class="cls-22" x1="516.7" y1="26.71" x2="516.7" y2="35.48"/>
        <polyline class="cls-35" points="510.52 32.87 516.72 26.67 522.92 32.87"/>
      </g>
      <polyline class="cls-18" points="121.56 39.1 121.56 91.08 80.64 132 80.64 480.08"/>
      <polyline class="cls-18" points="159.31 39.1 159.31 91.08 281.27 91.08"/>
      <rect class="cls-18" x="760.59" y="253.6" width="24.13" height="54.29"/>
      <rect class="cls-18" x="784.71" y="253.6" width="24.13" height="54.29"/>
      <rect class="cls-15" x="808.84" y="253.6" width="28.93" height="54.29"/>
      <polyline class="cls-18" points="656.02 13.94 656.02 91.08 600.33 91.08 600.33 56.64 574.47 56.64 574.47 13.94"/>
      <line class="cls-14" x1="121.56" y1="153.6" x2="404.82" y2="153.6"/>
      <line class="cls-13" x1="456.01" y1="153.6" x2="635.5" y2="153.6"/>
      <line class="cls-14" x1="121.56" y1="236.29" x2="404.82" y2="236.29"/>
      <line class="cls-41" x1="456.01" y1="236.29" x2="635.5" y2="236.29"/>
      <line class="cls-14" x1="121.56" y1="318.98" x2="404.82" y2="318.98"/>
      <line class="cls-43" x1="456.01" y1="318.97" x2="635.5" y2="318.97"/>
      <line class="cls-12" x1="121.56" y1="401.67" x2="434.33" y2="401.67"/>
      <line class="cls-11" x1="531.61" y1="401.67" x2="456.01" y2="401.67"/>
      <line class="cls-42" x1="580.04" y1="401.66" x2="832.05" y2="401.66"/>
      <line class="cls-37" x1="240.49" y1="484.35" x2="434.33" y2="484.35"/>
      <line class="cls-11" x1="531.61" y1="484.36" x2="456.01" y2="484.36"/>
      <line class="cls-6" x1="580.04" y1="484.35" x2="734.22" y2="484.35"/>
      <polyline class="cls-32" points="723.23 256.31 724.91 254.62 726.6 256.31"/>
      <rect class="cls-9" x="721.87" y="247.06" width="6.17" height="16.67"/>
      <rect class="cls-9" x="728.04" y="247.06" width="6.17" height="16.67"/>
      <polyline class="cls-32" points="729.4 255.05 731.08 256.74 732.77 255.05"/>
      <polyline class="cls-32" points="638.64 28.82 640.33 27.13 642.02 28.82"/>
      <rect class="cls-9" x="637.29" y="19.56" width="6.17" height="16.67"/>
      <rect class="cls-9" x="643.46" y="19.56" width="6.17" height="16.67"/>
      <polyline class="cls-32" points="644.81 27.56 646.5 29.25 648.19 27.56"/>
      <g>
        <polyline class="cls-32" points="368.11 605.56 369.79 603.88 371.48 605.56"/>
        <rect class="cls-9" x="366.73" y="596.34" width="6.17" height="16.67"/>
        <rect class="cls-9" x="372.91" y="596.34" width="6.17" height="16.67"/>
        <polyline class="cls-32" points="374.28 604.31 375.96 606 377.65 604.31"/>
      </g>
      <polyline class="cls-33" points="436.96 599.36 432.94 599.36 432.94 603.39 428.91 603.39 428.91 607.41 424.88 607.41 424.88 611.44 420.86 611.44"/>
      <line class="cls-31" x1="430.56" y1="596.12" x2="418.48" y2="608.2"/>
      <path class="cls-23" d="m349.22,66.16c0-2.05,1.66-3.71,3.71-3.71,1.27,0,2.4.64,3.07,1.62"/>
      <path class="cls-24" d="m352.93,56.78c.92,0,1.67.75,1.67,1.67s-.75,1.67-1.67,1.67-1.67-.75-1.67-1.67.75-1.67,1.67-1.67Z"/>
      <path class="cls-23" d="m362.29,62.34c-1.2-1.2-3.15-1.2-4.35,0l-9.72,9.2c-.55.5-1.28.81-2.06.81-.78,0-1.58-.29-2.19-.9"/>
      <line class="cls-21" x1="361.43" y1="66.96" x2="357.46" y2="70.94"/>
      <polyline class="cls-19" points="361.43 70.75 361.43 66.97 357.65 66.97"/>
      <line class="cls-25" x1="354.96" y1="73.42" x2="357.64" y2="70.75"/>
      <polyline class="cls-19" points="354.95 69.67 354.95 73.45 358.73 73.45"/>
      <path class="cls-23" d="m730.32,228.67c0-2.05,1.66-3.71,3.71-3.71,1.27,0,2.4.64,3.07,1.62"/>
      <path class="cls-24" d="m734.02,219.28c.92,0,1.67.75,1.67,1.67s-.75,1.67-1.67,1.67-1.67-.75-1.67-1.67.75-1.67,1.67-1.67Z"/>
      <path class="cls-23" d="m743.39,224.84c-1.2-1.2-3.15-1.2-4.35,0l-9.72,9.2c-.55.5-1.28.81-2.06.81-.78,0-1.58-.29-2.19-.9"/>
      <line class="cls-21" x1="742.52" y1="229.46" x2="738.54" y2="233.44"/>
      <polyline class="cls-19" points="742.51 233.25 742.51 229.47 738.73 229.47"/>
      <line class="cls-25" x1="736.05" y1="235.92" x2="738.73" y2="233.25"/>
      <polyline class="cls-19" points="736.04 232.16 736.04 235.94 739.82 235.94"/>
      <path class="cls-36" d="m796.38,159.6v3.19c0,1.95-1.58,3.52-3.52,3.52s-3.52-1.58-3.52-3.52v-3.19h7.05Z"/>
      <path class="cls-27" d="m792.86,168.18c-1.23,0-2.37-.41-3.29-1.1"/>
      <path class="cls-27" d="m792.83,168.18c1.23,0,2.37-.41,3.29-1.1"/>
      <path class="cls-34" d="m797.14,159.61c.42,0,.76.34.76.76s-.34.76-.76.76h-.76v-1.53h.76Z"/>
      <polyline class="cls-7" points="790.88 158.37 791.42 157.13 790.88 155.89"/>
      <polyline class="cls-7" points="792.83 158.37 793.37 157.13 792.83 155.89"/>
      <polyline class="cls-7" points="794.78 158.37 795.32 157.13 794.78 155.89"/>
      <path class="cls-30" d="m425.26,324.56v-15.56h3.8c3.22,0,5.82,2.61,5.82,5.82s-2.61,5.82-5.82,5.82h-3.8"/>
      <path class="cls-20" d="m428.86,302.19c-7.66,0-13.86,6.21-13.86,13.86s6.21,13.86,13.86,13.86,13.86-6.21,13.86-13.86-6.21-13.86-13.86-13.86Z"/>
      <rect class="cls-53" x="618.97" y="80.24" width="20.09" height="21.67"/>
      <polyline class="cls-29" points="634.4 95.92 634.4 99.5 621.96 99.5 621.96 82.65 634.4 82.64 634.4 86.22"/>
      <line class="cls-28" x1="636.12" y1="91.19" x2="631.51" y2="91.19"/>
      <polyline class="cls-26" points="632.93 87.8 636.19 91.06 632.93 94.32"/>
      <rect class="cls-18" x="837.55" y="227.94" width="31.05" height="17.83" transform="translate(-27.21 331.37) rotate(-21.65)"/>
      <text class="cls-60" transform="translate(842.45 243.63) rotate(-21.65)"><tspan class="cls-90" x="0" y="0">T</tspan><tspan x="3.13" y="0">op Ball</tspan></text>
      <text class="cls-58" transform="translate(822.11 290.24) rotate(-90)"><tspan x="0" y="0">B</tspan><tspan class="cls-68" x="4.67" y="0">r</tspan><tspan x="7.05" y="0">and</tspan><tspan x="0" y="6.94">music</tspan></text>
      <polyline class="cls-18" points="725.06 273.12 725.06 307.89 760.59 307.89"/>
      <polyline class="cls-18" points="656.02 253.6 656.02 326.48 696.33 326.48"/>
      <line class="cls-18" x1="656.02" y1="243.18" x2="695.89" y2="243.18"/>
      <polyline class="cls-18" points="656.02 194.7 656.02 150.43 689.99 150.43"/>
      <polyline class="cls-18" points="656.02 150.43 656.02 91.08 792.35 91.08"/>
      <line class="cls-18" x1="689.99" y1="13.94" x2="689.99" y2="91.06"/>
      <text class="cls-58" transform="translate(707.2 123.84)"><tspan x="0" y="0">В</tspan><tspan class="cls-84" x="4.67" y="0">к</tspan><tspan class="cls-74" x="8.22" y="0">у</tspan><tspan x="11.69" y="0">сно и </tspan><tspan class="cls-54" x="32.08" y="0">т</tspan><tspan x="35.32" y="0">оч</tspan><tspan class="cls-71" x="43.36" y="0">к</tspan><tspan class="cls-88" x="46.97" y="0">а</tspan></text>
      <text class="cls-58" transform="translate(663.98 284.79)"><tspan x="0" y="0">Аs</tspan><tspan class="cls-81" x="8.23" y="0">k</tspan><tspan class="cls-88" x="11.69" y="0">ona</tspan></text>
      <polyline class="cls-17" points="446.17 91.19 446.17 44.32 413.99 44.32 413.99 26.73"/>
      <line class="cls-17" x1="441.66" y1="44.32" x2="441.66" y2="24.4"/>
      <text class="cls-59" transform="translate(409.07 66.97)"><tspan class="cls-1"><tspan x="0" y="0">EU</tspan><tspan class="cls-92" x="9.49" y="0">R</tspan><tspan x="14.02" y="0">OБЫТ</tspan></tspan><tspan class="cls-89"><tspan x="1.41" y="6.94">Химчи</tspan><tspan class="cls-62" x="19.96" y="6.94">с</tspan><tspan class="cls-76" x="23.24" y="6.94">т</tspan><tspan class="cls-65" x="26.19" y="6.94">к</tspan><tspan class="cls-69" x="29.35" y="6.94">а</tspan></tspan></text>
      <text class="cls-2" transform="translate(484.68 78.64)"><tspan class="cls-83" x="0" y="0">С</tspan><tspan x="4.67" y="0">д</tspan><tspan class="cls-73" x="8.87" y="0">е</tspan><tspan x="12.73" y="0">лай </tspan><tspan class="cls-85" x="26.68" y="0">к</tspan><tspan x="30.29" y="0">люч</tspan></text>
      <text class="cls-2" transform="translate(484.54 50.73)"><tspan x="0" y="0">Beau</tspan><tspan class="cls-4" x="16.37" y="0">t</tspan><tspan x="19.26" y="0">y Li</tspan><tspan class="cls-61" x="30.64" y="0">f</tspan><tspan x="32.89" y="0">e</tspan></text>
      <g>
        <line class="cls-40" x1="426.07" y1="58.45" x2="426.07" y2="48.73"/>
        <polygon class="cls-47" points="429.01 52.19 426.07 49.24 423.13 52.19 423.13 49.69 426.07 46.75 429.01 49.69 429.01 52.19"/>
      </g>
      <text class="cls-2" transform="translate(821.81 178.02)"><tspan class="cls-82" x="0" y="0">К</tspan><tspan x="4.28" y="0">ори</tspan><tspan class="cls-3" x="16.84" y="0">ц</tspan><tspan x="21.13" y="0">а</tspan></text>
      <g>
        <line class="cls-40" x1="816.59" y1="175.27" x2="804.76" y2="170.33"/>
        <polygon class="cls-47" points="809.09 168.94 805.24 170.52 806.82 174.37 804.52 173.41 802.93 169.56 806.78 167.98 809.09 168.94"/>
      </g>
      <g>
        <path class="cls-36" d="m767.95,118.75c.95-.95.8-2.5-.16-3.46-.51-.51-1.35-.51-1.86,0-.95.95-1.11,2.5-.16,3.46.51.51,1.66.51,2.17,0Z"/>
        <path class="cls-36" d="m773.07,114.91v2.12c0,.62-.24,1.24-.72,1.72-.51.51-1.35.51-1.86,0-.48-.48-.72-1.1-.72-1.73v-2.12"/>
        <line class="cls-36" x1="766.86" y1="119.14" x2="766.86" y2="126.6"/>
        <path class="cls-36" d="m776.16,122.37c-.99,0-1.8-.8-1.8-1.8l.5-4.58c.11-.61.65-1.08,1.29-1.08v11.68"/>
        <line class="cls-36" x1="771.43" y1="119.14" x2="771.43" y2="126.6"/>
        <line class="cls-36" x1="771.43" y1="117.03" x2="771.43" y2="114.91"/>
      </g>
      <g>
        <path class="cls-36" d="m790.41,118.33v2.93c0,1.79-1.45,3.24-3.24,3.24s-3.24-1.45-3.24-3.24v-2.93h6.48Z"/>
        <path class="cls-36" d="m787.17,126.22c-1.14,0-2.18-.37-3.03-1.01"/>
        <path class="cls-36" d="m787.14,126.22c1.14,0,2.18-.37,3.03-1.01"/>
        <path class="cls-36" d="m791.12,118.32c.39,0,.7.31.7.7s-.31.7-.7.7h-.7v-1.41h.7Z"/>
        <polyline class="cls-36" points="785.35 117.2 785.84 116.06 785.35 114.91"/>
        <polyline class="cls-36" points="787.14 117.2 787.64 116.06 787.14 114.91"/>
        <polyline class="cls-36" points="788.94 117.2 789.43 116.06 788.94 114.91"/>
      </g>
      <text class="cls-58" transform="translate(728.26 292.14)"><tspan x="0" y="0">Алибаба</tspan></text>
      <polygon class="cls-39" points="222.06 632.15 .25 423.03 .25 25.29 280.16 25.45 573.3 .25 719.22 .25 894.44 173.86 894.44 244.49 817.91 486.41 817.84 632.15 222.06 632.15"/>
      <g>
        <g>
          <rect class="cls-53" x="839.91" y="134.74" width="20.15" height="27.05"/>
          <polyline class="cls-29" points="855.34 153.1 855.34 156.68 842.9 156.69 842.9 139.84 855.34 139.83 855.34 143.41"/>
        </g>
        <line class="cls-28" x1="857.03" y1="148.37" x2="852.42" y2="148.37"/>
        <polyline class="cls-26" points="853.87 144.99 857.13 148.25 853.87 151.51"/>
      </g>
      <g>
        <rect class="cls-53" x="871.54" y="200.02" width="18.42" height="21.67"/>
        <polyline class="cls-29" points="886.97 215.69 886.97 219.27 874.53 219.28 874.53 202.42 886.97 202.42 886.97 206"/>
        <line class="cls-28" x1="888.66" y1="210.95" x2="884.05" y2="210.95"/>
        <polyline class="cls-26" points="885.5 207.58 888.76 210.84 885.5 214.1"/>
      </g>
      <g>
        <rect class="cls-53" x="301.85" y="25.25" width="20.09" height="21.67"/>
        <polyline class="cls-29" points="317.28 40.93 317.28 44.51 304.84 44.51 304.84 27.66 317.28 27.66 317.28 31.24"/>
        <line class="cls-28" x1="319.03" y1="36.2" x2="314.41" y2="36.2"/>
        <polyline class="cls-26" points="315.81 32.81 319.07 36.07 315.81 39.33"/>
      </g>
      <g>
        <rect class="cls-53" x="301.85" y="80.24" width="20.09" height="21.67"/>
        <polyline class="cls-29" points="317.28 95.92 317.28 99.5 304.84 99.5 304.84 82.65 317.28 82.64 317.28 86.22"/>
        <line class="cls-28" x1="319.03" y1="91.19" x2="314.41" y2="91.19"/>
        <polyline class="cls-26" points="315.81 87.8 319.07 91.06 315.81 94.32"/>
      </g>
      <g>
        <polygon class="cls-44" points="426.07 80.24 445.12 80.35 445.12 102.02 426.07 101.91 426.07 80.24"/>
        <polyline class="cls-29" points="441.5 95.92 441.5 99.5 429.06 99.5 429.06 82.65 441.5 82.64 441.5 86.22"/>
        <line class="cls-28" x1="443.23" y1="91.19" x2="438.62" y2="91.19"/>
        <polyline class="cls-26" points="440.03 87.8 443.29 91.06 440.03 94.32"/>
      </g>
      <rect class="cls-51" x="754.87" y="216.84" width="23.48" height="19.97"/>
      <text class="cls-2" transform="translate(759.57 229.65)"><tspan class="cls-77" x="0" y="0">Y</tspan><tspan x="3.6" y="0">ota</tspan></text>
      <rect class="cls-51" x="834.97" y="196.06" width="24.69" height="22.64"/>
      <text class="cls-2" transform="translate(843.48 205.94)"><tspan x="0" y="0">O:</tspan><tspan x="-7.12" y="8.33">S</tspan><tspan class="cls-70" x="-2.87" y="8.33">P</tspan><tspan class="cls-67" x="1.07" y="8.33">A</tspan><tspan x="5.6" y="8.33">CE</tspan></text>
      <g>
        <rect class="cls-51" x="854.6" y="165.84" width="24.69" height="11.09" transform="translate(367.88 -557.93) rotate(44.43)"/>
        <text class="cls-2" transform="translate(859.13 167.35) rotate(44.43)"><tspan class="cls-91" x="0" y="0">T</tspan><tspan x="3.13" y="0">ele2</tspan></text>
      </g>
      <g>
        <rect class="cls-51" x="787.14" y="220.76" width="41.58" height="12.04"/>
        <text class="cls-2" transform="translate(790.04 228.98)"><tspan x="0" y="0">B</tspan><tspan class="cls-63" x="4.67" y="0">r</tspan><tspan x="6.92" y="0">onoskins</tspan></text>
      </g>
      <text class="cls-58" transform="translate(617.23 54.86)"><tspan x="0" y="0">Ли</tspan><tspan class="cls-54" x="9.05" y="0">фт</tspan><tspan x="17.11" y="0">овой</tspan><tspan class="cls-87" x="17.96" y="7.81">х</tspan><tspan class="cls-72" x="21.41" y="7.81">о</tspan><tspan x="25.61" y="7.81">лл</tspan></text>
      <rect class="cls-51" x="364.09" y="44.48" width="31.67" height="31.67"/>
      <text class="cls-2" transform="translate(373.21 58.43)"><tspan x="0" y="0">Sole</tspan><tspan class="cls-80" x="-1.91" y="8.33">F</tspan><tspan class="cls-63" x="2.2" y="8.33">r</tspan><tspan x="4.45" y="8.33">esh</tspan></text>
      <polygon class="cls-50" points="806.44 620.06 806.44 538.73 513.94 538.73 514.12 620.06 806.44 620.06"/>
      <text class="cls-56" transform="translate(608.66 586.73)"><tspan x="0" y="0">B</tspan><tspan class="cls-66" x="9.42" y="0">R</tspan><tspan x="18.78" y="0">OS</tspan><tspan class="cls-78" x="38.22" y="0">K</tspan><tspan class="cls-86" x="47.17" y="0">O</tspan><tspan class="cls-64" x="57.95" y="0">.</tspan><tspan x="61.51" y="0" xml:space="preserve"> ДЕТИ</tspan></text>
      <polyline class="cls-18" points="806.44 538.73 513.94 538.73 514.12 620.06"/>
      <g>
        <polygon class="cls-44" points="504.73 555.09 523.15 555.09 523.15 575.75 504.73 575.93 504.73 555.09"/>
        <polyline class="cls-29" points="520.16 569.9 520.16 573.48 507.72 573.49 507.72 556.63 520.16 556.63 520.16 560.21"/>
        <line class="cls-28" x1="521.87" y1="565.16" x2="517.26" y2="565.16"/>
        <polyline class="cls-26" points="518.69 561.79 521.95 565.05 518.69 568.31"/>
      </g>
      <g>
        <path class="cls-10" d="m304.71,67.94h1.02c.44,0,.79-.36.79-.79v-8.93c0-.44-.36-.79-.79-.79h-21.18c-.44,0-.79.36-.79.79v8.93c0,.44.36.79.79.79h.92"/>
        <line class="cls-10" x1="304.19" y1="60.09" x2="286.1" y2="60.09"/>
        <g>
          <polygon class="cls-16" points="288.78 70.68 288.78 72.75 303.4 72.75 303.4 64.32 301.31 64.32 301.31 70.68 288.78 70.68"/>
          <rect class="cls-8" x="286.69" y="62.25" width="14.62" height="8.43"/>
          <g>
            <path class="cls-10" d="m293.18,69.07v-5.22h1.87c.72,0,1.3.58,1.3,1.3h0c0,.72-.58,1.3-1.3,1.3h-2.66"/>
            <line class="cls-10" x1="292.39" y1="67.95" x2="294.82" y2="67.95"/>
          </g>
        </g>
      </g>
      <g>
        <path class="cls-10" d="m685.52,233.27h1.02c.44,0,.79-.36.79-.79v-8.93c0-.44-.36-.79-.79-.79h-21.18c-.44,0-.79.36-.79.79v8.93c0,.44.36.79.79.79h.92"/>
        <line class="cls-10" x1="685" y1="225.42" x2="666.92" y2="225.42"/>
        <g>
          <polygon class="cls-16" points="669.59 236.01 669.59 238.08 684.21 238.08 684.21 229.65 682.12 229.65 682.12 236.01 669.59 236.01"/>
          <rect class="cls-8" x="667.5" y="227.58" width="14.62" height="8.43"/>
          <g>
            <path class="cls-10" d="m673.99,234.4v-5.22h1.87c.72,0,1.3.58,1.3,1.3h0c0,.72-.58,1.3-1.3,1.3h-2.66"/>
            <line class="cls-10" x1="673.2" y1="233.28" x2="675.63" y2="233.28"/>
          </g>
        </g>
      </g>
      <g>
        <circle class="cls-46" cx="637.63" cy="43.07" r="4.02"/>
        <text class="cls-57" transform="translate(636.31 44.85)"><tspan x="0" y="0">1</tspan></text>
      </g>
      <g>
        <circle class="cls-46" cx="648.4" cy="43.07" r="4.02"/>
        <text class="cls-57" transform="translate(646.94 44.85)"><tspan x="0" y="0">2</tspan></text>
      </g>
      <g>
        <circle class="cls-46" cx="386.66" cy="600.23" r="4.08"/>
        <text class="cls-55" transform="translate(383.86 602.03)"><tspan x="0" y="0">10</tspan></text>
      </g>
      <g>
        <circle class="cls-46" cx="397.58" cy="600.23" r="4.08"/>
        <text class="cls-55" transform="translate(395.57 602.03)"><tspan x="0" y="0">11</tspan></text>
      </g>
      <text class="cls-58" transform="translate(774.43 298.5) rotate(-90)"><tspan class="cls-75" x="0" y="0">С</tspan><tspan x="4.6" y="0">еверп</tspan><tspan class="cls-79" x="24.42" y="0">у</tspan><tspan x="28.14" y="0">ть</tspan></text>
      <rect class="cls-5" x="838.27" y="255.47" width="32.93" height="13.58" transform="translate(-36.47 333.77) rotate(-21.65)"/>
      <rect class="cls-5" x="755.49" y="246.24" width="22.65" height="8.62"/>
      <rect class="cls-5" x="834.97" y="222.52" width="24.69" height="15.22"/>
      <line class="cls-38" x1="445.12" y1="58.96" x2="465.07" y2="58.96"/>
      <g>
        <line class="cls-40" x1="480.25" y1="76.15" x2="470.53" y2="76.15"/>
        <polygon class="cls-47" points="473.99 73.21 471.04 76.15 473.99 79.1 471.49 79.1 468.55 76.15 471.49 73.21 473.99 73.21"/>
      </g>
      <g>
        <line class="cls-40" x1="480.25" y1="48.79" x2="470.53" y2="48.79"/>
        <polygon class="cls-47" points="473.99 45.84 471.04 48.79 473.99 51.73 471.49 51.73 468.55 48.79 471.49 45.84 473.99 45.84"/>
      </g>
    </g>
  </g>
</svg>