<?xml version="1.0" encoding="UTF-8"?>
<svg id="Layer_2" data-name="Layer 2" xmlns="http://www.w3.org/2000/svg" viewBox="0 0 895.21 635.44">
  <defs>
    <style>
      .cls-1 {
        letter-spacing: -.02em;
      }

      .cls-2 {
        letter-spacing: -.02em;
      }

      .cls-3 {
        letter-spacing: -.04em;
      }

      .cls-4, .cls-5 {
        font-size: 6.94px;
      }

      .cls-6 {
        letter-spacing: -.09em;
      }

      .cls-7 {
        letter-spacing: -.04em;
      }

      .cls-8 {
        letter-spacing: -.02em;
      }

      .cls-9, .cls-10, .cls-11, .cls-12, .cls-13, .cls-14, .cls-15, .cls-16, .cls-17, .cls-18, .cls-19, .cls-20, .cls-21, .cls-22, .cls-23, .cls-24, .cls-25, .cls-26, .cls-27, .cls-28, .cls-29, .cls-30 {
        fill: none;
      }

      .cls-9, .cls-31, .cls-32, .cls-33, .cls-34, .cls-35, .cls-36, .cls-37, .cls-38, .cls-39, .cls-40, .cls-41 {
        stroke-width: 0px;
      }

      .cls-42 {
        letter-spacing: -.02em;
      }

      .cls-43 {
        letter-spacing: 0em;
      }

      .cls-44 {
        letter-spacing: -.03em;
      }

      .cls-10 {
        stroke-width: .93px;
      }

      .cls-10, .cls-11, .cls-12, .cls-13, .cls-14, .cls-15, .cls-16, .cls-17, .cls-18, .cls-19, .cls-20, .cls-21, .cls-25, .cls-28, .cls-30 {
        stroke: #231f20;
      }

      .cls-10, .cls-11, .cls-12, .cls-13, .cls-14, .cls-15, .cls-16, .cls-17, .cls-18, .cls-19, .cls-20, .cls-25 {
        stroke-linecap: round;
        stroke-linejoin: round;
      }

      .cls-45 {
        letter-spacing: -.03em;
      }

      .cls-46 {
        letter-spacing: -.01em;
      }

      .cls-11 {
        stroke-width: .93px;
      }

      .cls-47 {
        font-size: 7.16px;
      }

      .cls-47, .cls-48, .cls-49, .cls-50, .cls-51, .cls-52, .cls-5, .cls-53, .cls-54, .cls-55, .cls-34, .cls-56 {
        fill: #231f20;
      }

      .cls-47, .cls-48, .cls-49, .cls-50, .cls-51, .cls-5, .cls-53, .cls-54, .cls-55 {
        font-family: Stem-Regular, Stem-Regular;
      }

      .cls-57 {
        letter-spacing: 0em;
      }

      .cls-12 {
        stroke-width: .93px;
      }

      .cls-13 {
        stroke-width: .93px;
      }

      .cls-14 {
        stroke-width: .93px;
      }

      .cls-15 {
        stroke-width: .93px;
      }

      .cls-58 {
        letter-spacing: -.03em;
      }

      .cls-16 {
        stroke-width: .93px;
      }

      .cls-17 {
        stroke-width: .93px;
      }

      .cls-18 {
        stroke-width: .93px;
      }

      .cls-19 {
        stroke-width: .93px;
      }

      .cls-20 {
        stroke-width: .93px;
      }

      .cls-59 {
        letter-spacing: -.01em;
      }

      .cls-60 {
        letter-spacing: -.01em;
      }

      .cls-61 {
        letter-spacing: -.05em;
      }

      .cls-62 {
        letter-spacing: -.05em;
      }

      .cls-63 {
        letter-spacing: -.05em;
      }

      .cls-64 {
        letter-spacing: 0em;
      }

      .cls-65 {
        letter-spacing: 0em;
      }

      .cls-21 {
        stroke-dasharray: 0 0 1.87 1.87;
      }

      .cls-21, .cls-22, .cls-23, .cls-24, .cls-28 {
        stroke-miterlimit: 22.93;
      }

      .cls-21, .cls-24, .cls-29 {
        stroke-width: 1.86px;
      }

      .cls-66 {
        font-size: 5.14px;
      }

      .cls-66, .cls-67, .cls-31, .cls-40 {
        fill: #fff;
      }

      .cls-66, .cls-67, .cls-52, .cls-56 {
        font-family: Stem-Bold, Stem-Bold;
        font-weight: 700;
      }

      .cls-68 {
        letter-spacing: -.01em;
      }

      .cls-69 {
        letter-spacing: -.03em;
      }

      .cls-22 {
        stroke-width: 1.87px;
      }

      .cls-22, .cls-23, .cls-24, .cls-26, .cls-29 {
        stroke: #fff;
      }

      .cls-23 {
        stroke-width: 1.87px;
      }

      .cls-25 {
        stroke-width: .93px;
      }

      .cls-48 {
        font-size: 6px;
      }

      .cls-26 {
        stroke-width: 2px;
      }

      .cls-26, .cls-30 {
        stroke-miterlimit: 10;
      }

      .cls-70 {
        letter-spacing: 0em;
      }

      .cls-71 {
        letter-spacing: 0em;
      }

      .cls-27 {
        stroke: #000;
        stroke-dasharray: 0 0 3.47 3.47;
      }

      .cls-27, .cls-29 {
        stroke-linejoin: bevel;
      }

      .cls-27, .cls-30 {
        stroke-width: .5px;
      }

      .cls-72 {
        letter-spacing: 0em;
      }

      .cls-28 {
        stroke-dasharray: 0 0 1.74 1.74;
        stroke-width: 1.74px;
      }

      .cls-67 {
        font-size: 5.22px;
      }

      .cls-73 {
        letter-spacing: -.05em;
      }

      .cls-74 {
        letter-spacing: 0em;
      }

      .cls-50 {
        font-size: 5.21px;
      }

      .cls-51 {
        font-size: 5.21px;
      }

      .cls-31 {
        fill-rule: evenodd;
      }

      .cls-52 {
        font-size: 12.9px;
      }

      .cls-75 {
        letter-spacing: 0em;
      }

      .cls-76 {
        letter-spacing: 0em;
      }

      .cls-77 {
        letter-spacing: -.02em;
      }

      .cls-78 {
        letter-spacing: 0em;
      }

      .cls-79, .cls-54 {
        font-size: 6.08px;
      }

      .cls-80 {
        letter-spacing: 0em;
      }

      .cls-81 {
        letter-spacing: -.02em;
      }

      .cls-82 {
        letter-spacing: -.02em;
      }

      .cls-53 {
        font-size: 6.08px;
      }

      .cls-55 {
        font-size: 6.08px;
      }

      .cls-32 {
        fill: #93ce96;
      }

      .cls-33 {
        fill: #1d2023;
      }

      .cls-35 {
        fill: #d9dbda;
      }

      .cls-36 {
        fill: #9db1dc;
      }

      .cls-37 {
        fill: #64cbe8;
      }

      .cls-38 {
        fill: #f390bc;
      }

      .cls-39 {
        fill: #fee37c;
      }

      .cls-41 {
        fill: #f69286;
      }

      .cls-83 {
        letter-spacing: -.13em;
      }

      .cls-84 {
        letter-spacing: -.03em;
      }

      .cls-56 {
        font-size: 13.09px;
      }

      .cls-85 {
        letter-spacing: -.03em;
      }

      .cls-86 {
        letter-spacing: -.03em;
      }

      .cls-87 {
        letter-spacing: 0em;
      }
    </style>
  </defs>
  <g id="_осн" data-name="осн">
    <g>
      <path class="cls-40" d="m716.19,11.52l-157.72-2.76-278.78,27.63-270.93.18v385.71l217.61,204.41h582.6l1.22-136.36,76.27-245.42v-64.86L716.19,11.52Zm-249.42,529.27h16.23v-126.47s.06-.04.17-.1c2.36-1.43,29.16-17.54,60.11-33.86,29.42-14.99,66.93-31.98,106.32-44.34,4.98-1.56,9.99-3.05,15.02-4.44.08-.03.16-.05.24-.07,8.68-2.36,16.74-4.32,24.07-5.97,2.93-.64,5.79-1.25,8.59-1.85v225.66l-150.62.16h-.01v50.95l-78.19.2h-1.92v-59.87Z"/>
      <polygon class="cls-35" points="803.79 599.79 803.79 621.5 468.7 621.5 468.7 600.66 546.89 600.46 803.79 599.79"/>
      <path class="cls-32" d="m697.31,16.61h16.65l167.31,165.77v62.53l-68.46-6.2s-6.7-38.21-30.93-59.56c-24.23-21.35-59.05-31.09-71.81-34.46l-12.76-3.37V16.61Z"/>
      <polygon class="cls-35" points="630.96 61.1 695.24 61.1 695.24 17.4 630.96 16.61 630.96 61.1"/>
      <polygon class="cls-35" points="803.79 549.23 803.79 605.2 546.89 605.2 546.89 549.53 546.9 549.53 564.02 549.51 697.52 549.35 803.79 549.23"/>
      <polygon class="cls-35" points="541.17 15.8 541.17 50.24 491.64 50.5 491.64 20.2 541.17 15.8"/>
      <path class="cls-35" d="m269.96,556.46h131.03v28.14h-53.63v35.96h-77.41v-64.1Z"/>
      <polygon class="cls-41" points="451.94 486.55 157.58 486.55 157.58 555.44 228.71 621.5 269.96 621.5 269.96 556.46 451.94 556.46 451.94 486.55"/>
      <polygon class="cls-37" points="491.53 52 575.46 52 575.46 113.8 508.57 106.92 491.53 92.57 491.53 52"/>
      <path class="cls-37" d="m588.05,75.05h27.75v-13.95h81.51v80.21s-39.51-11.7-68.63-18.19c-29.26-6.53-40.62-8.83-40.62-8.83v-39.24Z"/>
      <polygon class="cls-32" points="483 540.79 466.77 540.79 483 540.78 483 540.79"/>
      <polygon class="cls-32" points="468.7 600.66 546.89 600.46 546.89 600.66 468.7 600.66"/>
      <polygon class="cls-32" points="546.89 549.51 546.9 549.51 546.9 549.53 546.89 600.46 546.89 549.51"/>
      <path class="cls-32" d="m588.5,359.87c28.7-12.58,54.99-21.18,77.2-27.21-5.03,1.39-10.04,2.88-15.02,4.44-39.39,12.36-76.9,29.35-106.32,44.34,14.5-7.65,29.9-15.33,44.14-21.57Z"/>
      <path class="cls-32" d="m862.7,304.43l-57.69,184.87-.4,59.93h-.82l-106.27.12v-225.66c-2.8.6-5.66,1.21-8.59,1.85,3.77-.84,7.34-1.61,10.71-2.3.7-.15,1.4-.3,2.09-.44,16.64-3.39,40.53-7.79,59.99-12.59.08-.01.15-.03.22-.05,7.04-1.73,13.49-3.52,18.8-5.33.38-.13.75-.26,1.12-.39,3.31-1.16,6.13-2.33,8.31-3.5t.02-.01c10.33-5.55,16.34-12.94,19.5-20.41.02-.04.04-.09.05-.13,1.54-3.65,2.39-7.32,2.73-10.79.01-.05.02-.1.02-.15.8-8.33,1.07-12.44,1.15-13.85,0-.05,0-.1,0-.15,0-.24.02-.37.02-.41h0s38.19,21.44,38.19,21.44l-6.99,22.38,17.83,5.57Z"/>
      <polygon class="cls-38" points="609.46 315.9 616.38 331.7 584.93 344.94 579.21 329.14 609.46 315.9"/>
      <polygon class="cls-38" points="547.16 342.81 554.18 358.03 524.12 373.02 517.19 356.7 547.16 342.81"/>
      <polygon class="cls-32" points="451.94 486.55 157.58 486.55 157.58 555.44 13.94 419.92 13.94 41.79 280.01 41.59 360.17 34.47 360.17 92.57 451.94 92.57 451.94 486.55"/>
      <rect class="cls-38" x="546.83" y="116.89" width="17.25" height="38.83" transform="translate(355.64 672.21) rotate(-83.34)"/>
      <polygon class="cls-41" points="534.18 155.72 507.36 153.31 489.71 170.63 489.71 338.08 507.08 348.11 534.22 334.93 534.18 155.72"/>
      <path class="cls-39" d="m650.19,234.63h32.58s-4.11-20.38-3.51-33.96c.6-13.58.99-17.73.99-17.73l-25.05-7.24v52.17h-6.86v-53.86s-53.43-11.01-78.55-14.09c-25.12-3.08-35.59-4.21-35.59-4.21l.1,100.83h65.07v-63.42s48.51-.5,48.51-.5l-.06,35.65,2.63.06-.25,6.29Z"/>
      <path class="cls-36" d="m534.22,334.93l.07-78.38h65.07v-63.42s48.51-.5,48.51-.5l.45,35.24,2.12.47-.25,6.29h32.58s3.51,14.67,5.11,17.46c1.6,2.79,7.05,13.67,7.05,13.67l-39.74,22.05s-42.61,13.57-60.62,20.91c-18,7.34-60.35,26.21-60.35,26.21Z"/>
      <path class="cls-24" d="m881.27,244.91v-62.53l-15.66,13.18h-69.69c8.86,13.15,14.76,28.27,16.89,43.15h0s68.46,6.2,68.46,6.2Z"/>
      <path class="cls-24" d="m575.46,52h-41.24v58.96c14.61,1.14,28.36,2.61,41.24,4.29v-63.25Z"/>
      <path class="cls-24" d="m657.04,61.1h-41.24v60.55c15.53,2.9,29.29,5.97,41.24,8.91V61.1Z"/>
      <path class="cls-24" d="m697.31,61.1h-40.27v69.45c17.15,4.21,30.59,8.11,40.27,10.76V61.1Z"/>
      <polygon class="cls-24" points="766.55 172.26 821.2 120.27 797.71 97 735.53 156.38 766.55 172.26"/>
      <path class="cls-24" d="m489.71,191.38v-20.75l17.35-17.35s10.56.73,27.13,2.43v35.66h-44.47Z"/>
      <rect class="cls-23" x="489.71" y="191.38" width="44.47" height="24.83"/>
      <rect class="cls-23" x="489.71" y="216.21" width="44.47" height="19.35"/>
      <rect class="cls-23" x="489.71" y="235.56" width="44.47" height="20.98"/>
      <rect class="cls-22" x="489.71" y="256.55" width="44.47" height="19.35"/>
      <path class="cls-24" d="m534.22,334.93c-16.45,7.72-27.14,13.18-27.14,13.18l-17.37-10.03v-62.18h44.47v20.98h.04v38.05Z"/>
      <path class="cls-24" d="m567.51,319.93c-12.4,5.35-23.83,10.57-33.33,15.03v-78.4h33.33v63.38Z"/>
      <path class="cls-24" d="m599.36,164.32c5.43.89,10.92,1.85,16.44,2.87v25.95h-16.44v-28.82Z"/>
      <path class="cls-24" d="m615.8,167.19c10.91,2.02,21.88,4.28,32.53,6.83v19.12h-32.53v-25.95Z"/>
      <path class="cls-24" d="m648.32,193.13h-48.96v113.72c8.98-3.47,18.05-6.78,26.93-9.75v-69.23h22.03v-34.74Z"/>
      <path class="cls-24" d="m655.19,175.71c8.71,2.22,17.14,4.62,25.05,7.24-.56,5.33-.87,10.4-.99,15.21v7.9h-24.07v-30.35Z"/>
      <path class="cls-24" d="m679.26,206.05c.19,8.02.96,15.27,2.12,21.82.42,2.34.88,4.59,1.39,6.76h-32.58v-6.76h5v-21.83l7.17.02h16.89Z"/>
      <path class="cls-29" d="m694.93,265.76l-39.96,22.81v-32.96h34.83c1.7,3.82,3.46,7.18,5.13,10.14Z"/>
      <path class="cls-24" d="m862.7,304.43l-57.69,184.87-.4,59.93v.28h-107.09v-225.82c.71-.15,1.42-.3,2.12-.45.7-.15,1.4-.3,2.09-.44,24.85-5.24,44.53-8.89,59.99-12.59.08-.01.15-.03.22-.05,7.14-1.71,13.38-3.43,18.8-5.33.38-.13.75-.26,1.12-.39,3.03-1.1,5.79-2.25,8.31-3.5t.02-.01c9.8-4.84,15.96-11.06,19.5-20.41.02-.04.04-.09.05-.13,1.21-3.21,2.1-6.78,2.73-10.79.67-4.17,1.04-8.81,1.17-14,0-.05,0-.1,0-.15,0-.14,0-.28,0-.42h.01s38.19,21.45,38.19,21.45l-7,22.39,17.84,5.56Z"/>
      <path class="cls-21" d="m772.39,217.5c2.4,0,4.35,1.95,4.35,4.35v14.65c0,2.6-1.33,4.9-3.36,6.23h0s-47.75,31.66-47.75,31.66l-23.57-36.45h0c-1.18-2.01-1.85-4.35-1.85-6.85,0-7.51,6.09-13.6,13.6-13.6h58.58Z"/>
      <path class="cls-24" d="m546.9,549.51h150.62v-.16l-150.62.16Zm140.34-223.6c-3.66.81-7.33,1.68-10.99,2.59-3.8.95-7.6,1.95-11.39,3.01,8.68-2.36,16.74-4.32,24.07-5.97-.56.12-1.12.25-1.69.37Zm-140.35,274.75v-.2l-78.19.2h78.19Zm-13.58-215.14c-29.03,15.27-48.19,27.44-50.14,28.7,2.36-1.43,29.16-17.54,60.11-33.86-3.44,1.75-6.76,3.47-9.97,5.16Zm-66.54,215.14h0v-59.87s0,59.87,0,59.87Z"/>
      <path class="cls-34" d="m543.09,76.26c1.09,0,1.96-.57,1.96-1.53,0-.48-.3-.97-.94-1.12.44-.21.76-.58.76-1.05,0-.89-.8-1.39-1.83-1.39s-1.69.48-2.04.98l.49.35c.29-.38.75-.72,1.48-.72.66,0,1.25.23,1.25.8,0,.47-.51.79-1.13.79h-.83v.6h.87c.78,0,1.27.3,1.27.77,0,.55-.54.93-1.32.93s-1.33-.28-1.73-.77l-.48.35c.37.61,1.17,1.02,2.21,1.02h0Z"/>
      <path class="cls-34" d="m546.21,74.34c0-.82.56-1.36,1.32-1.36s1.33.54,1.33,1.36-.54,1.35-1.33,1.35-1.32-.57-1.32-1.35h0Zm-.63,0c0,1.11.81,1.91,1.95,1.91s1.96-.8,1.96-1.91-.8-1.92-1.96-1.92-1.95.8-1.95,1.92Z"/>
      <path class="cls-34" d="m552.67,76.19h.59v-3.68h-2.75v.76c0,2.15-.4,2.36-.87,2.36v.57c.87.11,1.46-.5,1.46-2.94v-.17h1.56v3.11Z"/>
      <path class="cls-34" d="m554.55,74.34c0-.82.56-1.36,1.32-1.36s1.33.54,1.33,1.36-.54,1.35-1.33,1.35-1.32-.57-1.32-1.35h0Zm-.63,0c0,1.11.81,1.91,1.95,1.91s1.96-.8,1.96-1.91-.8-1.92-1.96-1.92-1.95.8-1.95,1.92Z"/>
      <polygon class="cls-34" points="557.92 73.06 559.33 73.06 559.33 76.19 559.92 76.19 559.92 73.06 561.34 73.06 561.34 72.51 557.92 72.51 557.92 73.06"/>
      <path class="cls-34" d="m562.87,75.7c-.5,0-.85-.23-.85-.61,0-.45.47-.59,1.21-.59.3,0,.6.04.79.11v.37c-.13.3-.53.72-1.15.72h0Zm-.93-2.31c.34-.25.68-.41,1.1-.41.77,0,.98.43.98,1.1-.18-.06-.59-.11-.86-.11-1.06,0-1.76.34-1.76,1.14,0,.68.54,1.13,1.34,1.13.64,0,1.08-.28,1.29-.59v.55h.59v-2.27c0-.95-.52-1.49-1.51-1.49-.54,0-1.13.21-1.47.52l.3.45Z"/>
      <path class="cls-34" d="m565.93,73.7c0-.37.25-.63.89-.63h.96v1.25h-.97c-.55,0-.88-.26-.88-.62h0Zm.96-1.2c-1.18,0-1.59.55-1.59,1.18,0,.57.38,1,.94,1.1l-1.17,1.39h.72l1.09-1.3h.9v1.3h.59v-3.68h-1.48Z"/>
      <path class="cls-34" d="m549.45,79.14c.98,0,1.34.4,1.34.95,0,.59-.42.98-1.39.98h-1.26v-1.93h1.31Zm-1.31,4.35v-1.83h1.27c1.51,0,2.04-.77,2.04-1.57,0-.76-.37-1.56-2.03-1.56h-1.92v4.95h.64Z"/>
      <path class="cls-34" d="m552.18,84.89c.12.06.25.09.41.09.51,0,.89-.3,1.39-1.54l1.4-3.62h-.65l-1.04,2.8-1.38-2.8h-.7l1.78,3.55-.11.28c-.25.59-.45.78-.71.78-.06,0-.11-.01-.16-.04l-.23.52Z"/>
      <path class="cls-34" d="m558.49,82.43c-.23.34-.59.57-1.03.57-.84,0-1.39-.54-1.39-1.35s.56-1.36,1.32-1.36c.45,0,.76.16,1.02.5l.46-.31c-.25-.45-.84-.75-1.49-.75-1.16,0-1.93.83-1.93,1.92,0,1.17.8,1.91,1.97,1.91.59,0,1.23-.28,1.51-.82l-.42-.3Z"/>
      <path class="cls-34" d="m560.87,81.52c.69,0,.96.25.96.7s-.25.7-.96.7h-.87v-1.4h.87Zm-1.46,1.97h1.49c1.17,0,1.56-.61,1.56-1.27s-.35-1.26-1.51-1.26h-.95v-1.15h-.59v3.68Z"/>
      <g>
        <path class="cls-34" d="m665.53,103.4c0,.49-.5.77-1.07.77-.77,0-1.36-.39-1.68-.8l-.42.45c.34.51,1.15.96,2.03.96,1.03,0,1.8-.58,1.8-1.43,0-1.77-3.06-1.1-3.06-2.31,0-.55.68-.74,1.15-.74.64,0,1.1.23,1.4.53l.42-.42c-.38-.48-1.03-.72-1.8-.72-1.13,0-1.83.62-1.83,1.36,0,1.83,3.06,1.11,3.06,2.34h0Z"/>
        <path class="cls-34" d="m668.12,104.23c-.5,0-.85-.23-.85-.61,0-.45.47-.59,1.21-.59.3,0,.6.04.79.11v.37c-.13.3-.53.72-1.15.72h0Zm-.93-2.31c.34-.25.68-.41,1.1-.41.77,0,.98.43.98,1.1-.18-.06-.59-.11-.86-.11-1.06,0-1.76.34-1.76,1.14,0,.68.54,1.13,1.34,1.13.64,0,1.08-.28,1.29-.59v.54h.59v-2.27c0-.95-.52-1.49-1.51-1.49-.54,0-1.13.21-1.47.52l.3.45Z"/>
        <path class="cls-34" d="m676.02,102.28c0-.95-.55-1.32-1.32-1.32-.51,0-.93.2-1.21.57-.19-.37-.57-.57-1.08-.57s-.92.25-1.13.57v-.5h-.59v3.68h.59v-2.46c.13-.32.49-.74,1.01-.74.48,0,.76.31.76.75v2.45h.59v-2.53c.18-.39.52-.67,1.01-.67.57,0,.76.4.76.94v2.26h.59v-2.44Z"/>
        <path class="cls-34" d="m679.09,103.71c0,.38-.33.51-.75.51-.57,0-1.07-.25-1.29-.64l-.47.33c.26.52.91.87,1.66.87.85,0,1.47-.33,1.47-1.08,0-1.44-2.33-.96-2.33-1.73,0-.33.42-.47.79-.47.48,0,.86.2,1.06.47l.42-.39c-.25-.36-.73-.64-1.37-.64-.9,0-1.53.4-1.53,1.05,0,1.36,2.34.84,2.34,1.71h0Z"/>
        <path class="cls-34" d="m683.6,101.02h-.59v2.41c-.23.5-.64.8-1.15.8-.76,0-.97-.53-.97-1.16v-2.04h-.59v2.13c0,1.13.51,1.63,1.51,1.63.53,0,.94-.23,1.2-.59v.52h.59v-3.7Z"/>
        <path class="cls-34" d="m684.46,104.72h.59v-2.46c.2-.45.63-.74,1.08-.74.72,0,1.08.36,1.08,1.17v2.02h.59v-2.09c0-1.17-.53-1.66-1.49-1.66-.53,0-1.02.19-1.26.56v-.48h-.59v3.68Z"/>
        <path class="cls-34" d="m690.36,104.22c-.79,0-1.3-.5-1.3-1.34,0-.89.59-1.37,1.29-1.37.5,0,.85.23,1.02.52v1.48c-.12.36-.49.7-1.01.7h0Zm1.61-3.18h-.6v.33c-.17-.21-.55-.4-1.1-.4-1.01,0-1.84.72-1.84,1.91s.74,1.91,1.83,1.91c.62,0,.87-.18,1.11-.46v.22c0,.68-.37,1.09-1.08,1.09-.59,0-.93-.28-1.08-.56l-.53.23c.21.54.83.89,1.64.89.94,0,1.65-.52,1.65-1.76v-3.4Z"/>
      </g>
      <path class="cls-34" d="m727.95,90.63c.86,0,1.15.25,1.15.76,0,.48-.41.76-1.04.76h-1.41v-1.53h1.3Zm.08,2.12c.86,0,1.23.26,1.23.79,0,.59-.4.85-1.3.85h-1.32v-1.63h1.39Zm-2.03,2.24h1.97c1.18,0,1.96-.41,1.96-1.42,0-.65-.34-1.06-.88-1.17.44-.19.7-.59.7-1.13,0-.71-.4-1.23-1.75-1.23h-2v4.95Z"/>
      <path class="cls-34" d="m731.17,92.51c0-1.13.83-1.92,1.85-1.92s1.84.79,1.84,1.92-.8,1.92-1.84,1.92-1.85-.8-1.85-1.92h0Zm-.67,0c0,1.48,1.12,2.54,2.52,2.54s2.51-1.08,2.51-2.54-1.12-2.54-2.51-2.54-2.52,1.1-2.52,2.54Z"/>
      <path class="cls-34" d="m738.18,90.63c.96,0,1.28.37,1.28.88,0,.57-.49.93-1.24.93h-1.27v-1.81h1.23Zm-1.23,4.35v-1.94h1.29l1.47,1.94h.79l-1.59-2.07c.71-.15,1.21-.69,1.21-1.4,0-.78-.41-1.49-1.92-1.49h-1.9v4.95h.64Z"/>
      <polygon class="cls-34" points="741.1 94.98 741.75 94.98 741.75 93.21 742.28 92.7 744.41 94.98 745.26 94.98 742.76 92.27 745.09 90.03 744.25 90.03 741.75 92.42 741.75 90.03 741.1 90.03 741.1 94.98"/>
      <g>
        <path class="cls-34" d="m807,171.61h.59v-2.56c.08-.38.37-.64.69-.64.23,0,.35.07.44.18l.37-.41c-.16-.21-.4-.33-.75-.33-.28,0-.63.1-.76.36v-.28h-.59v3.68Z"/>
        <path class="cls-34" d="m810.92,168.39c.66,0,1.08.37,1.11,1.03h-2.31c.09-.6.52-1.03,1.2-1.03h0Zm1.22,2.17c-.22.32-.62.56-1.07.56-.75,0-1.31-.41-1.34-1.15h2.9c.03-.16.04-.33.04-.45,0-1.02-.73-1.67-1.7-1.67-1.22,0-1.88.83-1.88,1.92,0,1.17.79,1.91,1.96,1.91.6,0,1.13-.25,1.47-.76l-.38-.35Z"/>
        <path class="cls-34" d="m813.6,168.3c0,.22.18.42.44.42.25,0,.42-.2.42-.42,0-.19-.18-.4-.42-.4-.26,0-.44.21-.44.4h0Zm0,2.9c0,.22.18.42.44.42.25,0,.42-.2.42-.42,0-.19-.18-.4-.42-.4-.26,0-.44.21-.44.4Z"/>
        <path class="cls-34" d="m820.69,170.29c0,.49-.5.77-1.07.77-.77,0-1.36-.39-1.68-.8l-.42.45c.34.51,1.15.96,2.03.96,1.03,0,1.8-.58,1.8-1.43,0-1.77-3.06-1.1-3.06-2.31,0-.55.68-.74,1.15-.74.64,0,1.1.23,1.4.53l.42-.42c-.37-.48-1.03-.72-1.8-.72-1.13,0-1.83.62-1.83,1.36,0,1.83,3.06,1.11,3.06,2.34h0Z"/>
        <path class="cls-34" d="m821.67,168.49h.76v1.78c0,.91.4,1.39,1.12,1.39.46,0,.81-.14,1.04-.39l-.27-.44c-.2.16-.41.26-.66.26-.44,0-.64-.25-.64-.98v-1.62h1.27v-.57h-1.27v-.94h-.59v.94h-.76v.57Z"/>
        <path class="cls-34" d="m825.35,169.76c0-.82.56-1.36,1.32-1.36s1.33.54,1.33,1.36-.54,1.35-1.33,1.35-1.32-.57-1.32-1.35h0Zm-.63,0c0,1.11.81,1.91,1.95,1.91s1.96-.8,1.96-1.91-.8-1.92-1.96-1.92-1.95.8-1.95,1.92Z"/>
        <path class="cls-34" d="m829.28,171.61h.59v-2.56c.08-.38.37-.64.69-.64.23,0,.35.07.44.18l.38-.41c-.16-.21-.4-.33-.75-.33-.28,0-.63.1-.76.36v-.28h-.59v3.68Z"/>
        <path class="cls-34" d="m833.2,168.39c.66,0,1.08.37,1.11,1.03h-2.31c.09-.6.52-1.03,1.2-1.03h0Zm1.22,2.17c-.22.32-.62.56-1.07.56-.75,0-1.31-.41-1.34-1.15h2.9c.03-.16.04-.33.04-.45,0-1.02-.73-1.67-1.7-1.67-1.22,0-1.88.83-1.88,1.92,0,1.17.79,1.91,1.96,1.91.6,0,1.12-.25,1.47-.76l-.38-.35Z"/>
      </g>
      <polygon class="cls-34" points="497.21 176.51 497.85 176.51 497.85 172.67 499.59 174.95 499.75 174.95 501.44 172.67 501.44 176.51 502.08 176.51 502.08 171.56 501.5 171.56 499.69 174.05 497.8 171.56 497.21 171.56 497.21 176.51"/>
      <path class="cls-34" d="m504.67,173.29c.66,0,1.08.37,1.11,1.03h-2.31c.09-.6.52-1.03,1.2-1.03h0Zm1.22,2.17c-.22.32-.62.56-1.07.56-.75,0-1.31-.41-1.34-1.15h2.9c.03-.16.04-.33.04-.45,0-1.02-.73-1.67-1.7-1.67-1.22,0-1.88.83-1.88,1.92,0,1.17.79,1.91,1.96,1.91.6,0,1.13-.25,1.47-.76l-.38-.35Z"/>
      <polygon class="cls-34" points="507.07 176.51 507.66 176.51 507.66 173.39 509.75 173.39 509.75 172.83 507.07 172.83 507.07 176.51"/>
      <path class="cls-34" d="m511.28,176.02c-.5,0-.85-.23-.85-.61,0-.45.47-.59,1.21-.59.3,0,.6.04.79.11v.37c-.13.3-.53.72-1.15.72h0Zm-.93-2.31c.34-.25.68-.41,1.1-.41.77,0,.98.43.98,1.1-.18-.06-.59-.11-.86-.11-1.06,0-1.76.34-1.76,1.14,0,.68.54,1.12,1.34,1.12.64,0,1.08-.28,1.29-.59v.55h.59v-2.27c0-.95-.52-1.49-1.51-1.49-.54,0-1.13.21-1.47.52l.3.45Z"/>
      <path class="cls-34" d="m516.28,173.33c.89,0,1.35.59,1.35,1.34,0,.81-.45,1.34-1.35,1.34h-.04v-2.68h.04Zm-2.02,1.34c0-.77.45-1.34,1.34-1.34h.05v2.68h-.04c-.88,0-1.34-.53-1.34-1.34Zm1.39,3.25h.59v-1.34h.04c1.26,0,1.98-.81,1.98-1.9s-.76-1.91-1.97-1.91h-.06v-1.42h-.59v1.42h-.05c-1.25,0-1.97.91-1.97,1.91,0,1.1.72,1.9,1.97,1.9h.04v1.34Z"/>
      <path class="cls-34" d="m519.33,174.66c0-.82.56-1.36,1.32-1.36s1.33.54,1.33,1.36-.54,1.35-1.33,1.35-1.32-.57-1.32-1.35h0Zm-.63,0c0,1.11.81,1.91,1.95,1.91s1.96-.8,1.96-1.91-.8-1.92-1.96-1.92-1.95.8-1.95,1.92Z"/>
      <polygon class="cls-34" points="525.98 176.51 526.57 176.51 526.57 172.83 525.98 172.83 525.98 174.36 523.86 174.36 523.86 172.83 523.26 172.83 523.26 176.51 523.86 176.51 523.86 174.92 525.98 174.92 525.98 176.51"/>
      <path class="cls-34" d="m501.8,203.34c.84,0,1.22.28,1.22.82,0,.63-.45.91-1.27.91h-1.33v-1.73h1.37Zm1.52-2.63h-3.54v4.95h1.92c1.23,0,1.98-.47,1.98-1.51,0-.91-.61-1.42-1.79-1.42h-1.47v-1.42h2.89v-.6Z"/>
      <polygon class="cls-34" points="504.9 205.67 507.15 202.92 507.15 205.67 507.74 205.67 507.74 201.99 507.19 201.99 504.95 204.75 504.95 201.99 504.36 201.99 504.36 205.67 504.9 205.67"/>
      <path class="cls-34" d="m511.21,205.67h.59v-3.68h-2.75v.76c0,2.15-.4,2.36-.87,2.36v.57c.87.11,1.46-.5,1.46-2.94v-.17h1.56v3.11Z"/>
      <path class="cls-34" d="m513.88,205.18c-.5,0-.85-.23-.85-.61,0-.45.47-.59,1.21-.59.3,0,.6.04.79.11v.37c-.13.3-.53.72-1.15.72h0Zm-.93-2.31c.34-.25.68-.41,1.1-.41.77,0,.98.43.98,1.1-.18-.06-.59-.11-.86-.11-1.06,0-1.76.34-1.76,1.14,0,.68.54,1.13,1.34,1.13.64,0,1.08-.28,1.29-.59v.55h.59v-2.27c0-.95-.52-1.49-1.51-1.49-.54,0-1.13.21-1.47.52l.3.45Z"/>
      <path class="cls-34" d="m517.01,200.41c0,.66.5,1.05,1.19,1.05.64,0,1.15-.4,1.17-1.05h-.56c0,.34-.22.58-.61.58s-.62-.24-.63-.58h-.56Zm-.02,5.26l2.24-2.75v2.75h.59v-3.68h-.55l-2.24,2.76v-2.76h-.59v3.68h.54Z"/>
      <polygon class="cls-34" points="523.41 205.67 524 205.67 524 201.99 523.41 201.99 523.41 203.52 521.28 203.52 521.28 201.99 520.69 201.99 520.69 205.67 521.28 205.67 521.28 204.08 523.41 204.08 523.41 205.67"/>
      <path class="cls-34" d="m545.93,204.91c-.34.38-.83.67-1.51.67-1.15,0-1.92-.76-1.92-1.92s.69-1.92,1.85-1.92c.65,0,1.09.23,1.47.61l.42-.4c-.33-.45-1.01-.82-1.9-.82-1.54,0-2.5,1.12-2.5,2.54,0,1.54.99,2.54,2.55,2.54.81,0,1.55-.35,1.92-.87l-.37-.41Z"/>
      <path class="cls-34" d="m547.1,204.29c0-.82.56-1.36,1.32-1.36s1.33.54,1.33,1.36-.54,1.35-1.33,1.35-1.32-.57-1.32-1.35h0Zm-.63,0c0,1.11.81,1.91,1.95,1.91s1.96-.8,1.96-1.91-.8-1.92-1.96-1.92-1.95.8-1.95,1.92Z"/>
      <polygon class="cls-34" points="550.66 203.01 552.87 203.01 550.55 205.74 550.55 206.13 553.73 206.13 553.73 205.57 551.45 205.57 553.77 202.84 553.77 202.45 550.66 202.45 550.66 203.01"/>
      <path class="cls-34" d="m554.43,207.53c.12.06.25.09.41.09.51,0,.89-.3,1.39-1.54l1.4-3.62h-.65l-1.04,2.8-1.38-2.8h-.7l1.78,3.55-.11.28c-.25.59-.45.78-.71.78-.06,0-.11-.01-.16-.04l-.23.52Z"/>
      <polygon class="cls-34" points="543.79 213.43 544.43 213.43 544.43 208.48 543.79 208.48 543.79 210.62 540.84 210.62 540.84 208.48 540.19 208.48 540.19 213.43 540.84 213.43 540.84 211.22 543.79 211.22 543.79 213.43"/>
      <path class="cls-34" d="m545.81,211.59c0-.82.56-1.36,1.32-1.36s1.33.54,1.33,1.36-.54,1.35-1.33,1.35-1.32-.57-1.32-1.35h0Zm-.63,0c0,1.11.81,1.91,1.95,1.91s1.96-.8,1.96-1.91-.8-1.92-1.96-1.92-1.95.8-1.95,1.92Z"/>
      <path class="cls-34" d="m555.08,210.99c0-.95-.55-1.32-1.32-1.32-.51,0-.93.2-1.21.57-.19-.37-.57-.57-1.08-.57s-.92.25-1.13.57v-.5h-.59v3.68h.59v-2.46c.13-.32.49-.74,1.01-.74.48,0,.76.31.76.75v2.45h.59v-2.53c.18-.39.52-.67,1.01-.67.57,0,.76.4.76.94v2.26h.59v-2.44Z"/>
      <path class="cls-34" d="m557.52,210.21c.66,0,1.08.37,1.11,1.03h-2.31c.09-.6.52-1.03,1.2-1.03h0Zm1.22,2.17c-.22.32-.62.56-1.07.56-.75,0-1.31-.41-1.34-1.15h2.9c.03-.16.04-.33.04-.45,0-1.02-.73-1.67-1.7-1.67-1.22,0-1.88.83-1.88,1.92,0,1.17.79,1.91,1.96,1.91.6,0,1.13-.25,1.47-.76l-.38-.35Z"/>
      <polygon class="cls-34" points="567.99 210.36 568.64 210.36 568.64 208.31 571.35 208.31 571.35 207.71 568.64 207.71 568.64 206.01 571.55 206.01 571.55 205.41 567.99 205.41 567.99 210.36"/>
      <path class="cls-34" d="m572.15,205.49c0,.21.16.37.38.37.2,0,.37-.16.37-.37,0-.2-.17-.35-.37-.35-.21,0-.38.15-.38.35h0Zm.08,4.88h.59v-3.68h-.59v3.68Z"/>
      <path class="cls-34" d="m576.02,209.36c0,.38-.33.51-.75.51-.57,0-1.07-.25-1.29-.64l-.47.33c.26.52.91.87,1.66.87.85,0,1.47-.33,1.47-1.08,0-1.44-2.34-.96-2.34-1.73,0-.33.42-.47.79-.47.48,0,.86.2,1.06.47l.42-.39c-.25-.36-.73-.64-1.37-.64-.9,0-1.53.4-1.53,1.05,0,1.36,2.34.84,2.34,1.71h0Z"/>
      <path class="cls-34" d="m579.54,209.36c0,.38-.33.51-.75.51-.57,0-1.07-.25-1.29-.64l-.47.33c.26.52.91.87,1.66.87.85,0,1.47-.33,1.47-1.08,0-1.44-2.34-.96-2.34-1.73,0-.33.42-.47.79-.47.48,0,.86.2,1.06.47l.42-.39c-.25-.36-.73-.64-1.37-.64-.9,0-1.53.4-1.53,1.05,0,1.36,2.34.84,2.34,1.71h0Z"/>
      <path class="cls-34" d="m586.13,207.92c0-.95-.55-1.32-1.32-1.32-.51,0-.93.2-1.21.57-.19-.37-.57-.57-1.08-.57s-.92.25-1.13.57v-.5h-.59v3.68h.59v-2.46c.13-.32.49-.74,1.01-.74.48,0,.76.31.76.75v2.45h.59v-2.53c.18-.39.52-.67,1.01-.67.57,0,.76.4.76.94v2.26h.59v-2.44Z"/>
      <path class="cls-34" d="m588.16,209.87c-.5,0-.85-.23-.85-.61,0-.45.47-.59,1.21-.59.3,0,.6.04.79.11v.37c-.13.3-.53.72-1.15.72h0Zm-.93-2.31c.34-.25.68-.41,1.1-.41.77,0,.98.43.98,1.1-.18-.06-.59-.11-.86-.11-1.06,0-1.76.34-1.76,1.14,0,.68.54,1.13,1.34,1.13.64,0,1.08-.28,1.29-.59v.55h.59v-2.27c0-.95-.52-1.49-1.51-1.49-.54,0-1.13.21-1.47.52l.3.45Z"/>
      <path class="cls-34" d="m590.72,210.36h.59v-2.46c.2-.45.63-.74,1.08-.74.72,0,1.08.36,1.08,1.17v2.02h.59v-2.09c0-1.17-.53-1.66-1.49-1.66-.53,0-1.02.19-1.26.56v-.48h-.59v3.68Z"/>
      <polygon class="cls-34" points="505.07 228.47 505.71 228.47 505.71 224.63 507.45 226.9 507.61 226.9 509.3 224.63 509.3 228.47 509.94 228.47 509.94 223.52 509.36 223.52 507.54 226.01 505.66 223.52 505.07 223.52 505.07 228.47"/>
      <polygon class="cls-34" points="510.49 224.12 512.21 224.12 512.21 228.47 512.85 228.47 512.85 224.12 514.58 224.12 514.58 223.52 510.49 223.52 510.49 224.12"/>
      <path class="cls-34" d="m518.65,227.25c-.34.38-.83.67-1.51.67-1.15,0-1.92-.76-1.92-1.92s.69-1.92,1.85-1.92c.65,0,1.09.23,1.47.61l.42-.4c-.33-.45-1.01-.82-1.9-.82-1.54,0-2.5,1.12-2.5,2.54,0,1.54.99,2.54,2.55,2.54.81,0,1.55-.35,1.92-.87l-.37-.41Z"/>
      <polygon class="cls-34" points="611.38 259.06 611.38 257.34 615.74 257.34 615.74 256.7 611.38 256.7 611.38 254.97 610.78 254.97 610.78 259.06 611.38 259.06"/>
      <path class="cls-34" d="m612.52,253.83c0-.66.37-1.08,1.03-1.11v2.31c-.6-.09-1.03-.52-1.03-1.2h0Zm2.17-1.22c.32.22.56.62.56,1.07,0,.75-.41,1.31-1.15,1.34v-2.9c-.16-.03-.33-.04-.45-.04-1.02,0-1.67.73-1.67,1.7,0,1.22.83,1.88,1.92,1.88,1.17,0,1.91-.79,1.91-1.96,0-.6-.25-1.13-.76-1.47l-.35.38Z"/>
      <polygon class="cls-34" points="612.62 251.78 612.62 249.56 615.34 251.89 615.74 251.89 615.74 248.71 615.18 248.71 615.18 250.99 612.45 248.67 612.06 248.67 612.06 251.78 612.62 251.78"/>
      <path class="cls-34" d="m612.52,246.63c0-.66.37-1.08,1.03-1.11v2.31c-.6-.09-1.03-.52-1.03-1.2h0Zm2.17-1.22c.32.22.56.62.56,1.07,0,.75-.41,1.31-1.15,1.34v-2.9c-.16-.03-.33-.04-.45-.04-1.02,0-1.67.73-1.67,1.7,0,1.22.83,1.88,1.92,1.88,1.17,0,1.91-.79,1.91-1.96,0-.6-.25-1.13-.76-1.47l-.35.38Z"/>
      <path class="cls-34" d="m615.74,244.23v-.59h-2.46c-.45-.2-.74-.63-.74-1.08,0-.72.36-1.08,1.17-1.08h2.02v-.59h-2.09c-1.17,0-1.66.53-1.66,1.49,0,.53.19,1.02.56,1.26h-.48v.59h3.68Z"/>
      <path class="cls-34" d="m610.86,240.06c.21,0,.37-.16.37-.38,0-.2-.16-.37-.37-.37-.2,0-.35.17-.35.37,0,.21.15.38.35.38h0Zm4.88-.08v-.59h-3.68v.59h3.68Z"/>
      <path class="cls-34" d="m614.73,236.19c.38,0,.51.33.51.75,0,.57-.25,1.07-.64,1.29l.33.47c.52-.26.87-.91.87-1.66,0-.85-.33-1.47-1.08-1.47-1.44,0-.96,2.34-1.73,2.34-.33,0-.47-.42-.47-.79,0-.48.2-.86.47-1.06l-.39-.42c-.36.25-.64.73-.64,1.37,0,.9.4,1.53,1.05,1.53,1.36,0,.84-2.34,1.71-2.34h0Z"/>
      <g>
        <path class="cls-34" d="m584.8,298.13c.38.34.67.83.67,1.51,0,1.15-.76,1.92-1.92,1.92s-1.92-.69-1.92-1.85c0-.65.23-1.09.61-1.47l-.4-.42c-.45.33-.82,1.01-.82,1.9,0,1.54,1.12,2.5,2.54,2.5,1.54,0,2.54-.99,2.54-2.55,0-.81-.35-1.55-.87-1.92l-.41.37Z"/>
        <path class="cls-34" d="m585.53,295.98c0,.5-.23.85-.61.85-.45,0-.59-.47-.59-1.21,0-.3.04-.6.11-.79h.37c.3.13.72.53.72,1.15h0Zm-2.31.93c-.25-.34-.41-.68-.41-1.1,0-.77.43-.98,1.1-.98-.06.18-.11.59-.11.86,0,1.06.34,1.76,1.14,1.76.68,0,1.13-.54,1.13-1.34,0-.64-.28-1.08-.59-1.29h.54v-.59h-2.27c-.95,0-1.49.52-1.49,1.51,0,.54.21,1.13.52,1.47l.45-.3Z"/>
        <rect class="cls-34" x="580.85" y="292.77" width="5.17" height=".59"/>
        <polygon class="cls-34" points="582.9 292.02 582.9 289.81 585.62 292.14 586.02 292.14 586.02 288.95 585.46 288.95 585.46 291.24 582.73 288.91 582.34 288.91 582.34 292.02 582.9 292.02"/>
        <path class="cls-34" d="m582.8,286.87c0-.66.37-1.08,1.03-1.11v2.31c-.6-.09-1.03-.52-1.03-1.2h0Zm2.17-1.22c.32.22.56.62.56,1.07,0,.75-.41,1.31-1.15,1.34v-2.9c-.16-.03-.33-.04-.45-.04-1.02,0-1.67.73-1.67,1.7,0,1.22.83,1.88,1.92,1.88,1.17,0,1.91-.79,1.91-1.96,0-.6-.25-1.13-.76-1.47l-.35.38Z"/>
        <path class="cls-34" d="m585.51,282.85c0,.74-.51,1.27-1.34,1.27s-1.36-.6-1.36-1.3c0-.47.18-.8.52-1.03h1.49c.28.13.7.5.7,1.06h0Zm.5-1.06v-.59h-5.17v.59h1.76c-.22.22-.36.57-.36,1.1,0,1.03.79,1.86,1.93,1.86s1.9-.74,1.9-1.81c0-.62-.29-1.01-.5-1.15h.44Z"/>
        <path class="cls-34" d="m584.17,279.91c-.82,0-1.36-.56-1.36-1.32s.54-1.33,1.36-1.33,1.35.54,1.35,1.33-.57,1.32-1.35,1.32h0Zm0,.63c1.11,0,1.91-.81,1.91-1.95s-.8-1.96-1.91-1.96-1.92.8-1.92,1.96.8,1.95,1.92,1.95Z"/>
        <path class="cls-34" d="m586.02,275.98v-.59h-2.46c-.45-.2-.74-.63-.74-1.08,0-.72.36-1.08,1.17-1.08h2.02v-.59h-2.09c-1.17,0-1.66.53-1.66,1.49,0,.53.19,1.02.56,1.26h-.48v.59h3.68Z"/>
        <path class="cls-34" d="m581.14,271.81c.21,0,.37-.16.37-.38,0-.2-.16-.37-.37-.37-.2,0-.35.17-.35.37,0,.21.15.38.35.38h0Zm4.88-.08v-.59h-3.68v.59h3.68Z"/>
        <path class="cls-34" d="m585.53,268.98c0,.5-.23.85-.61.85-.45,0-.59-.47-.59-1.21,0-.3.04-.6.11-.79h.37c.3.13.72.53.72,1.15h0Zm-2.31.93c-.25-.34-.41-.68-.41-1.1,0-.77.43-.98,1.1-.98-.06.18-.11.59-.11.86,0,1.06.34,1.76,1.14,1.76.68,0,1.13-.54,1.13-1.34,0-.64-.28-1.08-.59-1.29h.54v-.59h-2.27c-.95,0-1.49.52-1.49,1.51,0,.54.21,1.13.52,1.47l.45-.3Z"/>
      </g>
      <g>
        <rect class="cls-34" x="637.39" y="274.84" width="4.95" height=".64"/>
        <path class="cls-34" d="m642.34,273.88v-.59h-2.46c-.45-.2-.74-.63-.74-1.08,0-.72.36-1.08,1.17-1.08h2.02v-.59h-2.09c-1.17,0-1.66.53-1.66,1.49,0,.53.19,1.02.56,1.26h-.48v.59h3.68Z"/>
        <path class="cls-34" d="m639.23,270.1v-.76h1.78c.91,0,1.39-.4,1.39-1.12,0-.46-.14-.81-.39-1.04l-.44.27c.16.2.26.41.26.66,0,.44-.25.64-.98.64h-1.62v-1.27h-.57v1.27h-.94v.59h.94v.76h.57Z"/>
        <path class="cls-34" d="m637.47,266.74c.21,0,.37-.16.37-.38,0-.2-.16-.37-.37-.37-.2,0-.35.17-.35.37,0,.21.15.38.35.38h0Zm4.88-.08v-.59h-3.68v.59h3.68Z"/>
        <path class="cls-34" d="m639.9,259.79c-.95,0-1.32.55-1.32,1.32,0,.51.2.93.57,1.21-.37.19-.57.57-.57,1.08s.25.92.57,1.13h-.5v.59h3.68v-.59h-2.46c-.32-.13-.74-.49-.74-1.01,0-.48.31-.76.75-.76h2.45v-.59h-2.53c-.39-.18-.67-.52-.67-1.01,0-.57.4-.76.94-.76h2.26v-.59h-2.44Z"/>
        <path class="cls-34" d="m637.47,258.98c.21,0,.37-.16.37-.38,0-.2-.16-.37-.37-.37-.2,0-.35.17-.35.37,0,.21.15.38.35.38h0Zm4.88-.08v-.59h-3.68v.59h3.68Z"/>
        <path class="cls-34" d="m641.34,255.11c.38,0,.51.33.51.75,0,.57-.25,1.07-.64,1.29l.33.47c.52-.26.87-.91.87-1.66,0-.85-.33-1.47-1.08-1.47-1.44,0-.96,2.34-1.73,2.34-.33,0-.47-.42-.47-.79,0-.48.2-.86.47-1.06l-.39-.42c-.36.25-.64.73-.64,1.37,0,.9.4,1.53,1.05,1.53,1.36,0,.84-2.34,1.71-2.34h0Z"/>
        <path class="cls-34" d="m641.34,251.59c.38,0,.51.33.51.75,0,.57-.25,1.07-.64,1.29l.33.47c.52-.26.87-.91.87-1.66,0-.85-.33-1.47-1.08-1.47-1.44,0-.96,2.34-1.73,2.34-.33,0-.47-.42-.47-.79,0-.48.2-.86.47-1.06l-.39-.42c-.36.25-.64.73-.64,1.37,0,.9.4,1.53,1.05,1.53,1.36,0,.84-2.34,1.71-2.34h0Z"/>
        <path class="cls-34" d="m637.47,250.33c.21,0,.37-.16.37-.38,0-.2-.16-.37-.37-.37-.2,0-.35.17-.35.37,0,.21.15.38.35.38h0Zm4.88-.08v-.59h-3.68v.59h3.68Z"/>
        <path class="cls-34" d="m639.9,243.38c-.95,0-1.32.55-1.32,1.32,0,.51.2.93.57,1.21-.37.19-.57.57-.57,1.08s.25.92.57,1.13h-.5v.59h3.68v-.59h-2.46c-.32-.13-.74-.49-.74-1.01,0-.48.31-.76.75-.76h2.45v-.59h-2.53c-.39-.18-.67-.52-.67-1.01,0-.57.4-.76.94-.76h2.26v-.59h-2.44Z"/>
        <path class="cls-34" d="m637.47,242.57c.21,0,.37-.16.37-.38,0-.2-.16-.37-.37-.37-.2,0-.35.17-.35.37,0,.21.15.38.35.38h0Zm4.88-.08v-.59h-3.68v.59h3.68Z"/>
      </g>
      <path class="cls-34" d="m501.69,267.59c-.34.38-.83.67-1.51.67-1.15,0-1.92-.76-1.92-1.92s.69-1.92,1.85-1.92c.65,0,1.09.23,1.47.61l.42-.4c-.33-.45-1.01-.82-1.9-.82-1.54,0-2.51,1.12-2.51,2.54,0,1.54.99,2.54,2.55,2.54.81,0,1.55-.35,1.92-.87l-.37-.41Z"/>
      <path class="cls-34" d="m502.87,266.96c0-.82.56-1.36,1.32-1.36s1.33.54,1.33,1.36-.54,1.35-1.33,1.35-1.32-.57-1.32-1.35h0Zm-.63,0c0,1.11.81,1.91,1.95,1.91s1.96-.8,1.96-1.91-.8-1.92-1.96-1.92-1.95.8-1.95,1.92Z"/>
      <path class="cls-34" d="m509.32,268.8h.59v-3.68h-2.75v.76c0,2.15-.4,2.36-.87,2.36v.57c.87.11,1.46-.5,1.46-2.94v-.17h1.56v3.11Z"/>
      <path class="cls-34" d="m511.28,266.32c0-.37.25-.63.89-.63h.96v1.25h-.97c-.55,0-.88-.26-.88-.62h0Zm.96-1.2c-1.18,0-1.59.55-1.59,1.18,0,.57.38,1,.94,1.1l-1.17,1.39h.72l1.09-1.3h.9v1.3h.59v-3.68h-1.48Z"/>
      <path class="cls-34" d="m516.3,265.6c.74,0,1.2.52,1.2,1.34s-.52,1.37-1.25,1.37c-.43,0-.84-.17-1.07-.57v-1.37c.15-.37.55-.76,1.13-.76h0Zm-1.72,4.62h.59v-1.73c.27.27.65.37,1.12.37,1.09,0,1.83-.84,1.83-1.97s-.67-1.86-1.76-1.86c-.44,0-.92.15-1.19.54v-.46h-.59v5.09Z"/>
      <polygon class="cls-34" points="519.33 268.8 521.57 266.05 521.57 268.8 522.17 268.8 522.17 265.13 521.62 265.13 519.38 267.88 519.38 265.13 518.79 265.13 518.79 268.8 519.33 268.8"/>
      <path class="cls-34" d="m525.88,267.74c-.23.34-.59.57-1.03.57-.84,0-1.39-.54-1.39-1.35s.56-1.36,1.32-1.36c.45,0,.76.16,1.02.5l.46-.31c-.25-.45-.84-.75-1.49-.75-1.16,0-1.93.83-1.93,1.92,0,1.17.8,1.91,1.97,1.91.59,0,1.23-.28,1.51-.82l-.42-.3Z"/>
      <rect class="cls-34" x="539.04" y="286.07" width=".64" height="4.95"/>
      <path class="cls-34" d="m540.64,291.02h.59v-2.46c.2-.45.63-.74,1.08-.74.72,0,1.08.36,1.08,1.17v2.02h.59v-2.09c0-1.17-.53-1.66-1.49-1.66-.53,0-1.02.19-1.26.56v-.48h-.59v3.68Z"/>
      <path class="cls-34" d="m547.66,289.96c-.23.34-.59.57-1.03.57-.84,0-1.39-.54-1.39-1.35s.56-1.36,1.32-1.36c.45,0,.76.16,1.02.5l.46-.31c-.25-.45-.84-.75-1.49-.75-1.16,0-1.93.83-1.93,1.92,0,1.17.8,1.91,1.97,1.91.59,0,1.23-.28,1.51-.82l-.42-.3Z"/>
      <path class="cls-34" d="m549.79,290.53c-.5,0-.85-.23-.85-.61,0-.45.47-.59,1.21-.59.3,0,.6.04.79.11v.37c-.13.3-.53.72-1.15.72h0Zm-.93-2.31c.34-.25.68-.41,1.1-.41.77,0,.98.43.98,1.1-.18-.06-.59-.11-.86-.11-1.06,0-1.76.34-1.76,1.14,0,.68.54,1.13,1.34,1.13.64,0,1.08-.28,1.29-.59v.54h.59v-2.27c0-.95-.52-1.49-1.51-1.49-.54,0-1.13.21-1.47.52l.3.45Z"/>
      <path class="cls-34" d="m552.35,291.02h.59v-2.46c.2-.45.63-.74,1.08-.74.72,0,1.08.36,1.08,1.17v2.02h.59v-2.09c0-1.17-.53-1.66-1.49-1.66-.53,0-1.02.19-1.26.56v-.48h-.59v3.68Z"/>
      <path class="cls-34" d="m556.13,287.91h.76v1.78c0,.91.4,1.39,1.12,1.39.46,0,.81-.14,1.04-.39l-.27-.44c-.2.16-.41.26-.67.26-.44,0-.64-.25-.64-.98v-1.62h1.27v-.57h-1.27v-.94h-.59v.94h-.76v.57Z"/>
      <path class="cls-34" d="m559.81,289.17c0-.82.56-1.36,1.32-1.36s1.33.54,1.33,1.36-.54,1.35-1.33,1.35-1.32-.57-1.32-1.35h0Zm-.63,0c0,1.11.81,1.91,1.95,1.91s1.96-.8,1.96-1.91-.8-1.92-1.96-1.92-1.95.8-1.95,1.92Z"/>
      <path class="cls-34" d="m195.87,294.09c1.11,0,1.54.26,1.54.94,0,.74-.51,1.03-1.62,1.03h-1.76v-1.97h1.84Zm3.02-5.27h-6.88v9.14h3.71c2.44,0,3.8-.9,3.8-2.94,0-1.78-1.03-2.82-3.19-2.82h-2.3v-1.49h4.86v-1.89Z"/>
      <path class="cls-34" d="m204.52,290.71c1.28,0,1.72.52,1.72,1.24,0,.77-.54,1.24-1.8,1.24h-1.74v-2.48h1.81Zm-1.81,7.25v-2.87h1.76c2.89,0,3.88-1.58,3.88-3.12s-.77-3.15-3.88-3.15h-3.79v9.14h2.02Z"/>
      <path class="cls-34" d="m211.1,293.39c0-1.7,1.23-2.77,2.61-2.77s2.6,1.07,2.6,2.77-1.16,2.77-2.6,2.77-2.61-1.07-2.61-2.77h0Zm-2.1,0c0,2.72,2.1,4.73,4.71,4.73s4.7-2.04,4.7-4.73-2.09-4.73-4.7-4.73-4.71,2.09-4.71,4.73Z"/>
      <path class="cls-34" d="m226.56,294.94c-.63.78-1.5,1.21-2.52,1.21-1.58,0-2.74-1.12-2.74-2.77s1.14-2.77,2.77-2.77c.74,0,1.63.35,2.18,1.03l1.37-1.25c-.65-1.03-2.02-1.74-3.69-1.74-2.83,0-4.73,2.11-4.73,4.73,0,2.83,1.83,4.73,4.67,4.73,1.62,0,3.07-.68,3.89-1.88l-1.2-1.29Z"/>
      <polygon class="cls-34" points="228.74 297.96 230.76 297.96 230.76 294.89 231.42 294.22 234.51 297.96 237.17 297.96 232.94 292.87 236.91 288.82 234.28 288.82 230.76 292.38 230.76 288.82 228.74 288.82 228.74 297.96"/>
      <path class="cls-34" d="m238.95,293.39c0-1.7,1.23-2.77,2.61-2.77s2.6,1.07,2.6,2.77-1.16,2.77-2.6,2.77-2.61-1.07-2.61-2.77h0Zm-2.1,0c0,2.72,2.1,4.73,4.71,4.73s4.7-2.04,4.7-4.73-2.09-4.73-4.7-4.73-4.71,2.09-4.71,4.73Z"/>
      <polygon class="cls-34" points="250.58 297.96 252.61 297.96 252.61 292.43 255.06 296.12 255.59 296.12 257.97 292.47 257.97 297.96 259.99 297.96 259.99 288.82 258.17 288.82 255.39 293.19 252.46 288.82 250.58 288.82 250.58 297.96"/>
      <path class="cls-34" d="m265.53,291.82l1.17,2.73h-2.38l1.2-2.73Zm-4.74,6.14h2.09l.74-1.7h3.82l.74,1.7h2.11l-4.01-9.14h-1.5l-4.01,9.14Z"/>
      <path class="cls-34" d="m274.94,290.71c1.28,0,1.72.52,1.72,1.24,0,.77-.54,1.24-1.8,1.24h-1.74v-2.48h1.81Zm-1.81,7.25v-2.87h1.76c2.89,0,3.88-1.58,3.88-3.12s-.77-3.15-3.88-3.15h-3.79v9.14h2.02Z"/>
      <polygon class="cls-34" points="279.94 297.96 281.96 297.96 281.96 294.89 282.62 294.22 285.71 297.96 288.37 297.96 284.15 292.87 288.11 288.82 285.48 288.82 281.96 292.38 281.96 288.82 279.94 288.82 279.94 297.96"/>
      <polygon class="cls-34" points="289.09 297.96 296.19 297.96 296.19 296.06 291.12 296.06 291.12 294.24 295.75 294.24 295.75 292.41 291.12 292.41 291.12 290.71 296.08 290.71 296.08 288.82 289.09 288.82 289.09 297.96"/>
      <polygon class="cls-34" points="296.72 290.71 299.64 290.71 299.64 297.96 301.66 297.96 301.66 290.71 304.6 290.71 304.6 288.82 296.72 288.82 296.72 290.71"/>
      <path class="cls-34" d="m734.99,413.74c2.22,0,3.75-1.12,3.75-3,0-.74-.17-1.62-1.24-2.05.69-.4.94-.98.94-1.74,0-1.66-1.23-2.66-3.52-2.66-1.98,0-3.19.72-4.01,1.84l1.57,1.06c.6-.68,1.27-1.01,2.32-1.01.69,0,1.61.2,1.61.95,0,.51-.6.85-1.68.85h-1.36v1.89h1.44c1.25,0,1.91.29,1.91.98,0,.57-.42.99-1.76.99-1.27,0-2.13-.4-2.75-1.24l-1.61,1.08c1.01,1.49,2.52,2.05,4.41,2.05h0Z"/>
      <path class="cls-34" d="m741.62,409.01c0-1.7,1.23-2.77,2.61-2.77s2.6,1.07,2.6,2.77-1.16,2.77-2.6,2.77-2.61-1.07-2.61-2.77h0Zm-2.1,0c0,2.72,2.1,4.73,4.71,4.73s4.7-2.04,4.7-4.73-2.09-4.73-4.7-4.73-4.71,2.09-4.71,4.73Z"/>
      <path class="cls-34" d="m755.54,413.58h2.02v-9.14h-6.85v1.03c-.09,5.81-.5,6.4-1.89,6.23v1.88c.17.03.37.04.52.04,1.84,0,3.02-.5,3.29-6.16l.05-1.06h2.86v7.18Z"/>
      <path class="cls-34" d="m760.9,409.01c0-1.7,1.23-2.77,2.61-2.77s2.6,1.07,2.6,2.77-1.16,2.77-2.6,2.77-2.61-1.07-2.61-2.77h0Zm-2.1,0c0,2.72,2.1,4.73,4.71,4.73s4.7-2.04,4.7-4.73-2.09-4.73-4.7-4.73-4.71,2.09-4.71,4.73Z"/>
      <polygon class="cls-34" points="768.16 406.34 771.08 406.34 771.08 413.58 773.11 413.58 773.11 406.34 776.05 406.34 776.05 404.44 768.16 404.44 768.16 406.34"/>
      <path class="cls-34" d="m778.09,409.01c0-1.7,1.23-2.77,2.61-2.77s2.6,1.07,2.6,2.77-1.16,2.77-2.6,2.77-2.61-1.07-2.61-2.77h0Zm-2.1,0c0,2.72,2.1,4.73,4.71,4.73s4.7-2.04,4.7-4.73-2.09-4.73-4.7-4.73-4.71,2.09-4.71,4.73Z"/>
      <polygon class="cls-34" points="786.65 413.58 793.75 413.58 793.75 411.69 788.67 411.69 788.67 409.86 793.3 409.86 793.3 408.03 788.67 408.03 788.67 406.34 793.63 406.34 793.63 404.44 786.65 404.44 786.65 413.58"/>
      <path class="cls-34" d="m738.57,422.14c-.93,0-1.53-.52-1.53-1.16,0-.76.44-1.17,1.61-1.17h1.92v2.34h-2Zm2,4.91h2.02v-9.14h-3.82c-2.56,0-3.83,1.34-3.83,3.08,0,1.34.73,2.26,2.04,2.66l-2.69,3.39h2.39l2.34-3.02h1.55v3.02Z"/>
      <path class="cls-34" d="m748.15,423.19c1.11,0,1.54.26,1.54.94,0,.74-.51,1.03-1.62,1.03h-1.76v-1.97h1.84Zm3.02-5.27h-6.88v9.14h3.71c2.44,0,3.8-.9,3.8-2.94,0-1.78-1.03-2.82-3.19-2.82h-2.3v-1.49h4.86v-1.89Z"/>
      <path class="cls-34" d="m758.73,427.05h2.02v-9.14h-6.85v1.03c-.09,5.81-.5,6.4-1.89,6.23v1.88c.17.03.37.04.52.04,1.84,0,3.02-.5,3.29-6.16l.05-1.06h2.86v7.18Z"/>
      <path class="cls-34" d="m764.1,422.48c0-1.7,1.23-2.77,2.61-2.77s2.6,1.07,2.6,2.77-1.16,2.77-2.6,2.77-2.61-1.07-2.61-2.77h0Zm-2.1,0c0,2.72,2.1,4.73,4.71,4.73s4.7-2.04,4.7-4.73-2.09-4.73-4.7-4.73-4.71,2.09-4.71,4.73Z"/>
      <polygon class="cls-34" points="772.65 427.05 774.67 427.05 774.67 423.99 775.33 423.32 778.42 427.05 781.08 427.05 776.85 421.96 780.82 417.91 778.19 417.91 774.67 421.48 774.67 417.91 772.65 417.91 772.65 427.05"/>
      <path class="cls-34" d="m782.86,422.48c0-1.7,1.23-2.77,2.61-2.77s2.6,1.07,2.6,2.77-1.16,2.77-2.6,2.77-2.61-1.07-2.61-2.77h0Zm-2.1,0c0,2.72,2.1,4.73,4.71,4.73s4.7-2.04,4.7-4.73-2.09-4.73-4.7-4.73-4.71,2.09-4.71,4.73Z"/>
      <polygon class="cls-24" points="269.96 621.5 228.71 621.5 157.58 555.44 157.58 486.55 456.22 486.55 456.22 556.46 269.96 556.46 269.96 621.5"/>
      <path class="cls-24" d="m534.18,256.55h28.68v-97.53c-10.68-1.36-20.42-2.45-28.68-3.3v100.83Z"/>
      <path class="cls-24" d="m562.86,256.55h36.5v-92.23c-12.77-2.1-25.16-3.85-36.5-5.3v97.53Z"/>
      <path class="cls-24" d="m599.36,256.55h-31.85v63.38c10.13-4.37,20.92-8.84,31.85-13.07v-50.3Z"/>
      <path class="cls-24" d="m650.19,234.63h32.58c1.91,8.18,4.41,15.12,7.03,20.99h-39.61v-20.99Z"/>
      <polygon class="cls-34" points="596.18 94.61 596.18 89.66 595.56 89.66 595.56 93.45 592.53 89.66 592.02 89.66 592.02 94.61 592.64 94.61 592.64 90.84 595.68 94.61 596.18 94.61"/>
      <path class="cls-34" d="m598.14,94.13c-.5,0-.85-.23-.85-.61,0-.45.47-.59,1.21-.59.3,0,.6.04.79.11v.37c-.13.3-.53.72-1.15.72h0Zm-.93-2.31c.34-.25.68-.41,1.1-.41.77,0,.98.43.98,1.1-.18-.06-.59-.11-.86-.11-1.06,0-1.76.34-1.76,1.14,0,.68.54,1.13,1.34,1.13.64,0,1.08-.28,1.29-.59v.55h.59v-2.27c0-.95-.52-1.49-1.51-1.49-.54,0-1.13.21-1.47.52l.3.45Z"/>
      <path class="cls-34" d="m600.1,91.5h.76v1.78c0,.91.4,1.39,1.12,1.39.46,0,.81-.14,1.04-.39l-.27-.44c-.2.16-.41.26-.66.26-.44,0-.64-.25-.64-.98v-1.62h1.27v-.57h-1.27v-.94h-.59v.94h-.76v.57Z"/>
      <path class="cls-34" d="m606.5,90.91h-.59v2.41c-.23.5-.64.8-1.15.8-.76,0-.97-.53-.97-1.16v-2.04h-.59v2.13c0,1.13.51,1.63,1.51,1.63.53,0,.94-.23,1.2-.59v.52h.59v-3.7Z"/>
      <path class="cls-34" d="m607.15,94.61h.59v-2.56c.08-.38.37-.64.69-.64.23,0,.35.07.44.18l.37-.41c-.16-.21-.4-.33-.75-.33-.28,0-.63.1-.76.36v-.28h-.59v3.68Z"/>
      <path class="cls-34" d="m610.57,94.13c-.5,0-.85-.23-.85-.61,0-.45.47-.59,1.21-.59.3,0,.6.04.79.11v.37c-.13.3-.53.72-1.15.72h0Zm-.93-2.31c.34-.25.68-.41,1.1-.41.77,0,.98.43.98,1.1-.18-.06-.59-.11-.86-.11-1.06,0-1.76.34-1.76,1.14,0,.68.54,1.13,1.34,1.13.64,0,1.08-.28,1.29-.59v.55h.59v-2.27c0-.95-.52-1.49-1.51-1.49-.54,0-1.13.21-1.47.52l.3.45Z"/>
      <path class="cls-34" d="m593.32,100.6c0,.49-.5.77-1.07.77-.77,0-1.36-.39-1.68-.8l-.42.45c.34.51,1.15.96,2.03.96,1.03,0,1.8-.58,1.8-1.43,0-1.77-3.06-1.1-3.06-2.31,0-.55.68-.74,1.15-.74.64,0,1.1.23,1.4.53l.42-.42c-.37-.48-1.03-.72-1.8-.72-1.13,0-1.83.62-1.83,1.36,0,1.83,3.06,1.11,3.06,2.34h0Z"/>
      <path class="cls-34" d="m594.48,97.04c0,.21.16.37.38.37.2,0,.37-.16.37-.37,0-.2-.17-.35-.37-.35-.21,0-.38.15-.38.35h0Zm.08,4.88h.59v-3.68h-.59v3.68Z"/>
      <path class="cls-34" d="m597.6,98.71c.69,0,1.18.5,1.18,1.34s-.53,1.37-1.23,1.37c-.39,0-.83-.17-1.08-.46v-1.54c.21-.38.62-.71,1.13-.71h0Zm-1.72,2.53c.3.42.98.74,1.63.74,1.15,0,1.9-.75,1.9-1.97,0-1.09-.64-1.86-1.72-1.86-.49,0-.91.17-1.22.53v-1.93h-.59v4.49Z"/>
      <path class="cls-34" d="m601.49,98.7c.66,0,1.08.37,1.11,1.03h-2.31c.09-.6.52-1.03,1.2-1.03h0Zm1.22,2.17c-.22.32-.62.56-1.07.56-.75,0-1.31-.41-1.34-1.15h2.9c.03-.16.04-.33.04-.45,0-1.02-.73-1.67-1.7-1.67-1.22,0-1.88.83-1.88,1.92,0,1.17.79,1.91,1.96,1.91.6,0,1.13-.25,1.47-.76l-.38-.35Z"/>
      <path class="cls-34" d="m603.67,101.92h.59v-2.56c.08-.38.37-.64.69-.64.23,0,.35.07.44.18l.37-.41c-.16-.21-.4-.33-.75-.33-.28,0-.63.1-.76.36v-.28h-.59v3.68Z"/>
      <path class="cls-34" d="m605.97,97.04c0,.21.16.37.38.37.2,0,.37-.16.37-.37,0-.2-.17-.35-.37-.35-.21,0-.38.15-.38.35h0Zm.08,4.88h.59v-3.68h-.59v3.68Z"/>
      <path class="cls-34" d="m610.22,100.85c-.23.34-.59.57-1.03.57-.84,0-1.39-.54-1.39-1.35s.56-1.36,1.32-1.36c.45,0,.76.16,1.02.5l.46-.31c-.25-.45-.84-.75-1.49-.75-1.16,0-1.93.83-1.93,1.92,0,1.17.8,1.91,1.97,1.91.59,0,1.23-.28,1.51-.82l-.42-.3Z"/>
      <path class="cls-34" d="m612.14,101.43c-.5,0-.85-.23-.85-.61,0-.45.47-.59,1.21-.59.3,0,.6.04.79.11v.37c-.13.3-.53.72-1.15.72h0Zm-.93-2.31c.34-.25.68-.41,1.1-.41.77,0,.98.43.98,1.1-.18-.06-.59-.11-.86-.11-1.06,0-1.76.34-1.76,1.14,0,.68.54,1.13,1.34,1.13.64,0,1.08-.28,1.29-.59v.54h.59v-2.27c0-.95-.52-1.49-1.51-1.49-.54,0-1.13.21-1.47.52l.3.45Z"/>
      <rect class="cls-40" x="689.61" y="210.78" width="36.27" height="19.62"/>
      <rect class="cls-40" x="698.54" y="237.91" width="36.27" height="12.46"/>
      <path class="cls-34" d="m703.92,245.75c0,.49-.5.77-1.07.77-.77,0-1.36-.39-1.68-.8l-.42.45c.34.51,1.15.96,2.03.96,1.03,0,1.8-.58,1.8-1.43,0-1.77-3.06-1.1-3.06-2.31,0-.55.68-.74,1.15-.74.64,0,1.1.23,1.4.53l.42-.42c-.38-.48-1.03-.72-1.8-.72-1.13,0-1.83.62-1.83,1.36,0,1.83,3.06,1.11,3.06,2.34h0Z"/>
      <polygon class="cls-34" points="710.29 243.39 709.68 243.39 708.83 246.1 707.81 243.39 707.34 243.39 706.34 246.08 705.45 243.39 704.82 243.39 706.06 247.07 706.53 247.07 707.58 244.31 708.61 247.07 709.09 247.07 710.29 243.39"/>
      <path class="cls-34" d="m711.89,246.58c-.5,0-.85-.23-.85-.61,0-.45.47-.59,1.21-.59.3,0,.6.04.79.11v.37c-.13.3-.53.72-1.15.72h0Zm-.93-2.31c.34-.25.68-.41,1.1-.41.77,0,.98.43.98,1.1-.18-.06-.59-.11-.86-.11-1.06,0-1.76.34-1.76,1.14,0,.68.54,1.12,1.34,1.12.64,0,1.08-.28,1.29-.59v.54h.59v-2.27c0-.95-.52-1.49-1.51-1.49-.54,0-1.13.21-1.47.52l.3.45Z"/>
      <path class="cls-34" d="m714.45,247.07h.59v-2.56c.08-.38.38-.64.69-.64.23,0,.35.07.44.18l.37-.41c-.16-.21-.4-.33-.75-.33-.28,0-.63.1-.76.36v-.28h-.59v3.68Z"/>
      <path class="cls-34" d="m717.17,245.22c0-.82.56-1.36,1.32-1.36s1.33.54,1.33,1.36-.54,1.35-1.33,1.35-1.32-.57-1.32-1.35h0Zm-.63,0c0,1.11.81,1.91,1.95,1.91s1.96-.8,1.96-1.91-.8-1.92-1.96-1.92-1.95.8-1.95,1.92Z"/>
      <polygon class="cls-34" points="724.28 243.39 723.64 243.39 722.43 246.14 721.16 243.39 720.47 243.39 722.19 247.07 722.63 247.07 724.28 243.39"/>
      <path class="cls-34" d="m726.88,246.06c0,.38-.33.51-.75.51-.57,0-1.07-.25-1.29-.64l-.47.33c.26.52.91.87,1.66.87.85,0,1.47-.33,1.47-1.08,0-1.44-2.33-.96-2.33-1.73,0-.33.42-.47.79-.47.48,0,.86.2,1.06.47l.42-.39c-.25-.36-.73-.64-1.37-.64-.9,0-1.53.4-1.53,1.05,0,1.36,2.34.84,2.34,1.71h0Z"/>
      <polygon class="cls-34" points="728.14 247.07 728.73 247.07 728.73 245.59 729.02 245.35 730.65 247.07 731.44 247.07 729.55 245.02 731.32 243.39 730.52 243.39 728.73 245.02 728.73 241.9 728.14 241.9 728.14 247.07"/>
      <path class="cls-34" d="m731.85,242.19c0,.21.16.37.38.37.2,0,.37-.16.37-.37,0-.2-.17-.35-.37-.35-.21,0-.38.15-.38.35h0Zm.08,4.88h.59v-3.68h-.59v3.68Z"/>
      <path class="cls-34" d="m695.72,217.81c1.09,0,1.96-.57,1.96-1.53,0-.48-.3-.97-.94-1.12.44-.21.76-.58.76-1.05,0-.89-.8-1.39-1.83-1.39s-1.69.48-2.04.98l.49.35c.29-.38.75-.72,1.48-.72.66,0,1.25.23,1.25.8,0,.47-.51.79-1.13.79h-.83v.6h.87c.78,0,1.27.3,1.27.77,0,.54-.54.93-1.32.93s-1.33-.28-1.73-.77l-.48.35c.38.61,1.17,1.02,2.22,1.02h0Z"/>
      <path class="cls-34" d="m698.84,215.89c0-.82.56-1.36,1.32-1.36s1.33.54,1.33,1.36-.54,1.35-1.33,1.35-1.32-.57-1.32-1.35h0Zm-.63,0c0,1.11.81,1.91,1.95,1.91s1.96-.8,1.96-1.91-.8-1.92-1.96-1.92-1.95.8-1.95,1.92Z"/>
      <path class="cls-34" d="m705.29,217.74h.59v-3.68h-2.75v.76c0,2.15-.4,2.36-.87,2.36v.57c.87.11,1.46-.5,1.46-2.94v-.17h1.56v3.11Z"/>
      <path class="cls-34" d="m707.17,215.89c0-.82.56-1.36,1.32-1.36s1.33.54,1.33,1.36-.54,1.35-1.33,1.35-1.32-.57-1.32-1.35h0Zm-.63,0c0,1.11.81,1.91,1.95,1.91s1.96-.8,1.96-1.91-.8-1.92-1.96-1.92-1.95.8-1.95,1.92Z"/>
      <polygon class="cls-34" points="710.54 214.62 711.95 214.62 711.95 217.74 712.54 217.74 712.54 214.62 713.97 214.62 713.97 214.06 710.54 214.06 710.54 214.62"/>
      <path class="cls-34" d="m714.69,215.89c0-.82.56-1.36,1.32-1.36s1.33.54,1.33,1.36-.54,1.35-1.33,1.35-1.32-.57-1.32-1.35h0Zm-.63,0c0,1.11.81,1.91,1.95,1.91s1.96-.8,1.96-1.91-.8-1.92-1.96-1.92-1.95.8-1.95,1.92Z"/>
      <path class="cls-34" d="m720.25,214.52c.66,0,1.08.37,1.11,1.03h-2.31c.09-.6.52-1.03,1.2-1.03h0Zm1.22,2.17c-.22.32-.62.56-1.07.56-.75,0-1.31-.41-1.34-1.15h2.9c.03-.16.04-.33.04-.45,0-1.02-.73-1.67-1.7-1.67-1.22,0-1.88.83-1.88,1.92,0,1.17.79,1.91,1.96,1.91.6,0,1.13-.25,1.47-.76l-.38-.35Z"/>
      <path class="cls-34" d="m699.52,221.91c.52,0,.9.07.9.47,0,.33-.26.51-.69.51h-1.12v-.98h.91Zm.14,1.52c.59,0,.88.16.88.52s-.33.53-.95.53h-.98v-1.05h1.05Zm-1.65,1.61h1.64c.97,0,1.51-.36,1.51-1.05,0-.44-.19-.76-.59-.88.3-.18.47-.43.47-.8,0-.69-.5-.94-1.51-.94h-1.53v3.68Z"/>
      <path class="cls-34" d="m703.56,221.83c.74,0,1.2.52,1.2,1.34s-.52,1.37-1.25,1.37c-.43,0-.84-.17-1.07-.57v-1.37c.15-.37.55-.76,1.12-.76h0Zm-1.72,4.62h.59v-1.73c.27.27.65.37,1.12.37,1.09,0,1.83-.84,1.83-1.97s-.67-1.86-1.76-1.86c-.44,0-.92.15-1.19.54v-.46h-.59v5.09Z"/>
      <path class="cls-34" d="m707.67,221.82c.66,0,1.08.37,1.11,1.03h-2.31c.09-.6.52-1.03,1.2-1.03h0Zm1.22,2.17c-.22.32-.62.56-1.07.56-.75,0-1.31-.41-1.34-1.15h2.9c.03-.16.04-.33.04-.45,0-1.02-.73-1.67-1.7-1.67-1.22,0-1.88.83-1.88,1.92,0,1.17.79,1.91,1.96,1.91.6,0,1.13-.25,1.47-.76l-.38-.35Z"/>
      <polygon class="cls-34" points="710.07 225.04 710.66 225.04 710.66 222.41 711.96 224.1 713.21 222.41 713.21 225.04 713.8 225.04 713.8 221.36 713.29 221.36 711.97 223.16 710.61 221.36 710.07 221.36 710.07 225.04"/>
      <path class="cls-34" d="m715.17,222.55c0-.37.25-.63.89-.63h.96v1.25h-.97c-.55,0-.88-.26-.88-.62h0Zm.96-1.2c-1.18,0-1.59.55-1.59,1.18,0,.57.38,1,.94,1.1l-1.17,1.39h.72l1.09-1.3h.9v1.3h.59v-3.68h-1.48Z"/>
      <g>
        <path class="cls-16" d="m394.68,60.53c0-2.05,1.66-3.71,3.71-3.71,1.27,0,2.4.64,3.07,1.62"/>
        <path class="cls-12" d="m398.4,51.13c.92,0,1.67.75,1.67,1.67s-.75,1.67-1.67,1.67-1.67-.75-1.67-1.67.75-1.67,1.67-1.67Z"/>
        <path class="cls-16" d="m407.76,56.7c-1.2-1.2-3.15-1.2-4.35,0l-9.72,9.2c-.55.5-1.28.81-2.06.81-.78,0-1.58-.29-2.19-.9"/>
        <line class="cls-13" x1="406.91" y1="61.29" x2="402.93" y2="65.27"/>
        <polyline class="cls-19" points="406.95 65.04 406.95 61.25 403.17 61.25"/>
        <line class="cls-17" x1="400.44" y1="67.76" x2="403.12" y2="65.09"/>
        <polyline class="cls-19" points="400.47 63.95 400.47 67.74 404.25 67.74"/>
      </g>
      <path class="cls-16" d="m660.44,158.14c0-2.05,1.66-3.71,3.71-3.71,1.27,0,2.4.64,3.07,1.62"/>
      <path class="cls-12" d="m664.16,148.74c.92,0,1.67.75,1.67,1.67s-.75,1.67-1.67,1.67-1.67-.75-1.67-1.67.75-1.67,1.67-1.67Z"/>
      <path class="cls-16" d="m673.52,154.31c-1.2-1.2-3.15-1.2-4.35,0l-9.72,9.2c-.55.5-1.28.81-2.06.81-.78,0-1.58-.29-2.19-.9"/>
      <line class="cls-13" x1="672.67" y1="158.9" x2="668.69" y2="162.88"/>
      <polyline class="cls-19" points="672.72 162.65 672.72 158.87 668.94 158.87"/>
      <line class="cls-17" x1="666.2" y1="165.37" x2="668.88" y2="162.7"/>
      <polyline class="cls-19" points="666.24 161.57 666.24 165.35 670.02 165.35"/>
      <polygon class="cls-31" points="765.14 218.86 774.31 218.86 788.35 214.31 788.35 240.88 773.9 242.52 765.14 242.52 765.14 218.86"/>
      <path class="cls-16" d="m772.3,232.03c0-2.05,1.66-3.71,3.71-3.71,1.28,0,2.4.64,3.07,1.62"/>
      <path class="cls-12" d="m776.02,222.63c.92,0,1.67.75,1.67,1.67s-.75,1.67-1.67,1.67-1.67-.75-1.67-1.67.75-1.67,1.67-1.67Z"/>
      <path class="cls-16" d="m785.37,228.2c-1.2-1.2-3.15-1.2-4.35,0l-9.72,9.2c-.55.5-1.28.81-2.06.81-.78,0-1.58-.29-2.19-.9"/>
      <line class="cls-13" x1="784.53" y1="232.79" x2="780.55" y2="236.77"/>
      <polyline class="cls-19" points="784.58 236.54 784.58 232.76 780.8 232.76"/>
      <line class="cls-17" x1="778.06" y1="239.26" x2="780.74" y2="236.59"/>
      <polyline class="cls-19" points="778.1 235.46 778.1 239.24 781.88 239.24"/>
      <path class="cls-16" d="m622.38,317.5c0-2.05,1.66-3.71,3.71-3.71,1.28,0,2.4.64,3.07,1.62"/>
      <path class="cls-12" d="m626.1,308.1c.92,0,1.67.75,1.67,1.67s-.75,1.67-1.67,1.67-1.67-.75-1.67-1.67.75-1.67,1.67-1.67Z"/>
      <path class="cls-16" d="m635.46,313.67c-1.2-1.2-3.15-1.2-4.35,0l-9.72,9.2c-.55.5-1.28.81-2.06.81-.78,0-1.58-.29-2.19-.9"/>
      <line class="cls-13" x1="634.61" y1="318.27" x2="630.63" y2="322.25"/>
      <polyline class="cls-19" points="634.66 322.02 634.66 318.24 630.87 318.24"/>
      <line class="cls-17" x1="628.14" y1="324.74" x2="630.82" y2="322.06"/>
      <polyline class="cls-19" points="628.17 320.94 628.17 324.72 631.96 324.72"/>
      <polyline class="cls-10" points="639.21 31.31 640.89 29.62 642.58 31.31"/>
      <rect class="cls-11" x="637.67" y="22.23" width="6.17" height="16.68"/>
      <rect class="cls-11" x="643.85" y="22.23" width="6.17" height="16.68"/>
      <polyline class="cls-10" points="645.38 30.06 647.07 31.74 648.76 30.06"/>
      <polyline class="cls-10" points="368.47 608.49 370.16 606.8 371.84 608.49"/>
      <rect class="cls-11" x="366.96" y="599.36" width="6.17" height="16.68"/>
      <rect class="cls-11" x="373.13" y="599.36" width="6.17" height="16.68"/>
      <polyline class="cls-10" points="374.64 607.23 376.33 608.92 378.02 607.23"/>
      <rect class="cls-40" x="717.99" y="254.5" width="18.16" height="21.51"/>
      <polyline class="cls-10" points="723.11 266.54 724.8 264.85 726.49 266.54"/>
      <rect class="cls-11" x="721.58" y="257.44" width="6.17" height="16.68"/>
      <rect class="cls-11" x="727.75" y="257.44" width="6.17" height="16.68"/>
      <polyline class="cls-10" points="729.29 265.28 730.98 266.97 732.67 265.28"/>
      <g>
        <polyline class="cls-18" points="867.6 257.08 863.57 257.08 863.57 261.11 859.55 261.11 859.55 265.14 855.52 265.14 855.52 269.17 851.49 269.17"/>
        <line class="cls-14" x1="861.19" y1="253.85" x2="849.11" y2="265.93"/>
      </g>
      <path class="cls-20" d="m411.07,578.15h4.06v-9.2c0-1.12-.91-2.03-2.03-2.03s-2.03.91-2.03,2.03v9.2Z"/>
      <path class="cls-15" d="m413.11,561.51c.88,0,1.59.71,1.59,1.59s-.71,1.59-1.59,1.59-1.59-.71-1.59-1.59.71-1.59,1.59-1.59Z"/>
      <path class="cls-15" d="m421.13,561.51c.88,0,1.59.71,1.59,1.59s-.71,1.59-1.59,1.59-1.59-.71-1.59-1.59.71-1.59,1.59-1.59Z"/>
      <path class="cls-20" d="m416.94,578.15h8.37l-2.18-9.55c-.16-.95-1-1.68-2-1.68s-1.84.73-1.99,1.64l-2.19,9.59Z"/>
      <g>
        <path class="cls-20" d="m550.62,39.43h4.06v-9.2c0-1.12-.91-2.03-2.03-2.03s-2.03.91-2.03,2.03v9.2Z"/>
        <path class="cls-15" d="m552.66,22.79c.88,0,1.59.71,1.59,1.59s-.71,1.59-1.59,1.59-1.59-.71-1.59-1.59.71-1.59,1.59-1.59Z"/>
        <path class="cls-15" d="m560.68,22.79c.88,0,1.59.71,1.59,1.59s-.71,1.59-1.59,1.59-1.59-.71-1.59-1.59.71-1.59,1.59-1.59Z"/>
        <path class="cls-20" d="m556.49,39.43h8.37l-2.18-9.55c-.16-.95-1-1.68-2-1.68s-1.84.73-1.99,1.64l-2.19,9.59Z"/>
      </g>
      <text class="cls-55" transform="translate(590.47 334.63) rotate(-23.64)"><tspan class="cls-61" x="0" y="0">X</tspan><tspan class="cls-75" x="3.71" y="0">-</tspan><tspan x="6.24" y="0">one</tspan></text>
      <text class="cls-50" transform="translate(538.77 135.33) rotate(6.66)"><tspan x="0" y="0">A</tspan><tspan class="cls-45" x="3.58" y="0">r</tspan><tspan x="5.27" y="0">oma </tspan><tspan class="cls-86" x="17.35" y="0">C</tspan><tspan x="20.79" y="0">orner </tspan></text>
      <text class="cls-55" transform="translate(526.59 360.73) rotate(-24.86)"><tspan class="cls-72" x="0" y="0">F</tspan><tspan class="cls-58" x="3.6" y="0">r</tspan><tspan x="5.57" y="0">ench</tspan><tspan x="3.99" y="6.08">Kiss</tspan></text>
      <g>
        <line class="cls-28" x1="691.5" y1="193.89" x2="684.22" y2="193.89"/>
        <polygon class="cls-34" points="687.68 190.95 684.74 193.89 687.68 196.83 685.18 196.83 682.24 193.89 685.18 190.95 687.68 190.95"/>
      </g>
      <g>
        <line class="cls-28" x1="692.51" y1="219.28" x2="685.23" y2="219.28"/>
        <polygon class="cls-34" points="688.68 216.34 685.74 219.28 688.68 222.23 686.19 222.23 683.24 219.28 686.19 216.34 688.68 216.34"/>
      </g>
      <g>
        <line class="cls-28" x1="698.13" y1="245.33" x2="690.85" y2="245.33"/>
        <polygon class="cls-34" points="694.31 242.39 691.37 245.33 694.31 248.28 691.81 248.28 688.87 245.33 691.81 242.39 694.31 242.39"/>
      </g>
      <text class="cls-49" transform="translate(662.33 75.04)"><tspan class="cls-4"><tspan x="0" y="0">Samsung</tspan></tspan><tspan class="cls-79"><tspan class="cls-69" x="4.22" y="6.94">С</tspan><tspan x="8.25" y="6.94">ервис</tspan></tspan><tspan class="cls-79"><tspan x="6.02" y="13.89">Пла</tspan><tspan class="cls-74" x="17.27" y="13.89">з</tspan><tspan x="20.43" y="13.89">а</tspan></tspan></text>
      <text class="cls-5" transform="translate(500.41 244.89)"><tspan x="0" y="0">Пир</tspan><tspan class="cls-1" x="13.45" y="0">а</tspan><tspan class="cls-82" x="17.03" y="0">т</tspan><tspan class="cls-63" x="20.29" y="0">-</tspan><tspan x="-4.91" y="6.94">марм</tspan><tspan class="cls-68" x="11.95" y="6.94">е</tspan><tspan x="15.81" y="6.94">лад</tspan></text>
      <text class="cls-5" transform="translate(498.49 319.93)"><tspan x="0" y="0">Sunlight</tspan></text>
      <text class="cls-5" transform="translate(503.39 288.07)"><tspan class="cls-83" x="0" y="0">T</tspan><tspan class="cls-76" x="3.13" y="0">ele2</tspan></text>
      <g>
        <path class="cls-25" d="m846.09,222.4v2.93c0,1.79-1.45,3.24-3.24,3.24s-3.24-1.45-3.24-3.24v-2.93h6.48Z"/>
        <path class="cls-25" d="m842.85,230.29c-1.14,0-2.18-.37-3.03-1.01"/>
        <path class="cls-25" d="m842.83,230.29c1.14,0,2.18-.37,3.03-1.01"/>
        <path class="cls-25" d="m846.8,222.4c.39,0,.7.31.7.7s-.31.7-.7.7h-.7v-1.41h.7Z"/>
        <polyline class="cls-25" points="841.03 221.27 841.53 220.13 841.03 218.99"/>
        <polyline class="cls-25" points="842.83 221.27 843.32 220.13 842.83 218.99"/>
        <polyline class="cls-25" points="844.62 221.27 845.12 220.13 844.62 218.99"/>
      </g>
      <text class="cls-5" transform="translate(834.37 213.65)"><tspan x="0" y="0">Маяк</tspan></text>
      <polygon class="cls-27" points="223 635.19 .25 425.96 .25 28.07 279.26 27.88 558.12 .25 719.74 3.08 894.96 176.51 894.96 246.2 818.68 491.65 817.4 635.19 223 635.19"/>
      <path class="cls-36" d="m697.52,323.69v225.66l-150.62.16h-.01v50.95l-78.19.2h-1.92v-59.87s16.22,0,16.22,0v-126.47s.06-.04.17-.1c2.36-1.43,29.16-17.54,60.11-33.86,29.42-14.99,66.93-31.98,106.32-44.34,4.98-1.56,9.99-3.05,15.02-4.44.08-.03.16-.05.24-.07,8.68-2.36,16.74-4.32,24.07-5.97,2.93-.64,5.79-1.25,8.59-1.85Z"/>
      <path class="cls-30" d="m716.19,11.52l-157.72-2.76-278.78,27.63-270.93.18v385.71l217.61,204.41h582.6l1.22-136.36,76.27-245.42v-64.86L716.19,11.52Zm-249.42,529.27h16.23v-126.47s.06-.04.17-.1c2.36-1.43,29.16-17.54,60.11-33.86,29.42-14.99,66.93-31.98,106.32-44.34,4.98-1.56,9.99-3.05,15.02-4.44.08-.03.16-.05.24-.07,8.68-2.36,16.74-4.32,24.07-5.97,2.93-.64,5.79-1.25,8.59-1.85v225.66l-150.62.16h-.01v50.95l-78.19.2h-1.92v-59.87Z"/>
      <text class="cls-49" transform="translate(607.58 187.56) rotate(-90)"><tspan class="cls-4"><tspan x="0" y="0">EGO</tspan></tspan><tspan class="cls-79"><tspan x="-2.35" y="5.21">ап</tspan><tspan class="cls-81" x="4.45" y="5.21">т</tspan><tspan x="7.28" y="5.21">е</tspan><tspan class="cls-64" x="10.73" y="5.21">к</tspan><tspan class="cls-87" x="13.89" y="5.21">а</tspan></tspan></text>
      <polygon class="cls-38" points="624.02 155.33 582.78 149.07 585.18 131.98 626.42 138.25 624.02 155.33"/>
      <text class="cls-51" transform="translate(588.4 137.51) rotate(8.01)"><tspan class="cls-85" x="0" y="0">C</tspan><tspan x="3.45" y="0">osmom</tspan><tspan class="cls-80" x="21.5" y="0">e</tspan><tspan x="24.41" y="0">dica </tspan><tspan class="cls-77" x="14.27" y="5.21">b</tspan><tspan x="17.27" y="5.21">y </tspan><tspan x="-1.8" y="10.42">D</tspan><tspan class="cls-3" x="1.91" y="10.42">r</tspan><tspan x="3.55" y="10.42">.Kond</tspan><tspan class="cls-59" x="17.52" y="10.42">r</tspan><tspan x="19.31" y="10.42">ash</tspan><tspan class="cls-2" x="27.74" y="10.42">e</tspan><tspan x="30.6" y="10.42">va</tspan></text>
      <path class="cls-24" d="m697.31,16.61h16.65l167.31,165.77v62.53l-68.46-6.2s-6.7-38.21-30.93-59.56c-24.23-21.35-59.05-31.09-71.81-34.46l-12.76-3.37V16.61Z"/>
      <rect class="cls-38" x="631.71" y="142.97" width="23.73" height="17.25" transform="translate(57.09 -153.69) rotate(14.24)"/>
      <text class="cls-51" transform="translate(634.05 150.55) rotate(14.24)"><tspan class="cls-43" x="0" y="0">Ф</tspan><tspan x="4.43" y="0">ени</tspan><tspan class="cls-8" x="13.59" y="0">к</tspan><tspan class="cls-57" x="16.2" y="0">с </tspan></text>
      <g>
        <rect class="cls-38" x="776.27" y="242.97" width="20.48" height="15.42" transform="translate(-7.59 476.19) rotate(-33.53)"/>
        <text class="cls-53" transform="translate(783.17 255.54) rotate(-33.53)"><tspan x="0" y="0">GIGI</tspan></text>
      </g>
      <text class="cls-54" transform="translate(625.6 182.83)"><tspan x="0" y="0">Iqos</tspan></text>
      <text class="cls-5" transform="translate(500.97 75.93)"><tspan x="0" y="0">Ап</tspan><tspan class="cls-42" x="8.83" y="0">т</tspan><tspan x="12.07" y="0">е</tspan><tspan class="cls-65" x="16.02" y="0">к</tspan><tspan x="19.63" y="0">а </tspan><tspan x="-3.58" y="6.94">Миницен</tspan></text>
      <text class="cls-5" transform="translate(659.25 300)"><tspan x="0" y="0">MIUZ</tspan><tspan x="-7.65" y="6.94">Diamonds</tspan></text>
      <g>
        <line class="cls-28" x1="668.56" y1="292.14" x2="668.56" y2="284.96"/>
        <polygon class="cls-34" points="671.5 288.41 668.56 285.47 665.62 288.41 665.62 285.92 668.56 282.97 671.5 285.92 671.5 288.41"/>
      </g>
      <text class="cls-5" transform="translate(693.5 192.64)"><tspan x="0" y="0">ЭПЛ</tspan><tspan x="0" y="6.94">Diamond</tspan></text>
      <polygon class="cls-38" points="489.71 21.48 489.71 50.5 424.52 50.5 424.52 27.24 489.71 21.48"/>
      <text class="cls-5" transform="translate(445.67 39.53)"><tspan class="cls-6" x="0" y="0">Y</tspan><tspan x="3.76" y="0">uzumi</tspan></text>
      <text class="cls-5" transform="translate(762.45 146)"><tspan x="0" y="0">Xiaomi</tspan></text>
      <g>
        <rect class="cls-38" x="741.12" y="265.98" width="20.48" height="15.42" transform="translate(-26.14 460.6) rotate(-33.53)"/>
        <text class="cls-53" transform="translate(744.08 279.5) rotate(-33.53)"><tspan x="0" y="0">EYFE</tspan><tspan class="cls-84" x="15.23" y="0">L</tspan></text>
      </g>
      <polygon class="cls-38" points="461.11 454.75 479.3 454.75 479.22 492.18 461.11 492 461.11 454.75"/>
      <polygon class="cls-38" points="710.34 278.15 717.25 293.96 693.31 304.02 686.42 288.7 710.34 278.15"/>
      <text class="cls-55" transform="translate(693.5 292.56) rotate(-23.64)"><tspan x="0" y="0">Au</tspan><tspan class="cls-46" x="7.71" y="0">t</tspan><tspan class="cls-78" x="10.17" y="0">o</tspan><tspan class="cls-62" x="13.96" y="0">-</tspan><tspan x="-2.75" y="7.29">p</tspan><tspan class="cls-44" x=".86" y="7.29">r</tspan><tspan x="2.83" y="7.29">esent</tspan></text>
      <g>
        <circle class="cls-33" cx="387.72" cy="612.53" r="4.09"/>
        <text class="cls-67" transform="translate(384.91 614.33)"><tspan x="0" y="0">10</tspan></text>
      </g>
      <g>
        <circle class="cls-33" cx="398.66" cy="612.53" r="4.09"/>
        <text class="cls-67" transform="translate(396.64 614.33)"><tspan x="0" y="0">11</tspan></text>
      </g>
      <g>
        <circle class="cls-33" cx="387.82" cy="602.55" r="4.09"/>
        <text class="cls-67" transform="translate(386.08 604.35)"><tspan x="0" y="0">8</tspan></text>
      </g>
      <g>
        <circle class="cls-33" cx="398.77" cy="602.55" r="4.09"/>
        <text class="cls-67" transform="translate(397.08 604.35)"><tspan x="0" y="0">9</tspan></text>
      </g>
      <line class="cls-24" x1="626.29" y1="297.11" x2="654.97" y2="288.58"/>
      <g>
        <circle class="cls-33" cx="638.47" cy="45.42" r="4.02"/>
        <text class="cls-66" transform="translate(637.15 47.2)"><tspan x="0" y="0">1</tspan></text>
      </g>
      <g>
        <circle class="cls-33" cx="649.23" cy="45.42" r="4.02"/>
        <text class="cls-66" transform="translate(647.77 47.2)"><tspan x="0" y="0">2</tspan></text>
      </g>
      <text class="cls-48" transform="translate(472.74 484.19) rotate(-90)"><tspan x="0" y="0">Алмила</tspan></text>
      <polygon class="cls-38" points="461.11 391.25 479.3 391.25 479.22 451.65 461.11 451.36 461.11 391.25"/>
      <text class="cls-48" transform="translate(472.74 443.65) rotate(-90)"><tspan x="0" y="0">Чайный </tspan><tspan class="cls-7" x="23.99" y="0">к</tspan><tspan x="26.91" y="0">ор</tspan><tspan class="cls-60" x="34.17" y="0">о</tspan><tspan class="cls-70" x="37.79" y="0">ль</tspan></text>
      <polygon class="cls-38" points="461.11 495.62 479.3 495.62 479.22 536.33 461.11 536.14 461.11 495.62"/>
      <text class="cls-48" transform="translate(472.74 530.33) rotate(-90)"><tspan x="0" y="0">Akihabaru</tspan></text>
      <text class="cls-47" transform="translate(626.42 98.71)"><tspan x="0" y="0">GE</tspan><tspan class="cls-73" x="9.65" y="0">O</tspan><tspan class="cls-71" x="14.94" y="0">X</tspan></text>
      <line class="cls-24" x1="487.99" y1="295.85" x2="534.18" y2="295.85"/>
      <text class="cls-52" transform="translate(292.64 527.43)"><tspan x="0" y="0">DNS</tspan></text>
      <polyline class="cls-26" points="466.78 600.66 546.89 600.66 546.89 549.51 697.52 549.51 697.52 323.69"/>
      <text class="cls-56" transform="translate(572.18 461.38)"><tspan x="0" y="0">LIME</tspan></text>
      <rect class="cls-9" x="582.75" y="348.24" width="32.93" height="13.58" transform="translate(-92.08 270.06) rotate(-23.64)"/>
      <rect class="cls-9" x="552.17" y="140.98" width="6.79" height="35.12" transform="translate(333.66 691.96) rotate(-83.34)"/>
      <rect class="cls-9" x="519.92" y="373.65" width="32.93" height="13.58" transform="translate(-110.24 260.79) rotate(-24.86)"/>
      <rect class="cls-9" x="595.34" y="148.02" width="18.53" height="37.87" transform="translate(355.08 742.41) rotate(-81.99)"/>
      <rect class="cls-9" x="637.45" y="164.73" width="10.8" height="22.71" transform="translate(314.01 755.85) rotate(-75.76)"/>
      <rect class="cls-9" x="621" y="200.04" width="21.01" height="6.79"/>
      <rect class="cls-9" x="493.09" y="92.51" width="39.1" height="13.58"/>
      <rect class="cls-9" x="437.56" y="56.12" width="39.1" height="13.58"/>
      <rect class="cls-9" x="689.14" y="306.34" width="25.4" height="13.58" transform="translate(-66.67 307.69) rotate(-23.64)"/>
    </g>
  </g>
</svg>