<?xml version="1.0" encoding="UTF-8"?>
<svg id="Layer_2" data-name="Layer 2" xmlns="http://www.w3.org/2000/svg" viewBox="0 0 895.36 631.64">
  <defs>
    <style>
      .cls-1 {
        font-size: 6.94px;
      }

      .cls-2 {
        font-size: 12.74px;
      }

      .cls-2, .cls-3, .cls-4, .cls-5 {
        font-family: Stem-Bold, Stem-Bold;
        font-weight: 700;
      }

      .cls-2, .cls-6, .cls-7, .cls-8, .cls-9, .cls-10, .cls-11, .cls-12, .cls-13, .cls-14, .cls-15, .cls-16, .cls-5 {
        fill: #231f20;
      }

      .cls-17 {
        letter-spacing: -.02em;
      }

      .cls-18 {
        letter-spacing: -.01em;
      }

      .cls-19 {
        letter-spacing: -.02em;
      }

      .cls-20 {
        letter-spacing: -.08em;
      }

      .cls-21 {
        letter-spacing: -.09em;
      }

      .cls-22 {
        letter-spacing: -.02em;
      }

      .cls-23 {
        letter-spacing: 0em;
      }

      .cls-24 {
        letter-spacing: -.03em;
      }

      .cls-25 {
        stroke-width: .93px;
      }

      .cls-25, .cls-26, .cls-27, .cls-28, .cls-29, .cls-30, .cls-31, .cls-32, .cls-33, .cls-34, .cls-35, .cls-36, .cls-37, .cls-38, .cls-39, .cls-40, .cls-41, .cls-42, .cls-43, .cls-44, .cls-45, .cls-46, .cls-47, .cls-48, .cls-49, .cls-50, .cls-51 {
        fill: none;
      }

      .cls-25, .cls-26, .cls-27, .cls-29, .cls-30, .cls-31, .cls-32, .cls-33, .cls-34, .cls-35, .cls-36, .cls-37, .cls-38, .cls-39, .cls-40, .cls-41, .cls-42, .cls-43, .cls-46, .cls-47, .cls-48 {
        stroke-linejoin: round;
      }

      .cls-25, .cls-26, .cls-27, .cls-29, .cls-30, .cls-31, .cls-32, .cls-33, .cls-34, .cls-35, .cls-36, .cls-37, .cls-38, .cls-39, .cls-40, .cls-41, .cls-42, .cls-43, .cls-46, .cls-48 {
        stroke-linecap: round;
      }

      .cls-25, .cls-26, .cls-27, .cls-29, .cls-30, .cls-31, .cls-32, .cls-33, .cls-34, .cls-35, .cls-36, .cls-37, .cls-38, .cls-39, .cls-40, .cls-41, .cls-42, .cls-44, .cls-46, .cls-47, .cls-50, .cls-51 {
        stroke: #231f20;
      }

      .cls-26 {
        stroke-width: .93px;
      }

      .cls-52 {
        letter-spacing: -.01em;
      }

      .cls-27 {
        stroke-width: .93px;
      }

      .cls-53 {
        letter-spacing: -.03em;
      }

      .cls-28 {
        opacity: .6;
      }

      .cls-28, .cls-54, .cls-55, .cls-16, .cls-56, .cls-57, .cls-58, .cls-59, .cls-60, .cls-61, .cls-62 {
        stroke-width: 0px;
      }

      .cls-29 {
        stroke-width: .93px;
      }

      .cls-30 {
        stroke-width: .93px;
      }

      .cls-31 {
        stroke-width: .93px;
      }

      .cls-32 {
        stroke-width: .93px;
      }

      .cls-33 {
        stroke-width: .93px;
      }

      .cls-34 {
        stroke-width: .93px;
      }

      .cls-35 {
        stroke-width: .93px;
      }

      .cls-36 {
        stroke-width: .93px;
      }

      .cls-37 {
        stroke-width: .93px;
      }

      .cls-38 {
        stroke-width: .93px;
      }

      .cls-39 {
        stroke-width: .93px;
      }

      .cls-40 {
        stroke-width: .93px;
      }

      .cls-41 {
        stroke-width: .93px;
      }

      .cls-42 {
        stroke-width: .93px;
      }

      .cls-63 {
        letter-spacing: -.01em;
      }

      .cls-64 {
        letter-spacing: .02em;
      }

      .cls-65 {
        letter-spacing: 0em;
      }

      .cls-66 {
        letter-spacing: 0em;
      }

      .cls-67 {
        letter-spacing: -.02em;
      }

      .cls-68 {
        letter-spacing: -.02em;
      }

      .cls-3 {
        font-size: 5.14px;
      }

      .cls-3, .cls-4, .cls-61 {
        fill: #fff;
      }

      .cls-69 {
        letter-spacing: -.02em;
      }

      .cls-70 {
        letter-spacing: -.04em;
      }

      .cls-71 {
        letter-spacing: -.01em;
      }

      .cls-72 {
        letter-spacing: -.04em;
      }

      .cls-73 {
        letter-spacing: -.02em;
      }

      .cls-74 {
        letter-spacing: -.05em;
      }

      .cls-75 {
        stroke-miterlimit: 10;
      }

      .cls-75, .cls-43, .cls-45, .cls-48 {
        stroke: #fff;
      }

      .cls-75, .cls-58 {
        fill: #64cbe8;
      }

      .cls-76 {
        letter-spacing: -.03em;
      }

      .cls-77 {
        letter-spacing: -.03em;
      }

      .cls-78 {
        letter-spacing: -.03em;
      }

      .cls-79 {
        letter-spacing: 0em;
      }

      .cls-43 {
        stroke-width: 1.87px;
      }

      .cls-80 {
        letter-spacing: 0em;
      }

      .cls-44, .cls-45, .cls-48 {
        stroke-width: 1.87px;
      }

      .cls-44, .cls-45, .cls-50, .cls-51 {
        stroke-miterlimit: 22.93;
      }

      .cls-46 {
        stroke-width: .93px;
      }

      .cls-81 {
        letter-spacing: 0em;
      }

      .cls-82 {
        letter-spacing: -.03em;
      }

      .cls-83 {
        letter-spacing: -.03em;
      }

      .cls-47 {
        stroke-width: .93px;
      }

      .cls-84 {
        letter-spacing: -.11em;
      }

      .cls-85 {
        letter-spacing: .02em;
      }

      .cls-49 {
        stroke: #000;
        stroke-dasharray: 0 0 3.47 3.47;
        stroke-linejoin: bevel;
        stroke-width: .5px;
      }

      .cls-50 {
        stroke-dasharray: 0 0 1.74 1.74;
        stroke-width: 1.74px;
      }

      .cls-86 {
        font-size: 5.21px;
      }

      .cls-87 {
        letter-spacing: -.1em;
      }

      .cls-88 {
        letter-spacing: -.1em;
      }

      .cls-4 {
        font-size: 5.22px;
      }

      .cls-6, .cls-7, .cls-8, .cls-9, .cls-10, .cls-11, .cls-12, .cls-13, .cls-14, .cls-15 {
        font-family: Stem-Regular, Stem-Regular;
      }

      .cls-7 {
        font-size: 5.72px;
      }

      .cls-89 {
        letter-spacing: -.05em;
      }

      .cls-90 {
        letter-spacing: -.02em;
      }

      .cls-91 {
        letter-spacing: -.02em;
      }

      .cls-8 {
        font-size: 7px;
      }

      .cls-92 {
        letter-spacing: -.02em;
      }

      .cls-9 {
        font-size: 6.94px;
      }

      .cls-51 {
        stroke-dasharray: 0 0 1.87 1.87;
        stroke-width: 1.87px;
      }

      .cls-10 {
        font-size: 6.08px;
      }

      .cls-11 {
        font-size: 6.08px;
      }

      .cls-12 {
        font-size: 6.08px;
      }

      .cls-13 {
        font-size: 6.08px;
      }

      .cls-14 {
        font-size: 6.08px;
      }

      .cls-15 {
        font-size: 6.08px;
      }

      .cls-54 {
        fill: #93ce96;
      }

      .cls-55 {
        fill: #1d2023;
      }

      .cls-56 {
        fill: #d9dbda;
      }

      .cls-57 {
        fill: #9db1dc;
      }

      .cls-59 {
        fill: #f390bc;
      }

      .cls-60 {
        fill: #fee37c;
      }

      .cls-62 {
        fill: #f69286;
      }

      .cls-93 {
        letter-spacing: -.13em;
      }

      .cls-5 {
        font-size: 11.34px;
      }

      .cls-94 {
        letter-spacing: -.05em;
      }
    </style>
  </defs>
  <g id="_осн" data-name="осн">
    <g>
      <polygon class="cls-61" points="886.61 177.85 716.3 9.13 557.93 8.75 274.05 34.44 8.76 34.31 8.76 419.93 222.85 621.89 809.99 622.86 809.98 488.86 886.61 241.65 886.61 177.85"/>
      <path class="cls-61" d="m588.91,52.29h66.11l.23-37.98h58.84l83.67,82.9-40.8,41.18c-1.07-.32-2.13-.6-3.17-.84-12.01-3.25-20.9-1.89-29.85-.12-.02,0-.04.01-.05.01-10.67,1.43-21.9,3.66-36.07,1.26-.02,0-.04-.01-.06-.01-1.24-.27-2.52-.58-3.83-.93-3.04-.81-6.06-1.6-9.05-2.36-.01-.01-.02-.01-.02-.01-16.27-5.13-58.02-13.11-76.69-16.57-.29-.05-.58-.11-.86-.16-.37-.08-.73-.14-1.08-.2-2.67-.51-4.67-.87-5.9-1.08h-.01c-.17-.03-.32-.05-.46-.08-.19-.04-.35-.07-.48-.09-.04-.01-.08-.01-.11-.02-.24-.04-.36-.06-.36-.06V52.29Z"/>
      <path class="cls-61" d="m679.26,226.02s.01.07.02.1c.1.58.21,1.15.32,1.71.08.43.17.86.26,1.28.1.47.2.92.3,1.38.2.94.41,1.86.64,2.75.1.44.21.88.33,1.32.1.43.22.86.33,1.28.18.69.37,1.36.56,2.02.11.38.22.76.33,1.13.19.67.39,1.32.59,1.95.19.61.38,1.2.57,1.77.15.47.31.92.46,1.36.1.31.21.6.31.89.06.2.13.39.2.58.02.03.03.07.03.1.21.6.4,1.13.59,1.58.14.37.28.72.41,1.05,1.31,3.68,2.52,9.78,1.1,15.16-.88,2.32-2.33,4.82-4.66,7.31-.01.02-.02.03-.03.04h-.01c-7.75,6.08-15.13,9.97-28.03,13.83-.09.02-.19.05-.28.08-.32.09-.63.18-.94.28-.09.02-.17.05-.26.07-.09.03-.17.06-.26.08-1.39.39-2.77.79-4.15,1.2-.48.14-.96.29-1.43.43-.48.15-.95.29-1.43.44-.9.26-1.8.53-2.7.81-.71.21-1.45.44-2.22.67h-.01c-.37.11-.75.23-1.14.35-.77.23-1.56.48-2.38.72-.79.25-1.59.49-2.42.75-.17.05-.34.11-.51.16-.67.21-1.36.42-2.05.64-.16.05-.33.1-.5.16-.67.21-1.36.42-2.06.64-1.03.33-2.08.66-3.15,1.01-.48.15-.97.31-1.46.47-.49.15-.98.31-1.48.48-.5.16-1,.32-1.51.49-1.61.52-3.27,1.07-4.96,1.63-.81.27-1.63.55-2.46.83-3.39,1.14-6.92,2.36-10.55,3.64-.58.2-1.16.41-1.74.62-1.17.41-2.35.83-3.53,1.26-.33.12-.67.24-1,.36-.8.29-1.6.59-2.41.88-3.66,1.34-7.4,2.75-11.19,4.22-1.24.48-2.49.97-3.74,1.46-2.72,1.07-5.46,2.17-8.22,3.31-2.19.91-4.4,1.82-6.6,2.77-.11.04-.21.08-.32.13-2.08.89-4.17,1.79-6.25,2.72-.9.39-1.79.79-2.69,1.2-.99.44-1.98.89-2.97,1.35-.87.39-1.73.79-2.59,1.19-1.13.53-2.26,1.06-3.39,1.6-.93.44-1.86.89-2.79,1.34-1.72.83-3.44,1.68-5.14,2.53-.82.42-1.63.83-2.44,1.25-.66.33-1.32.67-1.98,1.02-1.22.63-2.44,1.27-3.65,1.92-.05.03-.1.05-.15.08-13.98,6.83-27.15,13.81-39.5,20.8v-155.78h162.07v29.15h25.91Z"/>
      <path class="cls-61" d="m424.69,454.95s.04-.03.06-.04c8.53-6.03,17.38-12.12,26.11-18.01v78.98h-73.24c.19-6.93-1.34-12.55-1.3-16.8,0-.02,0-.04.01-.06.1-.78.24-1.45.46-1.94.51-1.14,1.14-2.62,2.87-4.92,4.63-4.24,9.38-8.43,14.21-12.55.22-.19.45-.38.68-.57,3.12-2.66,6.28-5.29,9.46-7.88,6.85-5.59,13.79-11.01,20.68-16.21Z"/>
      <path class="cls-61" d="m824.62,424.7h-19.55v-110.25c9.14-5.6,16.46-13.99,20.84-24.91.01-.02.02-.03.02-.04,2.21-4.78,3.75-9.54,4.81-13.94,0-.01,0-.02.01-.03,4.14-14.75,2.31-20.59,2.31-20.59h16.09l.08,18,21.68,3.42-46.29,148.34Z"/>
      <path class="cls-57" d="m805.07,424.7h19.55l-19.86,63.65v112.41h-271.6v-215.58c.09-.05.19-.1.28-.14,4.32-2.07,57.02-27.26,106.71-44.93,17.4-6.18,34.43-11.44,48.89-14.46.03,0,.06-.01.08-.02,22.58-4.7,34.13-7.2,41.51-8.18,9.11-1.21,11.88-.09,21.21,2.09,1.86.43,3.99.91,6.49,1.41.67.14,1.36.28,2.09.42,14.92,2.9,29.29,1.12,41.1-4.94,1.21-.6,2.4-1.27,3.55-1.98v110.25Z"/>
      <path class="cls-56" d="m830.74,275.56c-1.06,4.4-2.6,9.16-4.81,13.94,2.14-5.33,3.7-9.96,4.81-13.94Z"/>
      <path class="cls-56" d="m376.32,499.08c-.04,4.25,1.49,9.87,1.3,16.8.93,0-.83-11.32-1.3-16.8Z"/>
      <path class="cls-56" d="m424.69,454.95c-6.79,5.33-13.83,10.62-20.68,16.21-8.32,6.78-16.51,13.81-24.35,21,4.94-5.06,16.15-14.54,45.03-37.21Z"/>
      <path class="cls-57" d="m519.4,392.4v208.36h-47.81v-19.35h-28.58v-65.53h7.85v-78.98c33.99-22.96,65.95-42.89,68.39-44.41.1-.06.15-.09.15-.09Z"/>
      <path class="cls-59" d="m360.36,553.26s8.42-8.39,9.99-12.74c1.57-4.35,4.05-11.46,4.05-11.46h55.79s0,23.84,0,23.84h-27.89v27.75h-25.98l-15.96-27.39Z"/>
      <path class="cls-75" d="m231.75,568.38l37.85-40.6s-3.79-16.37.52-28.97c4.31-12.59-.48-19.58-5.29-26.83-4.81-7.26-30.52-42.5-30.52-42.5l-15.39-26.82-76.54,81.21,89.38,84.51Z"/>
      <path class="cls-57" d="m13.94,364.3h20.99v-164.51l89.48-.41s6.89,7.05,14.11,8.69c7.22,1.64,16.05,1.92,16.52,8.82s2.47,36.54,2.47,36.54l29.73,86.23,20.17,43.37,4.31,7-106.91,113.37L13.94,417.7v-53.4Z"/>
      <path class="cls-57" d="m50.11,102.78h18.89l34.4,34.01s-4.24,11.04-1.04,24.44c3.2,13.4,9.3,25.26,9.3,25.26h-61.54v-83.72Z"/>
      <path class="cls-57" d="m65.27,39.5h94.21v54.1s-17.79.73-30.92,9.22c-13.13,8.49-19.67,20.72-19.67,20.72l-28.98-28.98-14.64-9.04v-46.02Z"/>
      <path class="cls-57" d="m173,65.82v29.16s6.46.07,14.86,5.48c8.39,5.42,14.06,10.39,14.06,10.39h146.56V33.14l-70.66,6.36h-37.19v26.32h-67.63Z"/>
      <path class="cls-54" d="m361.77,31.95v78.91s58.8-1.92,99.47-2.91c40.67-.99,65.65,2.11,75.69,3.08,10.04.96,37.51,4.7,37.51,4.7v-63.43h-68.56V18.98l-144.12,12.97Z"/>
      <path class="cls-54" d="m590.33,117.38c1.23.21,3.23.57,5.9,1.08-2.63-.48-4.65-.85-5.9-1.08Z"/>
      <path class="cls-54" d="m683.93,137.76c1.31.35,2.59.66,3.83.93-3.75-.63-7.71-1.59-11.92-2.98-.31-.1-.63-.21-.96-.31,2.99.76,6.01,1.55,9.05,2.36Z"/>
      <path class="cls-54" d="m753.79,137.55c-11.12-2.62-20.81-1.33-29.85-.12,8.95-1.77,17.84-3.13,29.85.12Z"/>
      <path class="cls-54" d="m881.43,180.11v.6s-.34,13.7-.34,13.7l-.7,29.43h-52.1s-.68-1.77-1.78-4.6c-2.73-7.02-8.07-20.55-12.14-29.55-.07-.15-.14-.29-.21-.44-.79-1.75-1.53-3.31-2.2-4.6-.1-.19-.16-.32-.18-.36h0c-3.37-6.49-10.95-16.02-20.86-25.01-5.78-5.22-12.36-10.26-19.35-14.39-.02-.03-.05-.04-.07-.05-5.12-3.02-9.95-5.08-14.53-6.45h0l40.8-41.18,83.67,82.9Z"/>
      <path class="cls-57" d="m491.28,352.65c12.35-6.99,25.52-13.97,39.5-20.8-24.53,10.58-46.92,23.18-67.51,37.51-18.41,12.82-36.67,23.32-52.81,36.65-.02.01-.03.02-.04.03-24.88,20.58-43.89,37.77-51.84,45.09-.02.02-.03.03-.05.04-2.62,2.42-4.02,3.74-4.02,3.74,0,0-5.36,6.81-14.25,4.61-8.88-2.2-18.56-2.68-18.56-2.68v-241.58h82.36v-18.39h87.22v155.78Z"/>
      <path class="cls-56" d="m653.6,284.69c-2.32.69-6.15,1.8-11.17,3.31,3.69-1.12,7.41-2.23,11.17-3.31Z"/>
      <path class="cls-56" d="m640.21,288.67c.77-.23,1.51-.46,2.22-.67-.74.23-1.49.45-2.22.67Z"/>
      <path class="cls-56" d="m686.61,263.43c-.74,2.78-2.18,5.36-4.66,7.31,2.33-2.49,3.78-4.99,4.66-7.31Z"/>
      <path class="cls-56" d="m684.48,245.54c-1.67-4.65-3.75-11.41-5.2-19.42.29,1.25,3.15,13.46,5.2,19.42Z"/>
      <polygon class="cls-60" points="281.98 155.07 281.98 215.27 444.01 215.27 444.01 196.88 521.88 196.75 521.48 157.45 281.98 155.07"/>
      <polygon class="cls-60" points="280.87 155.41 242.31 155.15 242.31 215.34 280.87 215.19 280.87 155.41"/>
      <path class="cls-60" d="m653.35,226.02v-29.15l-37.55-.15-42.16-.17-38.52-.16-41.05-.16v-38.4s19.83,1.31,41.05,3.03c6.33.52,12.78,1.07,18.86,1.63,3.65.34,7.16.69,10.44,1.03,13.9,1.46,33.5,5.11,51.38,8.79.64.13,1.28.25,1.91.39,7.39,1.54,14.44,3.06,20.6,4.41.39.08.78.17,1.16.26,6.84,1.51,12.5,2.78,16.22,3.61,3.82.85,7.12,1.81,9.9,2.96,1.24.5,2.38,1.05,3.43,1.63.02,0,.03.02.05.03,5.97,3.4,8.61,8.19,8.21,15.55-.56,10.24,1.44,21.92,1.89,24.39l.04.21.02.11s0,.02,0,.02l.02.14h-25.91Z"/>
      <path class="cls-62" d="m242.03,155.07h-17.08s-4.81-.37-7.03,8.46c-2.22,8.83-3.48,14.53-10.17,23.08-6.7,8.54-21.04,18.45-17.64,26.12,3.41,7.67,58.76,132,58.76,132h59.8v-41.98l13.26,1.19-.25-88.67h-79.67v-60.2Z"/>
      <rect class="cls-59" x="315.13" y="470.68" width="17.43" height="45.66" transform="translate(817.35 169.66) rotate(90)"/>
      <rect class="cls-59" x="265.37" y="437.05" width="21.2" height="34.83" transform="translate(746.06 702.9) rotate(149.12)"/>
      <rect class="cls-59" x="429.16" y="390.98" width="17.43" height="45.66" transform="translate(520.02 -183.04) rotate(54.45)"/>
      <path class="cls-62" d="m320.88,358.65l-66.04-.39,32.85,74.61s6.23,21.93,12.73,23.82c6.5,1.9,10.87.79,16.07.47l5.2-.32-.82-98.19Z"/>
      <polygon class="cls-56" points="159.52 500.08 132.86 528.38 204.86 596.67 224.85 616.72 230.78 616.72 230.38 567.81 159.52 500.08"/>
      <polygon class="cls-56" points="402.3 580.65 387 580.65 387 617.69 803.46 617.69 803.46 601.55 471.59 601.55 471.59 581.41 402.3 580.65"/>
      <polygon class="cls-56" points="65.27 39.5 13.94 39.5 13.94 185.77 50.11 185.77 50.11 102.78 65.27 85.52 65.27 39.5"/>
      <polygon class="cls-56" points="505.89 52.3 505.89 18.98 544 16.01 543.19 52.3 505.89 52.3"/>
      <polygon class="cls-56" points="655.25 14.31 654.87 52.29 590.01 52.29 590.27 14.31 655.25 14.31"/>
      <polygon class="cls-56" points="210.28 389.69 218.73 404.56 142.37 483.87 160.28 501.97 132.86 528.38 105.6 502.53 210.28 389.69"/>
      <polygon class="cls-56" points="269.6 527.78 274.87 541.6 241.54 576.8 267.09 597.16 280.71 597.16 279.71 616.72 224.85 616.72 227.27 572.8 269.6 527.78"/>
      <polygon class="cls-56" points="519.39 609.35 533.35 609.35 533.35 385.67 519.39 393.45 519.39 609.35"/>
      <polygon class="cls-56" points="102.16 137.12 108.65 121.77 79.91 94.56 65.27 85.52 59.85 86.15 50.11 102.78 69 102.78 102.16 137.12"/>
      <polygon class="cls-56" points="159.24 92.4 173.41 94.43 173 65.82 240.63 65.82 240.63 40.37 159.48 40.37 159.24 92.4"/>
      <rect class="cls-56" x="348.21" y="33.44" width="13.75" height="75.59"/>
      <path class="cls-45" d="m825.91,289.54c-4.38,10.92-11.7,19.31-20.84,24.91v-.28c10.21-6.72,16.71-15.7,20.84-24.63Z"/>
      <path class="cls-45" d="m830.75,275.53c2.79-11.58,2.31-20.59,2.31-20.59,0,0,1.83,5.84-2.31,20.59Z"/>
      <path class="cls-45" d="m756.89,138.47c2.65.85,5.44,1.92,8.42,3.26,17.89,8.02,34.33,24.09,46.46,42.56l23.96-19.59,15.39,15.62,15.11-15.25-68.48-67.85-40.86,41.25h0Z"/>
      <path class="cls-44" d="m866.24,165.07l-15.11,15.25-15.39-15.62-23.96,19.58m-54.88-45.82h-.01l.07-.07m54.24,45.01h-.01"/>
      <path class="cls-45" d="m598.17,118.82c18.67,3.46,60.42,11.44,76.69,16.57-22.86-5.84-43.93-10.17-59.49-13.07-6.94-1.49-12.78-2.65-17.2-3.5Z"/>
      <path class="cls-45" d="m723.89,137.44c-10.31,2.03-20.71,4.59-36.07,1.26,14.17,2.4,25.4.17,36.07-1.26Z"/>
      <path class="cls-45" d="m756.96,138.39l-.07.07h-.01c-1.05-.34-2.08-.64-3.09-.91,1.04.24,2.1.52,3.17.84Z"/>
      <path class="cls-45" d="m505.89,18.97l-144.12,12.97v78.91s41.08-2.84,91.41-2.92v-55.64h52.7V18.98h0Z"/>
      <path class="cls-45" d="m453.19,107.94c12.87-.02,26.33.14,39.88.57v-56.21h-39.88v55.64Z"/>
      <path class="cls-45" d="m574.45,115.73v-63.43h-81.39v56.21c28.45.91,57.22,3.03,81.39,7.22Z"/>
      <polygon class="cls-45" points="308.68 302.75 271.25 302.75 230.4 302.75 248.88 344.72 308.68 344.72 308.68 302.75"/>
      <polygon class="cls-45" points="254.84 358.26 266.13 383.9 321.7 383.9 321.7 358.26 254.84 358.26 254.84 358.26"/>
      <polygon class="cls-45" points="266.13 383.9 287.69 432.87 321.7 432.87 321.7 383.9 266.13 383.9"/>
      <path class="cls-48" d="m287.69,432.87l8.13,18.47h0c1.88,4.27,6.14,7.25,11.1,7.25,1.39,0,2.72-.23,3.96-.66h0s4.6-.92,10.81-1.09v-23.97h-34.01Z"/>
      <path class="cls-45" d="m353.23,456.74l.04-.04.09-.1c1.54-1.7,18.63-20.3,50.7-45.6v-195.73h-82.36v241.58c5.61-.15,12.54.33,18.56,2.68h0c.46.19.93.36,1.41.49,1.45.44,2.53.56,3.3.42,3.26-.06,6.19-1.47,8.26-3.7h0Z"/>
      <path class="cls-45" d="m491.28,196.87v155.78c-9.85,5.58-19.19,11.17-28.01,16.71-20.4,12.8-38.02,25.29-52.81,36.65-.02.01-.03.02-.04.03-2.18,1.68-4.3,3.33-6.36,4.95v-214.12h87.22Z"/>
      <path class="cls-45" d="m573.64,312.56c-15.05,6.21-29.33,12.68-42.86,19.29"/>
      <path class="cls-45" d="m679.26,226.02h-25.91v-45.32c5.91,1.49,10.09,2.63,12.24,3.24,1.1.3,1.66.47,1.66.47,0,0,.72.35,1.77,1.16.02,0,.03.02.05.03,2.57,1.98,7.06,6.64,8.21,15.55.2,1.52.3,3.16.27,4.93-.09,6.73.55,13.16,1.54,18.97.04.24.08.47.12.7l.02.11s0,.02,0,.02l.02.14Z"/>
      <path class="cls-45" d="m653.35,180.7v16.17h-37.55v-24.56c.64.13,1.28.25,1.91.39,7.62,1.52,14.53,3.02,20.6,4.41.39.08.78.17,1.16.26,5.32,1.22,9.98,2.35,13.88,3.33Z"/>
      <path class="cls-45" d="m615.8,172.31v24.56h-42.16v-31.79c15.52,2.25,29.74,4.77,42.16,7.23Z"/>
      <path class="cls-45" d="m573.64,165.08v31.79h-38.52v-36.4c6.42.61,12.72,1.28,18.86,2.02,6.75.8,13.31,1.67,19.66,2.59Z"/>
      <path class="cls-45" d="m535.12,160.47v36.4h-41.05v-39.04c14.07.46,27.82,1.4,41.05,2.64Z"/>
      <path class="cls-45" d="m464.22,157.01c-19.08-.44-39.59-.79-60.16-1.05v40.92h77.47v-39.42c-5.6-.16-11.39-.3-17.31-.44Z"/>
      <path class="cls-45" d="m464.22,157.01c-3.18-.07-6.39-.14-9.65-.21v21.88h26.95v-21.22c-5.6-.16-11.39-.3-17.31-.44Z"/>
      <path class="cls-45" d="m404.06,155.96c-13.84-.18-27.7-.32-41.18-.44v59.74h41.18v-59.31Z"/>
      <path class="cls-45" d="m362.88,155.52c-14.34-.12-28.23-.21-41.18-.28v30.15h41.18v-29.87Z"/>
      <polygon class="cls-45" points="282.61 155.1 282.61 213.08 282.61 215.27 362.88 215.27 362.88 185.39 321.7 185.39 321.7 155.24 282.61 155.1"/>
      <path class="cls-45" d="m282.61,155.1c-24.68-.06-40.58-.03-40.58-.03v60.2h40.58v-60.17Z"/>
      <path class="cls-45" d="m679.26,226.02l-.02-.14s-.01,0-.01-.02l-.02-.11-.04-.21"/>
      <path class="cls-45" d="m679.09,225.05l.08.49.04.21.02.11s0,.02.01.02l.02.14"/>
      <path class="cls-45" d="m685.1,247.22c-.18-.5-.38-1.02-.59-1.58"/>
      <path class="cls-45" d="m685.51,248.27c1.03,2.63,1.73,4.1,1.73,4.1,0,0,1.72,4.87-.63,11.06"/>
      <path class="cls-45" d="m653.88,284.61c1.44-.42,2.88-.83,4.32-1.23,12.15-3.4,19.42-7.99,23.72-12.6"/>
      <path class="cls-45" d="m573.64,312.56c20.77-8.57,42.96-16.65,66.56-23.89"/>
      <path class="cls-45" d="m195.14,200.37s20.14-14.4,23.02-38.5h0c0-3.76,3.04-6.8,6.79-6.8h17.08v60.2h79.67v87.48h-91.3l-39.23-87.6h0c-.68-1.51-1.05-3.19-1.05-4.95,0-4.04,1.98-7.62,5.02-9.82h0Z"/>
      <polygon class="cls-45" points="167.55 283.07 187.23 339.65 207.4 383.03 211.72 390.02 104.8 503.39 13.94 417.7 13.94 364.3 34.92 364.3 34.92 283.22 167.55 283.07"/>
      <path class="cls-45" d="m155.03,216.89l2.47,36.54,10.05,29.64-132.63.15v-83.43l89.48-.41h.02c7.16,5.49,15.62,9.37,24.83,11.11.34.03.66.09.98.18h.03s.02.01.02.01c2.74.74,4.75,3.24,4.75,6.21Z"/>
      <path class="cls-45" d="m50.11,102.78v83.72h61.54l-.12-.7c-6.48-9.47-10.27-20.92-10.27-33.25,0-5.45.74-10.73,2.13-15.74h0s-34.4-34.02-34.4-34.02h-18.89Z"/>
      <path class="cls-45" d="m108.89,123.54l-28.98-28.98-14.64-9.04v-46.02h94.21v54.09h-.01c-21.69.29-40.56,12.28-50.57,29.95h0Z"/>
      <path class="cls-48" d="m173,65.82h28.92v45.04c-7.79-7.79-17.76-13.41-28.92-15.88v-29.16Z"/>
      <rect class="cls-43" x="201.92" y="65.82" width="38.71" height="45.04"/>
      <polygon class="cls-45" points="240.63 110.86 321.7 110.86 321.7 90.07 348.48 90.07 348.48 33.14 277.82 39.5 240.63 39.5 240.63 110.86"/>
      <rect class="cls-45" x="321.7" y="90.07" width="26.79" height="20.78"/>
      <path class="cls-45" d="m824.62,424.7l-19.86,63.65v112.41h-271.6v-215.58c.09-.05.19-.1.28-.14,43.25-22.1,79.16-35.89,106.71-44.93,10.38-3.4,19.57-6.14,27.53-8.38,8.07-2.28,15.1-4.31,21.36-6.08.03,0,.06-.01.08-.02,17.98-5.06,29.64-7.93,41.51-8.18,6.62-.14,13.31.53,21.21,2.09,2.07.41,4.23.88,6.49,1.41.61.15,1.23.3,1.85.45,20,4.9,34.88-1.33,41.34-4.97,2.32-1.29,3.55-2.26,3.55-2.26v110.53h19.55Z"/>
      <path class="cls-45" d="m379.66,492.16c-1.73,2.3-2.36,3.78-2.87,4.92-.22.49-.36,1.16-.46,1.94.03-2.37.57-4.31,2.19-5.81.38-.35.76-.7,1.14-1.05Z"/>
      <path class="cls-45" d="m450.86,435.99v.91c-8.73,5.89-17.58,11.98-26.11,18.01,8.87-6.69,17.66-13.03,26.11-18.92Z"/>
      <path class="cls-45" d="m374.41,529.05h55.78v23.85h-27.89v27.75h-25.98l-15.96-27.39h0c6.6-6.62,11.51-14.92,14.04-24.2h0Z"/>
      <path class="cls-75" d="m322.69,617.82h27.01v-55.06c-7.86,4.18-16.83,6.55-26.35,6.55-.22,0-.44,0-.66,0v48.53Z"/>
      <path class="cls-75" d="m274.87,541.6l-33.34,35.21,25.56,20.35h13.62v20.66h41.98v-48.52h0c-20.36-.24-38.12-11.3-47.8-27.69h0Z"/>
      <path class="cls-45" d="m247.35,447.36l18.97,26.01h0c3.34,4.59,5.32,10.23,5.32,16.34,0,2.55-.35,5.02-.99,7.37-.18.54-.35,1.09-.51,1.64l-.03.09h0c-1.42,4.92-2.18,10.1-2.18,15.46,0,4.66.58,9.19,1.66,13.51h0s-37.85,40.61-37.85,40.61l-89.38-84.51,43.64-46.3,37.26,35.05,24.08-25.26Z"/>
      <polygon class="cls-45" points="218.91 402.66 234.31 429.48 247.35 447.36 223.27 472.62 186.02 437.56 218.91 402.66"/>
      <path class="cls-51" d="m721.67,161.61c24.24-11.95,58.69,8.39,76.95,45.43,18.26,37.04,13.42,76.76-10.81,88.71-24.24,11.95-58.69-8.39-76.95-45.43-18.26-37.04-13.42-76.76,10.81-88.71Z"/>
      <path class="cls-45" d="m519.4,392.4v208.36h-47.81v-19.35h-28.58v-65.53h7.85v-79.89c36.16-25.2,66.03-42.17,68.39-43.5.1-.06.15-.09.15-.09Z"/>
      <g>
        <path class="cls-16" d="m257.08,323.63h1.37v.97c-.36.3-.84.42-1.28.42-1.13,0-1.95-.73-1.95-1.93s.76-1.93,1.9-1.93c.65,0,1.13.23,1.42.55l.4-.42c-.38-.47-1.03-.75-1.87-.75-1.44,0-2.53,1.12-2.53,2.54,0,1.54,1.1,2.54,2.6,2.54.71,0,1.47-.28,1.91-.75v-1.85h-1.98v.59Z"/>
        <path class="cls-16" d="m261.38,322.35c.66,0,1.08.38,1.11,1.03h-2.31c.09-.6.52-1.03,1.2-1.03h0Zm1.22,2.17c-.22.32-.62.56-1.07.56-.75,0-1.31-.41-1.34-1.15h2.9c.03-.16.04-.33.04-.45,0-1.02-.73-1.67-1.7-1.67-1.22,0-1.88.84-1.88,1.92,0,1.17.79,1.91,1.96,1.91.6,0,1.13-.25,1.47-.76l-.38-.35Z"/>
        <path class="cls-16" d="m263.78,325.57h.59v-2.56c.08-.38.37-.64.69-.64.23,0,.35.07.44.18l.37-.41c-.16-.21-.4-.33-.75-.33-.28,0-.63.1-.76.36v-.28h-.59v3.68Z"/>
        <path class="cls-16" d="m266.28,325.57h.59v-2.56c.08-.38.37-.64.69-.64.23,0,.35.07.44.18l.37-.41c-.16-.21-.4-.33-.75-.33-.28,0-.63.1-.76.36v-.28h-.59v3.68Z"/>
        <path class="cls-16" d="m269.05,326.98c.12.06.25.08.41.08.51,0,.89-.3,1.39-1.54l1.4-3.62h-.65l-1.04,2.8-1.38-2.8h-.7l1.78,3.55-.11.28c-.25.59-.45.78-.71.78-.06,0-.11-.01-.16-.04l-.23.52Z"/>
        <polygon class="cls-16" points="281.16 320.62 280.52 320.62 279.39 324.43 278.06 320.62 277.52 320.62 276.22 324.44 275.04 320.62 274.37 320.62 275.91 325.57 276.46 325.57 277.79 321.72 279.13 325.57 279.68 325.57 281.16 320.62"/>
        <path class="cls-16" d="m282.84,322.35c.66,0,1.08.38,1.11,1.03h-2.31c.09-.6.52-1.03,1.2-1.03h0Zm1.22,2.17c-.22.32-.62.56-1.07.56-.75,0-1.31-.41-1.34-1.15h2.9c.03-.16.04-.33.04-.45,0-1.02-.73-1.67-1.7-1.67-1.22,0-1.88.84-1.88,1.92,0,1.17.79,1.91,1.96,1.91.6,0,1.13-.25,1.47-.76l-.38-.35Z"/>
        <path class="cls-16" d="m286.96,322.37c.69,0,1.18.5,1.18,1.34s-.53,1.37-1.23,1.37c-.39,0-.83-.17-1.08-.46v-1.54c.21-.38.62-.71,1.13-.71h0Zm-1.72,2.53c.3.42.98.74,1.63.74,1.15,0,1.9-.75,1.9-1.97,0-1.09-.64-1.86-1.72-1.86-.49,0-.91.17-1.22.53v-1.93h-.59v4.49Z"/>
        <path class="cls-16" d="m291.06,322.35c.66,0,1.08.38,1.11,1.03h-2.31c.09-.6.52-1.03,1.2-1.03h0Zm1.22,2.17c-.22.32-.62.56-1.07.56-.75,0-1.31-.41-1.34-1.15h2.9c.03-.16.04-.33.04-.45,0-1.02-.73-1.67-1.7-1.67-1.22,0-1.88.84-1.88,1.92,0,1.17.79,1.91,1.96,1.91.6,0,1.13-.25,1.47-.76l-.38-.35Z"/>
        <path class="cls-16" d="m293.46,325.57h.59v-2.56c.08-.38.37-.64.69-.64.23,0,.35.07.44.18l.37-.41c-.16-.21-.4-.33-.75-.33-.28,0-.63.1-.76.36v-.28h-.59v3.68Z"/>
      </g>
      <path class="cls-16" d="m265.74,257.1c.86,0,1.15.25,1.15.76,0,.48-.41.76-1.04.76h-1.41v-1.53h1.3Zm.09,2.12c.86,0,1.23.26,1.23.79,0,.59-.4.85-1.3.85h-1.32v-1.64h1.39Zm-2.03,2.24h1.97c1.18,0,1.96-.41,1.96-1.42,0-.65-.34-1.06-.88-1.17.44-.19.7-.59.7-1.13,0-.72-.4-1.23-1.75-1.23h-2v4.95Z"/>
      <path class="cls-16" d="m270.1,258.23c.66,0,1.08.38,1.11,1.03h-2.31c.09-.6.52-1.03,1.2-1.03h0Zm1.22,2.17c-.22.32-.62.56-1.07.56-.75,0-1.31-.41-1.34-1.15h2.9c.03-.16.04-.33.04-.45,0-1.02-.73-1.67-1.7-1.67-1.22,0-1.88.84-1.88,1.92,0,1.17.79,1.91,1.96,1.91.6,0,1.13-.25,1.47-.76l-.38-.35Z"/>
      <polygon class="cls-16" points="272.59 261.45 273.24 261.45 273.24 259.4 275.95 259.4 275.95 258.8 273.24 258.8 273.24 257.1 276.15 257.1 276.15 256.5 272.59 256.5 272.59 261.45"/>
      <path class="cls-16" d="m276.69,261.45h.59v-2.56c.08-.38.37-.64.69-.64.23,0,.35.07.44.18l.37-.41c-.16-.21-.4-.33-.75-.33-.28,0-.63.1-.76.36v-.28h-.59v3.68Z"/>
      <path class="cls-16" d="m280.61,258.23c.66,0,1.08.38,1.11,1.03h-2.31c.09-.6.52-1.03,1.2-1.03h0Zm1.22,2.17c-.22.32-.62.56-1.07.56-.75,0-1.31-.41-1.34-1.15h2.9c.03-.16.04-.33.04-.45,0-1.02-.73-1.67-1.7-1.67-1.22,0-1.88.84-1.88,1.92,0,1.17.79,1.91,1.96,1.91.6,0,1.13-.25,1.47-.76l-.38-.35Z"/>
      <path class="cls-16" d="m284.57,258.23c.66,0,1.08.38,1.11,1.03h-2.31c.09-.6.52-1.03,1.2-1.03h0Zm1.22,2.17c-.22.32-.62.56-1.07.56-.75,0-1.31-.41-1.34-1.15h2.9c.03-.16.04-.33.04-.45,0-1.02-.73-1.67-1.7-1.67-1.22,0-1.88.84-1.88,1.92,0,1.17.79,1.91,1.96,1.91.6,0,1.13-.25,1.47-.76l-.38-.35Z"/>
      <g>
        <polygon class="cls-16" points="298.81 404.54 299.45 404.54 299.45 399.59 295.24 399.59 295.24 404.54 295.88 404.54 295.88 400.19 298.81 400.19 298.81 404.54"/>
        <path class="cls-16" d="m301.62,404.05c-.5,0-.85-.23-.85-.61,0-.45.47-.59,1.21-.59.3,0,.6.04.79.11v.38c-.13.3-.53.72-1.15.72h0Zm-.93-2.31c.34-.25.68-.41,1.1-.41.77,0,.98.43.98,1.1-.18-.06-.59-.11-.86-.11-1.06,0-1.76.34-1.76,1.14,0,.68.54,1.13,1.34,1.13.64,0,1.08-.28,1.29-.59v.54h.59v-2.27c0-.95-.52-1.49-1.51-1.49-.55,0-1.13.21-1.47.52l.3.45Z"/>
        <polygon class="cls-16" points="306.9 404.54 307.5 404.54 307.5 400.86 306.9 400.86 306.9 402.39 304.78 402.39 304.78 400.86 304.19 400.86 304.19 404.54 304.78 404.54 304.78 402.95 306.9 402.95 306.9 404.54"/>
        <path class="cls-16" d="m290.68,406.89h-.64v2.22c-.36.21-.85.38-1.31.38-.89,0-1.4-.39-1.4-1.34v-1.26h-.64v1.57c0,1.16.88,1.63,1.93,1.63.55,0,1.14-.18,1.42-.35v2.11h.64v-4.95Z"/>
        <path class="cls-16" d="m293.26,408.63c.66,0,1.08.38,1.11,1.03h-2.31c.09-.6.52-1.03,1.2-1.03h0Zm1.22,2.17c-.22.32-.62.56-1.07.56-.75,0-1.31-.41-1.34-1.15h2.9c.03-.16.04-.33.04-.45,0-1.02-.73-1.67-1.7-1.67-1.22,0-1.88.84-1.88,1.92,0,1.17.79,1.91,1.96,1.91.6,0,1.13-.25,1.47-.76l-.38-.35Z"/>
        <polygon class="cls-16" points="295.66 411.85 296.25 411.85 296.25 409.21 297.56 410.91 298.8 409.21 298.8 411.85 299.4 411.85 299.4 408.17 298.89 408.17 297.56 409.96 296.2 408.17 295.66 408.17 295.66 411.85"/>
        <path class="cls-16" d="m300.68,410c0-.82.56-1.36,1.32-1.36s1.33.54,1.33,1.36-.55,1.35-1.33,1.35-1.32-.57-1.32-1.35h0Zm-.63,0c0,1.11.81,1.91,1.95,1.91s1.96-.8,1.96-1.91-.8-1.92-1.96-1.92-1.95.8-1.95,1.92Z"/>
        <path class="cls-16" d="m305.53,408.73h1.55v2.55h-1.99c.26-.52.44-1.35.44-2.29v-.25Zm-1.49,4.01h.57v-.89h3.03v.89h.57v-1.46h-.53v-3.11h-2.7v.34c0,1.37-.13,2.19-.52,2.77h-.41v1.46Z"/>
        <path class="cls-16" d="m309.99,411.36c-.5,0-.85-.23-.85-.61,0-.45.47-.59,1.21-.59.3,0,.6.04.79.11v.38c-.13.3-.53.72-1.15.72h0Zm-.93-2.31c.34-.25.68-.41,1.1-.41.77,0,.98.43.98,1.1-.18-.06-.59-.11-.86-.11-1.06,0-1.76.34-1.76,1.14,0,.68.54,1.13,1.34,1.13.64,0,1.08-.28,1.29-.59v.54h.59v-2.27c0-.95-.52-1.49-1.51-1.49-.55,0-1.13.21-1.47.52l.3.45Z"/>
        <polygon class="cls-16" points="315.27 411.85 315.86 411.85 315.86 408.17 315.27 408.17 315.27 409.69 313.14 409.69 313.14 408.17 312.55 408.17 312.55 411.85 313.14 411.85 313.14 410.25 315.27 410.25 315.27 411.85"/>
      </g>
      <g>
        <polygon class="cls-16" points="306.25 472.47 306.25 467.52 305.63 467.52 305.63 471.31 302.6 467.52 302.09 467.52 302.09 472.47 302.71 472.47 302.71 468.69 305.75 472.47 306.25 472.47"/>
        <path class="cls-16" d="m308.3,471.98c-.46,0-.78-.23-.78-.61,0-.45.43-.59,1.11-.59.27,0,.55.04.72.11v.38c-.12.3-.49.72-1.05.72h0Zm-.86-2.31c.31-.25.62-.41,1-.41.71,0,.9.43.9,1.1-.17-.06-.54-.11-.79-.11-.97,0-1.61.34-1.61,1.14,0,.68.49,1.13,1.23,1.13.58,0,.99-.28,1.18-.59v.54h.54v-2.27c0-.95-.48-1.49-1.38-1.49-.5,0-1.04.21-1.35.52l.28.45Z"/>
        <path class="cls-16" d="m310.6,469.36h.76v1.78c0,.91.4,1.39,1.13,1.39.46,0,.81-.14,1.04-.39l-.27-.44c-.2.16-.41.26-.67.26-.44,0-.64-.25-.64-.98v-1.62h1.27v-.57h-1.27v-.94h-.59v.94h-.76v.57Z"/>
        <path class="cls-16" d="m317.22,468.77h-.59v2.41c-.23.5-.64.8-1.15.8-.76,0-.97-.53-.97-1.16v-2.05h-.59v2.13c0,1.13.51,1.64,1.51,1.64.53,0,.94-.23,1.2-.59v.52h.59v-3.7Z"/>
        <path class="cls-16" d="m318.07,472.47h.59v-2.56c.08-.38.37-.64.69-.64.23,0,.35.07.44.18l.37-.41c-.16-.21-.4-.33-.75-.33-.28,0-.63.1-.76.36v-.28h-.59v3.68Z"/>
        <path class="cls-16" d="m321.99,469.25c.66,0,1.08.38,1.11,1.03h-2.31c.09-.6.52-1.03,1.2-1.03h0Zm1.22,2.17c-.22.32-.62.56-1.07.56-.75,0-1.31-.41-1.34-1.15h2.9c.03-.16.04-.33.04-.45,0-1.02-.73-1.67-1.7-1.67-1.22,0-1.88.84-1.88,1.92,0,1.17.79,1.91,1.96,1.91.6,0,1.13-.25,1.47-.76l-.38-.35Z"/>
        <path class="cls-16" d="m301.18,475.42c.96,0,1.28.37,1.28.88,0,.57-.49.93-1.24.93h-1.27v-1.81h1.23Zm-1.23,4.35v-1.94h1.29l1.47,1.94h.79l-1.59-2.07c.71-.15,1.21-.69,1.21-1.4,0-.78-.41-1.49-1.92-1.49h-1.9v4.95h.64Z"/>
        <path class="cls-16" d="m305.32,476.55c.66,0,1.08.38,1.11,1.03h-2.31c.09-.6.52-1.03,1.2-1.03h0Zm1.22,2.17c-.22.32-.62.56-1.07.56-.75,0-1.31-.41-1.34-1.15h2.9c.03-.16.04-.33.04-.45,0-1.02-.73-1.67-1.7-1.67-1.22,0-1.88.84-1.88,1.92,0,1.17.79,1.91,1.96,1.91.6,0,1.13-.25,1.47-.76l-.38-.35Z"/>
        <path class="cls-16" d="m309.44,476.57c.74,0,1.2.52,1.2,1.34s-.52,1.37-1.25,1.37c-.43,0-.84-.17-1.07-.57v-1.37c.15-.38.54-.76,1.13-.76h0Zm-1.72,4.62h.59v-1.73c.27.27.65.38,1.12.38,1.09,0,1.83-.84,1.83-1.97s-.67-1.86-1.76-1.86c-.44,0-.92.15-1.19.54v-.46h-.59v5.1Z"/>
        <path class="cls-16" d="m315.18,476.07h-.59v2.41c-.23.5-.64.8-1.15.8-.76,0-.97-.53-.97-1.16v-2.05h-.59v2.13c0,1.13.51,1.64,1.51,1.64.53,0,.94-.23,1.2-.59v.52h.59v-3.7Z"/>
        <path class="cls-16" d="m317.76,476.57c.69,0,1.18.5,1.18,1.34s-.53,1.37-1.23,1.37c-.39,0-.83-.17-1.08-.46v-1.54c.21-.38.62-.71,1.13-.71h0Zm-1.72,2.53c.3.42.98.74,1.63.74,1.15,0,1.9-.75,1.9-1.97,0-1.09-.64-1.86-1.72-1.86-.49,0-.91.17-1.22.53v-1.93h-.59v4.49Z"/>
        <rect class="cls-16" x="320.29" y="474.61" width=".59" height="5.17"/>
        <path class="cls-16" d="m321.8,474.9c0,.21.16.37.38.37.2,0,.37-.16.37-.37,0-.2-.17-.35-.37-.35-.21,0-.38.15-.38.35h0Zm.08,4.88h.59v-3.68h-.59v3.68Z"/>
        <path class="cls-16" d="m326.27,478.71c-.23.34-.59.57-1.03.57-.84,0-1.39-.54-1.39-1.35s.56-1.36,1.32-1.36c.45,0,.76.16,1.02.5l.46-.31c-.25-.45-.84-.75-1.49-.75-1.16,0-1.93.84-1.93,1.92,0,1.17.8,1.91,1.97,1.91.59,0,1.23-.28,1.51-.82l-.42-.3Z"/>
      </g>
      <g>
        <path class="cls-16" d="m66.31,153.63l.98,2.25h-1.95l.97-2.25Zm-2.41,4.07h.66l.54-1.25h2.43l.55,1.25h.67l-2.17-4.97h-.51l-2.17,4.97Z"/>
        <path class="cls-16" d="m69.19,157.7h.59v-2.56c.08-.38.37-.64.69-.64.23,0,.35.07.44.18l.37-.41c-.16-.21-.4-.33-.75-.33-.28,0-.63.1-.76.36v-.28h-.59v3.68Z"/>
        <path class="cls-16" d="m77.03,155.26c0-.95-.55-1.32-1.32-1.32-.51,0-.93.2-1.21.57-.19-.37-.57-.57-1.08-.57s-.92.25-1.13.57v-.5h-.59v3.68h.59v-2.46c.13-.32.49-.74,1.01-.74.48,0,.76.31.76.75v2.45h.59v-2.53c.18-.39.52-.67,1.01-.67.57,0,.76.4.76.94v2.26h.59v-2.44Z"/>
        <path class="cls-16" d="m79.07,157.21c-.5,0-.85-.23-.85-.61,0-.45.47-.59,1.21-.59.3,0,.6.04.79.11v.38c-.13.3-.53.72-1.15.72h0Zm-.93-2.31c.34-.25.68-.41,1.1-.41.77,0,.98.43.98,1.1-.18-.06-.59-.11-.86-.11-1.06,0-1.76.34-1.76,1.14,0,.68.54,1.13,1.34,1.13.64,0,1.08-.28,1.29-.59v.55h.59v-2.27c0-.95-.52-1.49-1.51-1.49-.55,0-1.13.21-1.47.52l.3.45Z"/>
        <path class="cls-16" d="m81.63,157.7h.59v-2.46c.2-.45.63-.74,1.08-.74.72,0,1.08.36,1.08,1.18v2.02h.59v-2.1c0-1.17-.53-1.66-1.49-1.66-.53,0-1.02.19-1.26.56v-.48h-.59v3.68Z"/>
        <path class="cls-16" d="m85.8,152.82c0,.21.16.37.38.37.2,0,.37-.16.37-.37,0-.2-.17-.35-.37-.35-.21,0-.38.15-.38.35h0Zm.08,4.88h.59v-3.68h-.59v3.68Z"/>
        <polygon class="cls-16" points="59.85 165 63.48 165 63.48 164.4 60.49 164.4 60.49 162.78 63.21 162.78 63.21 162.19 60.49 162.19 60.49 160.65 63.41 160.65 63.41 160.05 59.85 160.05 59.85 165"/>
        <polygon class="cls-16" points="67.53 161.32 66.8 161.32 65.73 162.67 64.67 161.32 63.93 161.32 65.32 163.11 63.85 165 64.56 165 65.71 163.52 66.85 165 67.6 165 66.12 163.1 67.53 161.32"/>
        <path class="cls-16" d="m70.73,163.94c-.23.34-.59.57-1.03.57-.84,0-1.39-.55-1.39-1.35s.56-1.36,1.32-1.36c.45,0,.76.16,1.02.5l.46-.31c-.25-.45-.84-.75-1.49-.75-1.16,0-1.93.84-1.93,1.92,0,1.17.8,1.91,1.97,1.91.59,0,1.23-.28,1.51-.82l-.42-.3Z"/>
        <path class="cls-16" d="m71.64,165h.59v-2.43c.19-.43.57-.76,1.08-.76.72,0,1.07.37,1.07,1.17v2.03h.59v-2.09c0-1.16-.54-1.67-1.55-1.67-.54,0-.93.21-1.2.56v-1.97h-.59v5.17Z"/>
        <path class="cls-16" d="m77.02,164.51c-.5,0-.85-.23-.85-.61,0-.45.47-.59,1.21-.59.3,0,.6.04.79.11v.38c-.13.3-.53.72-1.15.72h0Zm-.93-2.31c.34-.25.68-.41,1.1-.41.77,0,.98.43.98,1.1-.18-.06-.59-.11-.86-.11-1.06,0-1.76.34-1.76,1.14,0,.68.54,1.13,1.34,1.13.64,0,1.08-.28,1.29-.59v.54h.59v-2.27c0-.95-.52-1.49-1.51-1.49-.55,0-1.13.21-1.47.52l.3.45Z"/>
        <path class="cls-16" d="m79.59,165h.59v-2.46c.2-.45.63-.74,1.08-.74.72,0,1.08.36,1.08,1.18v2.02h.59v-2.1c0-1.17-.53-1.66-1.49-1.66-.53,0-1.02.19-1.26.56v-.48h-.59v3.68Z"/>
        <path class="cls-16" d="m85.48,164.51c-.79,0-1.3-.5-1.3-1.34,0-.89.59-1.37,1.3-1.37.5,0,.85.23,1.02.52v1.48c-.12.36-.49.7-1.01.7h0Zm1.61-3.19h-.6v.33c-.17-.21-.55-.4-1.1-.4-1.01,0-1.84.72-1.84,1.91s.74,1.91,1.83,1.91c.62,0,.87-.18,1.11-.46v.22c0,.68-.37,1.09-1.08,1.09-.59,0-.93-.28-1.08-.56l-.53.23c.21.54.84.89,1.64.89.94,0,1.65-.52,1.65-1.76v-3.4Z"/>
        <path class="cls-16" d="m89.58,161.78c.66,0,1.08.38,1.11,1.03h-2.31c.09-.6.52-1.03,1.2-1.03h0Zm1.22,2.17c-.22.32-.62.56-1.07.56-.75,0-1.31-.41-1.34-1.15h2.9c.03-.16.04-.33.04-.45,0-1.02-.73-1.67-1.7-1.67-1.22,0-1.88.84-1.88,1.92,0,1.17.79,1.91,1.96,1.91.6,0,1.13-.25,1.47-.76l-.38-.35Z"/>
      </g>
      <g>
        <path class="cls-16" d="m280.36,81.87h1.37v.97c-.36.3-.84.42-1.28.42-1.13,0-1.95-.73-1.95-1.93s.76-1.93,1.9-1.93c.65,0,1.13.23,1.42.55l.4-.42c-.38-.47-1.03-.75-1.87-.75-1.44,0-2.53,1.12-2.53,2.54,0,1.54,1.1,2.54,2.6,2.54.71,0,1.47-.28,1.91-.75v-1.85h-1.98v.59Z"/>
        <path class="cls-16" d="m287.27,78.87h-.64v2.76c0,.99-.46,1.64-1.38,1.64-.84,0-1.51-.59-1.51-1.68v-2.73h-.64v2.82c0,1.46,1,2.19,2.15,2.19,1.01,0,2.02-.62,2.02-2.15v-2.86Z"/>
        <polygon class="cls-16" points="288.29 83.82 291.92 83.82 291.92 83.22 288.93 83.22 288.93 81.6 291.66 81.6 291.66 81.01 288.93 81.01 288.93 79.47 291.86 79.47 291.86 78.87 288.29 78.87 288.29 83.82"/>
        <path class="cls-16" d="m295.67,82.5c0,.49-.5.77-1.07.77-.77,0-1.36-.39-1.68-.8l-.42.45c.34.51,1.15.96,2.03.96,1.03,0,1.8-.58,1.8-1.43,0-1.77-3.06-1.1-3.06-2.31,0-.55.68-.74,1.15-.74.64,0,1.1.23,1.4.53l.42-.42c-.38-.48-1.03-.72-1.8-.72-1.13,0-1.83.62-1.83,1.36,0,1.83,3.06,1.11,3.06,2.34h0Z"/>
        <path class="cls-16" d="m300.01,82.5c0,.49-.5.77-1.07.77-.77,0-1.36-.39-1.68-.8l-.42.45c.34.51,1.15.96,2.03.96,1.03,0,1.8-.58,1.8-1.43,0-1.77-3.06-1.1-3.06-2.31,0-.55.68-.74,1.15-.74.64,0,1.1.23,1.4.53l.42-.42c-.38-.48-1.03-.72-1.8-.72-1.13,0-1.83.62-1.83,1.36,0,1.83,3.06,1.11,3.06,2.34h0Z"/>
      </g>
      <g>
        <polygon class="cls-16" points="394.87 81.92 395.51 81.92 395.51 76.97 394.87 76.97 394.87 79.1 391.92 79.1 391.92 76.97 391.27 76.97 391.27 81.92 391.92 81.92 391.92 79.7 394.87 79.7 394.87 81.92"/>
        <path class="cls-16" d="m398.1,78.7c.66,0,1.08.38,1.11,1.03h-2.31c.09-.6.52-1.03,1.2-1.03h0Zm1.22,2.17c-.22.32-.62.56-1.07.56-.75,0-1.31-.41-1.34-1.15h2.9c.03-.16.04-.33.04-.45,0-1.02-.73-1.67-1.7-1.67-1.22,0-1.88.84-1.88,1.92,0,1.17.79,1.91,1.96,1.91.6,0,1.13-.25,1.47-.76l-.38-.35Z"/>
        <path class="cls-16" d="m400.5,81.92h.59v-2.46c.2-.45.63-.74,1.08-.74.72,0,1.08.36,1.08,1.18v2.02h.59v-2.1c0-1.17-.53-1.66-1.49-1.66-.53,0-1.02.19-1.26.56v-.48h-.59v3.68Z"/>
        <path class="cls-16" d="m406.36,81.42c-.74,0-1.27-.51-1.27-1.34s.6-1.36,1.3-1.36c.47,0,.8.18,1.03.52v1.49c-.13.28-.5.7-1.06.7h0Zm1.06.5h.59v-5.17h-.59v1.76c-.22-.22-.57-.36-1.1-.36-1.03,0-1.86.79-1.86,1.93s.74,1.9,1.81,1.9c.62,0,1.01-.29,1.15-.5v.44Z"/>
        <path class="cls-16" d="m410.5,78.7c.66,0,1.08.38,1.11,1.03h-2.31c.09-.6.52-1.03,1.2-1.03h0Zm1.22,2.17c-.22.32-.62.56-1.07.56-.75,0-1.31-.41-1.34-1.15h2.9c.03-.16.04-.33.04-.45,0-1.02-.73-1.67-1.7-1.67-1.22,0-1.88.84-1.88,1.92,0,1.17.79,1.91,1.96,1.91.6,0,1.13-.25,1.47-.76l-.38-.35Z"/>
        <path class="cls-16" d="m412.9,81.92h.59v-2.56c.08-.38.37-.64.69-.64.23,0,.35.07.44.18l.37-.41c-.16-.21-.4-.33-.75-.33-.28,0-.63.1-.76.36v-.28h-.59v3.68Z"/>
        <path class="cls-16" d="m417.67,80.91c0,.38-.33.51-.75.51-.57,0-1.07-.25-1.29-.64l-.47.33c.26.52.91.87,1.66.87.85,0,1.47-.33,1.47-1.08,0-1.44-2.34-.96-2.34-1.73,0-.33.42-.47.79-.47.48,0,.86.2,1.06.47l.42-.39c-.25-.36-.73-.64-1.37-.64-.9,0-1.53.4-1.53,1.05,0,1.36,2.34.84,2.34,1.71h0Z"/>
        <path class="cls-16" d="m419.35,80.07c0-.82.56-1.36,1.32-1.36s1.33.55,1.33,1.36-.55,1.35-1.33,1.35-1.32-.57-1.32-1.35h0Zm-.63,0c0,1.11.81,1.91,1.95,1.91s1.96-.8,1.96-1.91-.8-1.92-1.96-1.92-1.95.8-1.95,1.92Z"/>
        <path class="cls-16" d="m423.29,81.92h.59v-2.46c.2-.45.63-.74,1.08-.74.72,0,1.08.36,1.08,1.18v2.02h.59v-2.1c0-1.17-.53-1.66-1.49-1.66-.53,0-1.02.19-1.26.56v-.48h-.59v3.68Z"/>
      </g>
      <path class="cls-16" d="m525.52,89.96c-.34.38-.83.67-1.51.67-1.15,0-1.93-.76-1.93-1.93s.69-1.93,1.85-1.93c.65,0,1.09.23,1.47.61l.42-.4c-.33-.45-1.01-.82-1.9-.82-1.54,0-2.51,1.12-2.51,2.54,0,1.54.99,2.54,2.56,2.54.81,0,1.55-.35,1.93-.87l-.37-.41Z"/>
      <rect class="cls-16" x="526.51" y="86.01" width=".59" height="5.17"/>
      <path class="cls-16" d="m528.02,86.3c0,.21.16.37.38.37.2,0,.37-.16.37-.37,0-.2-.17-.35-.37-.35-.21,0-.38.15-.38.35h0Zm.08,4.88h.59v-3.68h-.59v3.68Z"/>
      <path class="cls-16" d="m534.97,88.74c0-.95-.55-1.32-1.32-1.32-.51,0-.93.2-1.21.57-.19-.37-.57-.57-1.08-.57s-.92.25-1.13.57v-.5h-.59v3.68h.59v-2.46c.13-.32.49-.74,1.01-.74.48,0,.76.31.76.75v2.45h.59v-2.53c.18-.39.52-.67,1.01-.67.57,0,.76.4.76.94v2.26h.59v-2.44Z"/>
      <path class="cls-16" d="m537.51,87.97c.69,0,1.18.5,1.18,1.34s-.53,1.37-1.23,1.37c-.39,0-.83-.17-1.08-.46v-1.54c.21-.38.62-.71,1.13-.71h0Zm-1.72,2.53c.3.42.98.74,1.63.74,1.15,0,1.9-.75,1.9-1.97,0-1.09-.64-1.86-1.72-1.86-.49,0-.91.17-1.22.53v-1.93h-.59v4.49Z"/>
      <path class="cls-16" d="m541.6,87.96c.66,0,1.08.38,1.11,1.03h-2.31c.09-.6.52-1.03,1.2-1.03h0Zm1.22,2.17c-.22.32-.62.56-1.07.56-.75,0-1.31-.41-1.34-1.15h2.9c.03-.16.04-.33.04-.45,0-1.02-.73-1.67-1.7-1.67-1.22,0-1.88.84-1.88,1.92,0,1.17.79,1.91,1.96,1.91.6,0,1.13-.25,1.47-.76l-.38-.35Z"/>
      <path class="cls-16" d="m544,91.18h.59v-2.56c.08-.38.37-.64.69-.64.23,0,.35.07.44.18l.37-.41c-.16-.21-.4-.33-.75-.33-.28,0-.63.1-.76.36v-.28h-.59v3.68Z"/>
      <g>
        <path class="cls-16" d="m460.1,90.93h2.58c-.08.99-.79,1.69-1.85,1.69-.6,0-1.27-.25-1.61-.71l-.44.37c.49.69,1.31.95,2.02.95,1.62,0,2.55-1.09,2.55-2.56s-.95-2.52-2.49-2.52c-.76,0-1.59.33-2.06.95l.43.41c.38-.48,1.04-.76,1.59-.76,1.08,0,1.76.62,1.87,1.59h-2.58v.6Z"/>
        <polygon class="cls-16" points="464.04 93.16 464.63 93.16 464.63 91.82 464.93 91.54 466.59 93.16 467.38 93.16 465.39 91.17 467.29 89.48 466.49 89.48 464.63 91.13 464.63 89.48 464.04 89.48 464.04 93.16"/>
        <path class="cls-16" d="m467.9,91.31c0-.82.56-1.36,1.32-1.36s1.33.54,1.33,1.36-.55,1.35-1.33,1.35-1.32-.57-1.32-1.35h0Zm-.63,0c0,1.11.81,1.91,1.95,1.91s1.96-.8,1.96-1.91-.8-1.92-1.96-1.92-1.95.8-1.95,1.92Z"/>
        <polygon class="cls-16" points="474.55 93.16 475.15 93.16 475.15 89.48 474.55 89.48 474.55 91.01 472.43 91.01 472.43 89.48 471.84 89.48 471.84 93.16 472.43 93.16 472.43 91.57 474.55 91.57 474.55 93.16"/>
        <polygon class="cls-16" points="476.56 93.16 478.8 90.41 478.8 93.16 479.4 93.16 479.4 89.48 478.84 89.48 476.61 92.24 476.61 89.48 476.01 89.48 476.01 93.16 476.56 93.16"/>
        <polygon class="cls-16" points="480.26 93.16 480.85 93.16 480.85 91.82 481.16 91.54 482.81 93.16 483.61 93.16 481.61 91.17 483.51 89.48 482.71 89.48 480.85 91.13 480.85 89.48 480.26 89.48 480.26 93.16"/>
        <path class="cls-16" d="m485.16,92.67c-.5,0-.85-.23-.85-.61,0-.45.47-.59,1.21-.59.3,0,.6.04.79.11v.38c-.13.3-.53.72-1.15.72h0Zm-.93-2.31c.34-.25.68-.41,1.1-.41.77,0,.98.43.98,1.1-.18-.06-.59-.11-.86-.11-1.06,0-1.76.34-1.76,1.14,0,.68.54,1.13,1.34,1.13.64,0,1.08-.28,1.29-.59v.55h.59v-2.27c0-.95-.52-1.49-1.51-1.49-.55,0-1.13.21-1.47.52l.3.45Z"/>
      </g>
      <path class="cls-16" d="m374.71,188.32c-.34.38-.83.67-1.51.67-1.15,0-1.93-.76-1.93-1.93s.69-1.93,1.85-1.93c.65,0,1.09.23,1.47.61l.42-.4c-.33-.45-1.01-.82-1.9-.82-1.54,0-2.51,1.12-2.51,2.54,0,1.54.99,2.54,2.56,2.54.81,0,1.55-.35,1.93-.87l-.37-.41Z"/>
      <path class="cls-16" d="m375.64,189.53h.59v-2.43c.19-.43.57-.76,1.08-.76.72,0,1.07.37,1.07,1.17v2.03h.59v-2.09c0-1.16-.55-1.67-1.55-1.67-.54,0-.93.21-1.2.56v-1.97h-.59v5.17Z"/>
      <path class="cls-16" d="m381.43,186.31c.66,0,1.08.38,1.11,1.03h-2.31c.09-.6.52-1.03,1.2-1.03h0Zm1.22,2.17c-.22.32-.62.56-1.07.56-.75,0-1.31-.41-1.34-1.15h2.9c.03-.16.04-.33.04-.45,0-1.02-.73-1.67-1.7-1.67-1.22,0-1.88.84-1.88,1.92,0,1.17.79,1.91,1.96,1.91.6,0,1.13-.25,1.47-.76l-.38-.35Z"/>
      <path class="cls-16" d="m386.09,188.53c0,.38-.33.51-.75.51-.57,0-1.07-.25-1.29-.64l-.47.33c.26.52.91.87,1.66.87.85,0,1.47-.33,1.47-1.08,0-1.44-2.34-.96-2.34-1.73,0-.33.42-.47.79-.47.48,0,.86.2,1.06.47l.42-.39c-.25-.36-.73-.64-1.37-.64-.9,0-1.53.4-1.53,1.05,0,1.36,2.34.84,2.34,1.71h0Z"/>
      <path class="cls-16" d="m386.96,186.42h.76v1.78c0,.91.4,1.39,1.13,1.39.46,0,.81-.14,1.04-.39l-.27-.44c-.2.16-.41.26-.67.26-.44,0-.64-.25-.64-.98v-1.62h1.27v-.57h-1.27v-.94h-.59v.94h-.76v.57Z"/>
      <path class="cls-16" d="m391.84,186.31c.66,0,1.08.38,1.11,1.03h-2.31c.09-.6.52-1.03,1.2-1.03h0Zm1.22,2.17c-.22.32-.62.56-1.07.56-.75,0-1.31-.41-1.34-1.15h2.9c.03-.16.04-.33.04-.45,0-1.02-.73-1.67-1.7-1.67-1.22,0-1.88.84-1.88,1.92,0,1.17.79,1.91,1.96,1.91.6,0,1.13-.25,1.47-.76l-.38-.35Z"/>
      <path class="cls-16" d="m394.24,189.53h.59v-2.56c.08-.38.37-.64.69-.64.23,0,.35.07.44.18l.37-.41c-.16-.21-.4-.33-.75-.33-.28,0-.63.1-.76.36v-.28h-.59v3.68Z"/>
      <path class="cls-16" d="m425.07,188.32c-.34.38-.83.67-1.51.67-1.15,0-1.93-.76-1.93-1.93s.69-1.93,1.85-1.93c.65,0,1.09.23,1.47.61l.42-.4c-.33-.45-1.01-.82-1.9-.82-1.54,0-2.51,1.12-2.51,2.54,0,1.54.99,2.54,2.56,2.54.81,0,1.55-.35,1.93-.87l-.37-.41Z"/>
      <path class="cls-16" d="m427.22,189.04c-.5,0-.85-.23-.85-.61,0-.45.47-.59,1.21-.59.3,0,.6.04.79.11v.38c-.13.3-.53.72-1.15.72h0Zm-.93-2.31c.34-.25.68-.41,1.1-.41.77,0,.98.43.98,1.1-.18-.06-.59-.11-.86-.11-1.06,0-1.76.34-1.76,1.14,0,.68.54,1.13,1.34,1.13.64,0,1.08-.28,1.29-.59v.55h.59v-2.27c0-.95-.52-1.49-1.51-1.49-.55,0-1.13.21-1.47.52l.3.45Z"/>
      <path class="cls-16" d="m429.78,189.53h.59v-2.56c.08-.38.37-.64.69-.64.23,0,.35.07.44.18l.37-.41c-.16-.21-.4-.33-.75-.33-.28,0-.63.1-.76.36v-.28h-.59v3.68Z"/>
      <rect class="cls-16" x="432.35" y="184.37" width=".59" height="5.17"/>
      <path class="cls-16" d="m434.29,187.69c0-.82.56-1.36,1.32-1.36s1.33.55,1.33,1.36-.55,1.35-1.33,1.35-1.32-.57-1.32-1.35h0Zm-.63,0c0,1.11.81,1.91,1.95,1.91s1.96-.8,1.96-1.91-.8-1.92-1.96-1.92-1.95.8-1.95,1.92Z"/>
      <path class="cls-16" d="m442.39,185.18c.98,0,1.34.4,1.34.95,0,.59-.42.98-1.39.98h-1.26v-1.93h1.31Zm-1.31,4.35v-1.83h1.27c1.51,0,2.04-.77,2.04-1.57,0-.76-.38-1.56-2.03-1.56h-1.93v4.95h.64Z"/>
      <path class="cls-16" d="m446.26,189.04c-.5,0-.85-.23-.85-.61,0-.45.47-.59,1.21-.59.3,0,.6.04.79.11v.38c-.13.3-.53.72-1.15.72h0Zm-.93-2.31c.34-.25.68-.41,1.1-.41.77,0,.98.43.98,1.1-.18-.06-.59-.11-.86-.11-1.06,0-1.76.34-1.76,1.14,0,.68.54,1.13,1.34,1.13.64,0,1.08-.28,1.29-.59v.55h.59v-2.27c0-.95-.52-1.49-1.51-1.49-.55,0-1.13.21-1.47.52l.3.45Z"/>
      <polygon class="cls-16" points="448.64 186.41 450.86 186.41 448.53 189.14 448.53 189.53 451.71 189.53 451.71 188.97 449.43 188.97 451.76 186.24 451.76 185.85 448.64 185.85 448.64 186.41"/>
      <path class="cls-16" d="m452.59,187.69c0-.82.56-1.36,1.32-1.36s1.33.55,1.33,1.36-.55,1.35-1.33,1.35-1.32-.57-1.32-1.35h0Zm-.63,0c0,1.11.81,1.91,1.95,1.91s1.96-.8,1.96-1.91-.8-1.92-1.96-1.92-1.95.8-1.95,1.92Z"/>
      <rect class="cls-16" x="456.58" y="184.37" width=".59" height="5.17"/>
      <path class="cls-16" d="m458.1,184.66c0,.21.16.37.38.37.2,0,.37-.16.37-.37,0-.2-.17-.35-.37-.35-.21,0-.38.15-.38.35h0Zm.08,4.88h.59v-3.68h-.59v3.68Z"/>
      <path class="cls-16" d="m459.71,189.53h.59v-2.46c.2-.45.63-.74,1.08-.74.72,0,1.08.36,1.08,1.18v2.02h.59v-2.1c0-1.17-.53-1.66-1.49-1.66-.53,0-1.02.19-1.26.56v-.48h-.59v3.68Z"/>
      <path class="cls-16" d="m463.88,184.66c0,.21.16.37.38.37.2,0,.37-.16.37-.37,0-.2-.17-.35-.37-.35-.21,0-.38.15-.38.35h0Zm.08,4.88h.59v-3.68h-.59v3.68Z"/>
      <g>
        <path class="cls-16" d="m505.59,182.08c0,.49-.5.77-1.07.77-.77,0-1.36-.39-1.68-.8l-.42.45c.34.51,1.15.96,2.03.96,1.03,0,1.8-.58,1.8-1.43,0-1.77-3.06-1.1-3.06-2.31,0-.55.68-.74,1.15-.74.64,0,1.1.23,1.4.53l.42-.42c-.38-.48-1.03-.72-1.8-.72-1.13,0-1.83.62-1.83,1.36,0,1.83,3.06,1.11,3.06,2.34h0Z"/>
        <path class="cls-16" d="m507.39,181.55c0-.82.56-1.36,1.32-1.36s1.33.54,1.33,1.36-.55,1.35-1.33,1.35-1.32-.57-1.32-1.35h0Zm-.63,0c0,1.11.81,1.91,1.95,1.91s1.96-.8,1.96-1.91-.8-1.92-1.96-1.92-1.95.8-1.95,1.92Z"/>
        <rect class="cls-16" x="511.38" y="178.23" width=".59" height="5.17"/>
        <path class="cls-16" d="m513.32,181.55c0-.82.56-1.36,1.32-1.36s1.33.54,1.33,1.36-.55,1.35-1.33,1.35-1.32-.57-1.32-1.35h0Zm-.63,0c0,1.11.81,1.91,1.95,1.91s1.96-.8,1.96-1.91-.8-1.92-1.96-1.92-1.95.8-1.95,1.92Z"/>
        <path class="cls-16" d="m521.1,180.19c.69,0,1.18.5,1.18,1.34s-.53,1.37-1.23,1.37c-.39,0-.83-.17-1.08-.46v-1.54c.21-.38.62-.71,1.13-.71h0Zm-1.72,2.53c.3.42.98.74,1.63.74,1.15,0,1.9-.75,1.9-1.97,0-1.09-.64-1.86-1.72-1.86-.49,0-.91.17-1.22.53v-1.93h-.59v4.49Z"/>
        <path class="cls-16" d="m523.55,184.8c.12.06.25.08.41.08.51,0,.89-.3,1.39-1.54l1.4-3.62h-.65l-1.04,2.8-1.38-2.8h-.7l1.78,3.55-.11.28c-.25.59-.45.78-.72.78-.06,0-.11-.01-.16-.04l-.23.52Z"/>
        <polygon class="cls-16" points="504.63 190.7 508.26 190.7 508.26 190.1 505.28 190.1 505.28 188.48 508 188.48 508 187.89 505.28 187.89 505.28 186.35 508.2 186.35 508.2 185.75 504.63 185.75 504.63 190.7"/>
        <path class="cls-16" d="m509.05,190.7h.59v-2.46c.2-.45.63-.74,1.08-.74.72,0,1.08.36,1.08,1.18v2.02h.59v-2.1c0-1.17-.53-1.66-1.49-1.66-.53,0-1.02.19-1.26.56v-.48h-.59v3.68Z"/>
        <path class="cls-16" d="m514.91,190.2c-.74,0-1.27-.51-1.27-1.34s.6-1.36,1.3-1.36c.47,0,.8.18,1.03.52v1.49c-.13.28-.5.7-1.06.7h0Zm1.06.5h.59v-5.17h-.59v1.76c-.22-.22-.57-.36-1.1-.36-1.03,0-1.86.79-1.86,1.93s.74,1.9,1.81,1.9c.62,0,1.01-.29,1.15-.5v.44Z"/>
        <path class="cls-16" d="m519.06,187.48c.66,0,1.08.38,1.11,1.03h-2.31c.09-.6.52-1.03,1.2-1.03h0Zm1.22,2.17c-.22.32-.62.56-1.07.56-.75,0-1.31-.41-1.34-1.15h2.9c.03-.16.04-.33.04-.45,0-1.02-.73-1.67-1.7-1.67-1.22,0-1.88.84-1.88,1.92,0,1.17.79,1.91,1.96,1.91.6,0,1.13-.25,1.47-.76l-.38-.35Z"/>
        <path class="cls-16" d="m522.68,190.22c-.5,0-.85-.23-.85-.61,0-.45.47-.59,1.21-.59.3,0,.6.04.79.11v.38c-.13.3-.53.72-1.15.72h0Zm-.93-2.31c.34-.25.68-.41,1.1-.41.77,0,.98.43.98,1.1-.18-.06-.59-.11-.86-.11-1.06,0-1.76.34-1.76,1.14,0,.68.54,1.13,1.34,1.13.64,0,1.08-.28,1.29-.59v.54h.59v-2.27c0-.95-.52-1.49-1.51-1.49-.55,0-1.13.21-1.47.52l.3.45Z"/>
      </g>
      <g>
        <polygon class="cls-16" points="538.42 188.79 542.05 188.79 542.05 188.19 539.06 188.19 539.06 186.57 541.79 186.57 541.79 185.98 539.06 185.98 539.06 184.44 541.99 184.44 541.99 183.84 538.42 183.84 538.42 188.79"/>
        <rect class="cls-16" x="542.89" y="183.63" width=".59" height="5.17"/>
        <path class="cls-16" d="m546.04,185.57c.66,0,1.08.38,1.11,1.03h-2.31c.09-.6.52-1.03,1.2-1.03h0Zm1.22,2.17c-.22.32-.62.56-1.07.56-.75,0-1.31-.41-1.34-1.15h2.9c.03-.16.04-.33.04-.45,0-1.02-.73-1.67-1.7-1.67-1.22,0-1.88.84-1.88,1.92,0,1.17.79,1.91,1.96,1.91.6,0,1.13-.25,1.47-.76l-.38-.35Z"/>
        <path class="cls-16" d="m550.09,188.3c-.79,0-1.3-.5-1.3-1.34,0-.89.59-1.37,1.3-1.37.5,0,.85.23,1.02.52v1.48c-.12.36-.49.7-1.01.7h0Zm1.61-3.19h-.6v.33c-.17-.21-.55-.4-1.1-.4-1.01,0-1.84.72-1.84,1.91s.74,1.91,1.83,1.91c.62,0,.87-.18,1.11-.46v.22c0,.68-.37,1.09-1.08,1.09-.59,0-.93-.28-1.08-.56l-.53.23c.21.55.84.89,1.64.89.94,0,1.65-.52,1.65-1.76v-3.4Z"/>
        <path class="cls-16" d="m553.78,188.3c-.5,0-.85-.23-.85-.61,0-.45.47-.59,1.21-.59.3,0,.6.04.79.11v.38c-.13.3-.53.72-1.15.72h0Zm-.93-2.31c.34-.25.68-.41,1.1-.41.77,0,.98.43.98,1.1-.18-.06-.59-.11-.86-.11-1.06,0-1.76.34-1.76,1.14,0,.68.54,1.13,1.34,1.13.64,0,1.08-.28,1.29-.59v.54h.59v-2.27c0-.95-.52-1.49-1.51-1.49-.55,0-1.13.21-1.47.52l.3.45Z"/>
        <path class="cls-16" d="m556.34,188.79h.59v-2.46c.2-.45.63-.74,1.08-.74.72,0,1.08.36,1.08,1.18v2.02h.59v-2.1c0-1.17-.53-1.66-1.49-1.66-.53,0-1.02.19-1.26.56v-.48h-.59v3.68Z"/>
        <polygon class="cls-16" points="560.33 185.67 562.55 185.67 560.22 188.4 560.22 188.79 563.41 188.79 563.41 188.23 561.12 188.23 563.45 185.5 563.45 185.11 560.33 185.11 560.33 185.67"/>
        <polygon class="cls-16" points="563.68 185.67 565.9 185.67 563.57 188.4 563.57 188.79 566.75 188.79 566.75 188.23 564.47 188.23 566.8 185.5 566.8 185.11 563.68 185.11 563.68 185.67"/>
        <path class="cls-16" d="m568.59,188.3c-.5,0-.85-.23-.85-.61,0-.45.47-.59,1.21-.59.3,0,.6.04.79.11v.38c-.13.3-.53.72-1.15.72h0Zm-.93-2.31c.34-.25.68-.41,1.1-.41.77,0,.98.43.98,1.1-.18-.06-.59-.11-.86-.11-1.06,0-1.76.34-1.76,1.14,0,.68.54,1.13,1.34,1.13.64,0,1.08-.28,1.29-.59v.54h.59v-2.27c0-.95-.52-1.49-1.51-1.49-.55,0-1.13.21-1.47.52l.3.45Z"/>
      </g>
      <g>
        <polygon class="cls-16" points="588.7 184.54 588.06 184.54 586.93 188.35 585.6 184.54 585.06 184.54 583.76 188.36 582.58 184.54 581.91 184.54 583.45 189.49 584 189.49 585.33 185.64 586.67 189.49 587.22 189.49 588.7 184.54"/>
        <path class="cls-16" d="m589.18,187.65c0-.82.56-1.36,1.32-1.36s1.33.55,1.33,1.36-.55,1.35-1.33,1.35-1.32-.57-1.32-1.35h0Zm-.63,0c0,1.11.81,1.91,1.95,1.91s1.96-.8,1.96-1.91-.8-1.92-1.96-1.92-1.95.8-1.95,1.92Z"/>
        <rect class="cls-16" x="593.17" y="184.33" width=".59" height="5.17"/>
        <path class="cls-16" d="m594.27,186.38h.68v3.11h.59v-3.11h1.14v-.57h-1.14v-.12c0-.64.28-.86.67-.86.25,0,.41.09.52.23l.35-.37c-.18-.25-.52-.43-.91-.43-.59,0-1.23.33-1.23,1.37v.17h-.68v.57Z"/>
        <path class="cls-16" d="m597.4,187.65c0-.82.56-1.36,1.32-1.36s1.33.55,1.33,1.36-.55,1.35-1.33,1.35-1.32-.57-1.32-1.35h0Zm-.63,0c0,1.11.81,1.91,1.95,1.91s1.96-.8,1.96-1.91-.8-1.92-1.96-1.92-1.95.8-1.95,1.92Z"/>
        <path class="cls-16" d="m601.34,189.49h.59v-2.56c.08-.38.37-.64.69-.64.23,0,.35.07.44.18l.37-.41c-.16-.21-.4-.33-.75-.33-.28,0-.63.1-.76.36v-.28h-.59v3.68Z"/>
        <path class="cls-16" d="m605.32,188.99c-.74,0-1.27-.51-1.27-1.34s.6-1.36,1.3-1.36c.47,0,.8.18,1.03.52v1.49c-.13.28-.5.7-1.06.7h0Zm1.06.5h.59v-5.17h-.59v1.76c-.22-.22-.57-.36-1.1-.36-1.03,0-1.86.79-1.86,1.93s.74,1.9,1.81,1.9c.62,0,1.01-.29,1.15-.5v.44Z"/>
      </g>
      <polygon class="cls-16" points="623.91 189.88 624.56 189.88 624.56 187.83 627.27 187.83 627.27 187.22 624.56 187.22 624.56 185.52 627.47 185.52 627.47 184.92 623.91 184.92 623.91 189.88"/>
      <path class="cls-16" d="m629.78,185.81l.98,2.25h-1.95l.97-2.25Zm-2.41,4.07h.66l.55-1.25h2.43l.55,1.25h.67l-2.17-4.97h-.51l-2.17,4.97Z"/>
      <polygon class="cls-16" points="632.75 189.88 636.33 189.88 636.33 189.28 633.4 189.28 633.4 184.92 632.75 184.92 632.75 189.88"/>
      <polygon class="cls-16" points="636.93 189.88 637.57 189.88 637.57 188.1 638.1 187.59 640.24 189.88 641.09 189.88 638.59 187.17 640.92 184.92 640.08 184.92 637.57 187.32 637.57 184.92 636.93 184.92 636.93 189.88"/>
      <polygon class="cls-16" points="641.61 189.88 645.24 189.88 645.24 189.28 642.25 189.28 642.25 187.66 644.98 187.66 644.98 187.07 642.25 187.07 642.25 185.52 645.18 185.52 645.18 184.92 641.61 184.92 641.61 189.88"/>
      <path class="cls-16" d="m373.7,551.13c.86,0,1.15.25,1.15.76,0,.48-.41.76-1.04.76h-1.41v-1.53h1.3Zm.09,2.12c.86,0,1.23.26,1.23.79,0,.59-.4.85-1.3.85h-1.32v-1.63h1.39Zm-2.03,2.24h1.97c1.18,0,1.96-.41,1.96-1.42,0-.65-.34-1.06-.88-1.17.44-.19.7-.59.7-1.13,0-.71-.4-1.23-1.75-1.23h-2v4.95Z"/>
      <path class="cls-16" d="m377.64,554.99c-.5,0-.85-.23-.85-.61,0-.45.47-.59,1.21-.59.3,0,.6.04.79.11v.38c-.13.3-.53.72-1.15.72h0Zm-.93-2.31c.34-.25.68-.41,1.1-.41.77,0,.98.43.98,1.1-.18-.06-.59-.11-.86-.11-1.06,0-1.76.34-1.76,1.14,0,.68.54,1.13,1.34,1.13.64,0,1.08-.28,1.29-.59v.54h.59v-2.27c0-.95-.52-1.49-1.51-1.49-.54,0-1.13.21-1.47.52l.3.45Z"/>
      <path class="cls-16" d="m382.46,554.48c0,.38-.33.51-.75.51-.57,0-1.07-.25-1.29-.64l-.47.33c.26.52.91.87,1.66.87.85,0,1.47-.33,1.47-1.08,0-1.44-2.34-.96-2.34-1.73,0-.33.42-.47.79-.47.48,0,.86.2,1.06.47l.42-.39c-.25-.36-.73-.64-1.37-.64-.9,0-1.53.4-1.53,1.05,0,1.36,2.34.84,2.34,1.71h0Z"/>
      <path class="cls-16" d="m386.57,554.42c-.23.34-.59.57-1.03.57-.84,0-1.39-.54-1.39-1.35s.56-1.36,1.32-1.36c.45,0,.76.16,1.02.5l.46-.31c-.25-.45-.84-.75-1.49-.75-1.16,0-1.93.84-1.93,1.92,0,1.17.8,1.91,1.97,1.91.59,0,1.23-.28,1.51-.82l-.42-.3Z"/>
      <path class="cls-16" d="m387.87,553.63c0-.82.56-1.36,1.32-1.36s1.33.54,1.33,1.36-.55,1.35-1.33,1.35-1.32-.57-1.32-1.35h0Zm-.63,0c0,1.11.81,1.91,1.95,1.91s1.96-.8,1.96-1.91-.8-1.92-1.96-1.92-1.95.8-1.95,1.92Z"/>
      <path class="cls-16" d="m391.81,555.48h.59v-2.46c.2-.45.63-.74,1.08-.74.72,0,1.08.36,1.08,1.17v2.02h.59v-2.09c0-1.17-.53-1.66-1.49-1.66-.53,0-1.02.19-1.26.56v-.48h-.59v3.68Z"/>
      <path class="cls-16" d="m395.98,550.61c0,.21.16.37.38.37.2,0,.37-.16.37-.37,0-.2-.17-.35-.37-.35-.21,0-.38.15-.38.35h0Zm.08,4.88h.59v-3.68h-.59v3.68Z"/>
      <g>
        <path class="cls-16" d="m273.09,590.49c-.34.38-.83.67-1.51.67-1.15,0-1.93-.76-1.93-1.92s.69-1.92,1.85-1.92c.65,0,1.09.23,1.47.61l.42-.4c-.33-.45-1.01-.82-1.9-.82-1.54,0-2.51,1.12-2.51,2.54,0,1.54.99,2.54,2.55,2.54.81,0,1.55-.35,1.92-.87l-.37-.41Z"/>
        <path class="cls-16" d="m274.27,589.86c0-.82.56-1.36,1.32-1.36s1.33.54,1.33,1.36-.54,1.35-1.33,1.35-1.32-.57-1.32-1.35h0Zm-.63,0c0,1.11.81,1.91,1.95,1.91s1.96-.8,1.96-1.91-.8-1.92-1.96-1.92-1.95.8-1.95,1.92Z"/>
        <path class="cls-16" d="m278.2,591.71h.59v-2.56c.08-.38.38-.64.69-.64.23,0,.35.07.44.18l.37-.41c-.16-.21-.4-.33-.75-.33-.28,0-.63.1-.76.36v-.28h-.59v3.68Z"/>
        <path class="cls-16" d="m282.97,590.7c0,.38-.33.51-.75.51-.57,0-1.07-.25-1.29-.64l-.47.33c.26.52.91.87,1.66.87.85,0,1.47-.33,1.47-1.08,0-1.44-2.34-.96-2.34-1.73,0-.33.42-.47.79-.47.48,0,.86.2,1.06.47l.42-.39c-.25-.36-.73-.64-1.37-.64-.9,0-1.53.4-1.53,1.05,0,1.36,2.34.84,2.34,1.71h0Z"/>
        <path class="cls-16" d="m284.65,589.86c0-.82.56-1.36,1.32-1.36s1.33.54,1.33,1.36-.55,1.35-1.33,1.35-1.32-.57-1.32-1.35h0Zm-.63,0c0,1.11.81,1.91,1.95,1.91s1.96-.8,1.96-1.91-.8-1.92-1.96-1.92-1.95.8-1.95,1.92Z"/>
        <path class="cls-16" d="m294.64,590.49c-.34.38-.83.67-1.51.67-1.15,0-1.93-.76-1.93-1.92s.69-1.92,1.85-1.92c.65,0,1.09.23,1.47.61l.42-.4c-.33-.45-1.01-.82-1.9-.82-1.54,0-2.51,1.12-2.51,2.54,0,1.54.99,2.54,2.55,2.54.81,0,1.55-.35,1.92-.87l-.37-.41Z"/>
        <path class="cls-16" d="m295.82,589.86c0-.82.56-1.36,1.32-1.36s1.33.54,1.33,1.36-.55,1.35-1.33,1.35-1.32-.57-1.32-1.35h0Zm-.63,0c0,1.11.81,1.91,1.95,1.91s1.96-.8,1.96-1.91-.8-1.92-1.96-1.92-1.95.8-1.95,1.92Z"/>
        <path class="cls-16" d="m305.09,589.27c0-.95-.55-1.32-1.32-1.32-.51,0-.93.2-1.21.57-.19-.37-.57-.57-1.08-.57s-.92.25-1.13.57v-.5h-.59v3.68h.59v-2.46c.13-.32.49-.74,1.01-.74.48,0,.76.31.76.75v2.45h.59v-2.53c.18-.39.52-.67,1.01-.67.57,0,.76.4.76.94v2.26h.59v-2.44Z"/>
        <path class="cls-16" d="m306.33,589.86c0-.82.56-1.36,1.32-1.36s1.33.54,1.33,1.36-.54,1.35-1.33,1.35-1.32-.57-1.32-1.35h0Zm-.63,0c0,1.11.81,1.91,1.95,1.91s1.96-.8,1.96-1.91-.8-1.92-1.96-1.92-1.95.8-1.95,1.92Z"/>
      </g>
      <g>
        <path class="cls-16" d="m332.06,177c-.34.38-.83.67-1.51.67-1.15,0-1.93-.76-1.93-1.93s.69-1.93,1.85-1.93c.65,0,1.09.23,1.47.61l.42-.4c-.33-.45-1.01-.82-1.9-.82-1.54,0-2.51,1.12-2.51,2.54,0,1.54.99,2.54,2.56,2.54.81,0,1.55-.35,1.93-.87l-.37-.41Z"/>
        <path class="cls-16" d="m333.24,176.37c0-.82.56-1.36,1.32-1.36s1.33.54,1.33,1.36-.55,1.35-1.33,1.35-1.32-.57-1.32-1.35h0Zm-.63,0c0,1.11.81,1.91,1.95,1.91s1.96-.8,1.96-1.91-.8-1.92-1.96-1.92-1.95.8-1.95,1.92Z"/>
        <path class="cls-16" d="m339.7,178.22h.59v-3.68h-2.75v.76c0,2.15-.4,2.36-.87,2.36v.57c.87.11,1.47-.5,1.47-2.94v-.17h1.56v3.11Z"/>
        <path class="cls-16" d="m341.66,175.73c0-.37.25-.63.89-.63h.96v1.25h-.97c-.55,0-.88-.26-.88-.62h0Zm.96-1.2c-1.18,0-1.59.55-1.59,1.18,0,.57.38,1.01.94,1.1l-1.17,1.39h.72l1.09-1.3h.9v1.3h.59v-3.68h-1.48Z"/>
        <path class="cls-16" d="m346.68,175.01c.74,0,1.2.52,1.2,1.34s-.52,1.37-1.25,1.37c-.43,0-.84-.17-1.07-.57v-1.37c.15-.38.55-.76,1.13-.76h0Zm-1.72,4.62h.59v-1.73c.27.27.65.38,1.12.38,1.09,0,1.83-.84,1.83-1.97s-.67-1.86-1.76-1.86c-.44,0-.92.15-1.19.54v-.46h-.59v5.1Z"/>
        <polygon class="cls-16" points="349.71 178.22 351.95 175.47 351.95 178.22 352.55 178.22 352.55 174.54 352 174.54 349.76 177.3 349.76 174.54 349.17 174.54 349.17 178.22 349.71 178.22"/>
        <path class="cls-16" d="m356.27,177.16c-.23.34-.59.57-1.03.57-.84,0-1.39-.54-1.39-1.35s.56-1.36,1.32-1.36c.45,0,.76.16,1.02.5l.46-.31c-.25-.45-.84-.75-1.49-.75-1.16,0-1.93.84-1.93,1.92,0,1.17.8,1.91,1.97,1.91.59,0,1.23-.28,1.51-.82l-.42-.3Z"/>
      </g>
      <polygon class="cls-16" points="269.51 373.66 270.16 373.66 270.16 369.82 271.9 372.1 272.06 372.1 273.75 369.82 273.75 373.66 274.39 373.66 274.39 368.71 273.81 368.71 271.99 371.2 270.11 368.71 269.51 368.71 269.51 373.66"/>
      <path class="cls-16" d="m275.77,371.81c0-.82.56-1.36,1.32-1.36s1.33.54,1.33,1.36-.55,1.35-1.33,1.35-1.32-.57-1.32-1.35h0Zm-.63,0c0,1.11.81,1.91,1.95,1.91s1.96-.8,1.96-1.91-.8-1.92-1.96-1.92-1.95.8-1.95,1.92Z"/>
      <path class="cls-16" d="m279.71,373.66h.59v-2.46c.2-.45.63-.74,1.08-.74.72,0,1.08.36,1.08,1.18v2.02h.59v-2.1c0-1.17-.53-1.66-1.49-1.66-.53,0-1.02.19-1.26.56v-.48h-.59v3.68Z"/>
      <path class="cls-16" d="m284.3,371.81c0-.82.56-1.36,1.32-1.36s1.33.54,1.33,1.36-.55,1.35-1.33,1.35-1.32-.57-1.32-1.35h0Zm-.63,0c0,1.11.81,1.91,1.95,1.91s1.96-.8,1.96-1.91-.8-1.92-1.96-1.92-1.95.8-1.95,1.92Z"/>
      <path class="cls-16" d="m289.97,370.55h.76v1.78c0,.91.4,1.39,1.13,1.39.46,0,.81-.14,1.04-.39l-.27-.44c-.2.16-.41.26-.67.26-.44,0-.64-.25-.64-.98v-1.62h1.27v-.57h-1.27v-.94h-.59v.94h-.76v.57Z"/>
      <path class="cls-16" d="m294.85,370.44c.66,0,1.08.38,1.11,1.03h-2.31c.09-.6.52-1.03,1.2-1.03h0Zm1.22,2.17c-.22.32-.62.56-1.07.56-.75,0-1.31-.41-1.34-1.15h2.9c.03-.16.04-.33.04-.45,0-1.02-.73-1.67-1.7-1.67-1.22,0-1.88.84-1.88,1.92,0,1.17.79,1.91,1.96,1.91.6,0,1.13-.25,1.47-.76l-.38-.35Z"/>
      <polygon class="cls-16" points="300.35 369.98 299.63 369.98 298.56 371.33 297.5 369.98 296.76 369.98 298.15 371.76 296.68 373.66 297.39 373.66 298.54 372.18 299.68 373.66 300.43 373.66 298.95 371.76 300.35 369.98"/>
      <path class="cls-16" d="m300.49,370.55h.76v1.78c0,.91.4,1.39,1.13,1.39.46,0,.81-.14,1.04-.39l-.27-.44c-.2.16-.41.26-.67.26-.44,0-.64-.25-.64-.98v-1.62h1.27v-.57h-1.27v-.94h-.59v.94h-.76v.57Z"/>
      <path class="cls-16" d="m307.11,369.96h-.59v2.41c-.23.5-.64.8-1.15.8-.76,0-.97-.53-.97-1.16v-2.05h-.59v2.13c0,1.13.51,1.64,1.51,1.64.53,0,.94-.23,1.2-.59v.52h.59v-3.7Z"/>
      <path class="cls-16" d="m307.96,373.66h.59v-2.56c.08-.38.37-.64.69-.64.23,0,.35.07.44.18l.37-.41c-.16-.21-.4-.33-.75-.33-.28,0-.63.1-.76.36v-.28h-.59v3.68Z"/>
      <path class="cls-16" d="m311.89,370.44c.66,0,1.08.38,1.11,1.03h-2.31c.09-.6.52-1.03,1.2-1.03h0Zm1.22,2.17c-.22.32-.62.56-1.07.56-.75,0-1.31-.41-1.34-1.15h2.9c.03-.16.04-.33.04-.45,0-1.02-.73-1.67-1.7-1.67-1.22,0-1.88.84-1.88,1.92,0,1.17.79,1.91,1.96,1.91.6,0,1.13-.25,1.47-.76l-.38-.35Z"/>
      <g>
        <polygon class="cls-16" points="77.02 375.79 77.02 366.65 75.04 366.65 75.04 372.09 70.6 366.65 69.05 366.65 69.05 375.79 71.02 375.79 71.02 370.38 75.45 375.79 77.02 375.79"/>
        <polygon class="cls-16" points="78.71 375.79 85.82 375.79 85.82 373.9 80.74 373.9 80.74 372.07 85.37 372.07 85.37 370.25 80.74 370.25 80.74 368.55 85.7 368.55 85.7 366.65 78.71 366.65 78.71 375.79"/>
        <polygon class="cls-16" points="99.02 366.65 97.01 366.65 95.41 372.13 93.55 366.65 91.93 366.65 90.1 372.16 88.43 366.65 86.34 366.65 89.18 375.79 90.83 375.79 92.72 370.26 94.67 375.79 96.31 375.79 99.02 366.65"/>
        <polygon class="cls-16" points="111.37 366.65 109.03 366.65 106.68 370.31 104.38 366.65 101.97 366.65 105.64 372.52 105.64 375.79 107.66 375.79 107.66 372.52 111.37 366.65"/>
        <path class="cls-16" d="m113.31,371.22c0-1.7,1.23-2.77,2.61-2.77s2.6,1.07,2.6,2.77-1.16,2.77-2.6,2.77-2.61-1.07-2.61-2.77h0Zm-2.1,0c0,2.72,2.1,4.73,4.71,4.73s4.7-2.04,4.7-4.73-2.09-4.73-4.7-4.73-4.71,2.09-4.71,4.73Z"/>
        <path class="cls-16" d="m125.52,368.55c1.29,0,1.63.43,1.63,1.08,0,.73-.56,1.15-1.55,1.15h-1.71v-2.23h1.63Zm-1.63,7.25v-3.12h1.45l2.23,3.12h2.44l-2.55-3.49c1.1-.43,1.79-1.5,1.79-2.68,0-1.51-.78-2.98-3.7-2.98h-3.7v9.14h2.02Z"/>
        <polygon class="cls-16" points="130.86 375.79 132.89 375.79 132.89 372.73 133.54 372.06 136.64 375.79 139.3 375.79 135.07 370.7 139.04 366.65 136.4 366.65 132.89 370.22 132.89 366.65 130.86 366.65 130.86 375.79"/>
        <polygon class="cls-16" points="140.02 375.79 147.12 375.79 147.12 373.9 142.04 373.9 142.04 372.07 146.68 372.07 146.68 370.25 142.04 370.25 142.04 368.55 147 368.55 147 366.65 140.02 366.65 140.02 375.79"/>
        <path class="cls-16" d="m152.15,368.55c1.29,0,1.63.43,1.63,1.08,0,.73-.56,1.15-1.55,1.15h-1.71v-2.23h1.63Zm-1.63,7.25v-3.12h1.45l2.23,3.12h2.44l-2.55-3.49c1.1-.43,1.79-1.5,1.79-2.68,0-1.51-.78-2.98-3.7-2.98h-3.7v9.14h2.02Z"/>
      </g>
      <path class="cls-16" d="m208.98,511.07c-.34.38-.83.67-1.51.67-1.15,0-1.93-.76-1.93-1.92s.69-1.92,1.85-1.92c.65,0,1.09.23,1.47.61l.42-.4c-.33-.45-1.01-.82-1.9-.82-1.54,0-2.51,1.12-2.51,2.54,0,1.54.99,2.54,2.55,2.54.81,0,1.55-.35,1.93-.87l-.37-.41Z"/>
      <path class="cls-16" d="m210.15,510.44c0-.82.56-1.36,1.32-1.36s1.33.54,1.33,1.36-.54,1.35-1.33,1.35-1.32-.57-1.32-1.35h0Zm-.63,0c0,1.11.81,1.91,1.95,1.91s1.96-.8,1.96-1.91-.8-1.92-1.96-1.92-1.95.8-1.95,1.92Z"/>
      <rect class="cls-16" x="214.14" y="507.12" width=".59" height="5.17"/>
      <path class="cls-16" d="m215.66,507.41c0,.21.16.37.38.37.2,0,.37-.16.37-.37,0-.2-.17-.35-.37-.35-.21,0-.38.15-.38.35h0Zm.08,4.88h.59v-3.68h-.59v3.68Z"/>
      <path class="cls-16" d="m217.27,512.28h.59v-2.46c.2-.45.63-.74,1.08-.74.72,0,1.08.36,1.08,1.17v2.02h.59v-2.09c0-1.17-.53-1.66-1.49-1.66-.53,0-1.02.19-1.26.56v-.48h-.59v3.68Z"/>
      <path class="cls-16" d="m221.53,507.41c.08.1.17.25.17.45,0,.26-.11.5-.33.67l.26.25c.34-.2.67-.52.67-1.06,0-.24-.13-.47-.26-.62l-.5.32Z"/>
      <path class="cls-16" d="m225.42,511.28c0,.38-.33.51-.75.51-.57,0-1.07-.25-1.29-.64l-.47.33c.26.52.91.87,1.66.87.85,0,1.47-.33,1.47-1.08,0-1.44-2.34-.96-2.34-1.73,0-.33.42-.47.79-.47.48,0,.86.2,1.06.47l.42-.39c-.25-.36-.73-.64-1.37-.64-.9,0-1.53.4-1.53,1.05,0,1.36,2.34.84,2.34,1.71h0Z"/>
      <polygon class="cls-45" points="881.43 180.12 866.24 165.07 851.13 180.32 835.74 164.7 811.78 184.29 822.03 205.71 881.43 180.71 881.43 180.12"/>
      <path class="cls-45" d="m821.68,205.71s4.4,11.56,6.26,18.14h53.14v-43.13l-59.4,25Z"/>
      <path class="cls-16" d="m456.02,135.79c1.09,0,1.96-.57,1.96-1.53,0-.48-.3-.97-.94-1.13.44-.21.76-.58.76-1.05,0-.89-.8-1.39-1.83-1.39s-1.69.48-2.05.98l.49.35c.29-.38.75-.72,1.48-.72.66,0,1.25.23,1.25.8,0,.47-.51.79-1.13.79h-.83v.6h.87c.78,0,1.27.3,1.27.77,0,.54-.54.93-1.32.93s-1.33-.28-1.73-.77l-.48.35c.38.61,1.18,1.02,2.22,1.02h0Z"/>
      <path class="cls-16" d="m459.14,133.87c0-.82.56-1.36,1.32-1.36s1.33.54,1.33,1.36-.55,1.35-1.33,1.35-1.32-.57-1.32-1.35h0Zm-.63,0c0,1.11.81,1.91,1.95,1.91s1.96-.8,1.96-1.91-.8-1.92-1.96-1.92-1.95.8-1.95,1.92Z"/>
      <path class="cls-16" d="m465.6,135.72h.59v-3.68h-2.75v.76c0,2.15-.4,2.36-.87,2.36v.57c.87.11,1.47-.5,1.47-2.94v-.17h1.56v3.11Z"/>
      <path class="cls-16" d="m467.48,133.87c0-.82.56-1.36,1.32-1.36s1.33.54,1.33,1.36-.55,1.35-1.33,1.35-1.32-.57-1.32-1.35h0Zm-.63,0c0,1.11.81,1.91,1.95,1.91s1.96-.8,1.96-1.91-.8-1.92-1.96-1.92-1.95.8-1.95,1.92Z"/>
      <polygon class="cls-16" points="470.85 132.59 472.26 132.59 472.26 135.72 472.85 135.72 472.85 132.59 474.27 132.59 474.27 132.03 470.85 132.03 470.85 132.59"/>
      <path class="cls-16" d="m475,133.87c0-.82.56-1.36,1.32-1.36s1.33.54,1.33,1.36-.55,1.35-1.33,1.35-1.32-.57-1.32-1.35h0Zm-.63,0c0,1.11.81,1.91,1.95,1.91s1.96-.8,1.96-1.91-.8-1.92-1.96-1.92-1.95.8-1.95,1.92Z"/>
      <path class="cls-16" d="m480.56,132.49c.66,0,1.08.38,1.11,1.03h-2.31c.09-.6.52-1.03,1.2-1.03h0Zm1.22,2.17c-.22.32-.62.56-1.07.56-.75,0-1.31-.41-1.34-1.15h2.9c.03-.16.04-.33.04-.45,0-1.02-.73-1.67-1.7-1.67-1.22,0-1.88.84-1.88,1.92,0,1.17.79,1.91,1.96,1.91.6,0,1.13-.25,1.47-.76l-.38-.35Z"/>
      <path class="cls-16" d="m459.83,139.89c.52,0,.9.07.9.47,0,.33-.26.51-.69.51h-1.12v-.98h.91Zm.14,1.52c.59,0,.88.16.88.52s-.33.53-.95.53h-.98v-1.05h1.05Zm-1.65,1.61h1.64c.97,0,1.51-.36,1.51-1.05,0-.44-.19-.76-.59-.88.3-.18.47-.43.47-.8,0-.69-.5-.94-1.51-.94h-1.53v3.68Z"/>
      <path class="cls-16" d="m463.86,139.81c.74,0,1.2.52,1.2,1.34s-.52,1.37-1.25,1.37c-.43,0-.84-.17-1.07-.57v-1.37c.15-.38.54-.76,1.13-.76h0Zm-1.72,4.62h.59v-1.73c.27.27.65.38,1.12.38,1.09,0,1.83-.84,1.83-1.97s-.67-1.86-1.76-1.86c-.44,0-.92.15-1.19.55v-.46h-.59v5.1Z"/>
      <path class="cls-16" d="m467.97,139.8c.66,0,1.08.38,1.11,1.03h-2.31c.09-.6.52-1.03,1.2-1.03h0Zm1.22,2.17c-.22.32-.62.56-1.07.56-.75,0-1.31-.41-1.34-1.15h2.9c.03-.16.04-.33.04-.45,0-1.02-.73-1.67-1.7-1.67-1.22,0-1.88.84-1.88,1.92,0,1.17.79,1.91,1.96,1.91.6,0,1.13-.25,1.47-.76l-.38-.35Z"/>
      <polygon class="cls-16" points="470.37 143.02 470.97 143.02 470.97 140.39 472.27 142.09 473.52 140.39 473.52 143.02 474.11 143.02 474.11 139.34 473.6 139.34 472.28 141.14 470.92 139.34 470.37 139.34 470.37 143.02"/>
      <path class="cls-16" d="m475.48,140.54c0-.37.25-.63.89-.63h.96v1.25h-.97c-.55,0-.88-.26-.88-.62h0Zm.96-1.2c-1.18,0-1.59.55-1.59,1.18,0,.57.38,1.01.94,1.1l-1.17,1.39h.72l1.09-1.3h.9v1.3h.59v-3.68h-1.48Z"/>
      <g>
        <path class="cls-42" d="m549.12,40.62h4.06v-9.2c0-1.12-.91-2.03-2.03-2.03s-2.03.91-2.03,2.03v9.2Z"/>
        <path class="cls-33" d="m551.16,23.98c.88,0,1.59.71,1.59,1.59s-.71,1.59-1.59,1.59-1.59-.71-1.59-1.59.71-1.59,1.59-1.59Z"/>
        <path class="cls-33" d="m559.18,23.98c.88,0,1.59.71,1.59,1.59s-.71,1.59-1.59,1.59-1.59-.71-1.59-1.59.71-1.59,1.59-1.59Z"/>
        <path class="cls-42" d="m554.99,40.62h8.37l-2.18-9.55c-.16-.95-1-1.68-2-1.68s-1.84.73-1.99,1.64l-2.19,9.59Z"/>
        <path class="cls-34" d="m572.45,29.26c-1.9,0-3.44,1.54-3.44,3.45"/>
        <path class="cls-47" d="m572.45,29.26c1.73,0,3.17,1.28,3.41,2.94"/>
        <path class="cls-32" d="m575.86,35.49c.47,0,.85.38.85.85s-.38.85-.85.85-.85-.38-.85-.85.38-.85.85-.85Z"/>
        <path class="cls-25" d="m572.44,23.98c-.86,0-1.55.69-1.55,1.55s.69,1.55,1.55,1.55,1.55-.69,1.55-1.55-.69-1.55-1.55-1.55Z"/>
        <path class="cls-31" d="m575.85,32.07c-2.36,0-4.27,1.91-4.27,4.27s1.91,4.27,4.27,4.27,4.27-1.91,4.27-4.27-1.91-4.27-4.27-4.27Z"/>
        <path class="cls-38" d="m569,36.35c0,1.48.57,2.95,1.69,4.08"/>
      </g>
      <path class="cls-42" d="m407.48,575.96h4.06v-9.2c0-1.12-.91-2.03-2.03-2.03s-2.03.91-2.03,2.03v9.2Z"/>
      <path class="cls-33" d="m409.52,559.32c.88,0,1.59.71,1.59,1.59s-.71,1.59-1.59,1.59-1.59-.71-1.59-1.59.71-1.59,1.59-1.59Z"/>
      <path class="cls-33" d="m417.54,559.32c.88,0,1.59.71,1.59,1.59s-.71,1.59-1.59,1.59-1.59-.71-1.59-1.59.71-1.59,1.59-1.59Z"/>
      <path class="cls-42" d="m413.35,575.96h8.37l-2.18-9.55c-.16-.95-1-1.68-2-1.68s-1.84.73-1.99,1.64l-2.19,9.59Z"/>
      <path class="cls-34" d="m430.81,564.6c-1.9,0-3.45,1.54-3.45,3.45"/>
      <path class="cls-47" d="m430.81,564.6c1.73,0,3.17,1.28,3.41,2.94"/>
      <path class="cls-32" d="m434.22,570.83c.47,0,.85.38.85.85s-.38.85-.85.85-.85-.38-.85-.85.38-.85.85-.85Z"/>
      <path class="cls-25" d="m430.8,559.32c-.86,0-1.55.69-1.55,1.55s.69,1.55,1.55,1.55,1.55-.69,1.55-1.55-.69-1.55-1.55-1.55Z"/>
      <path class="cls-31" d="m434.21,567.41c-2.36,0-4.27,1.91-4.27,4.27s1.91,4.27,4.27,4.27,4.27-1.91,4.27-4.27-1.91-4.27-4.27-4.27Z"/>
      <path class="cls-38" d="m427.36,571.69c0,1.48.57,2.95,1.69,4.08"/>
      <path class="cls-40" d="m630.64,150.9c0-2.05,1.66-3.71,3.71-3.71,1.28,0,2.4.64,3.07,1.62"/>
      <path class="cls-37" d="m634.35,141.51c.92,0,1.67.75,1.67,1.67s-.75,1.67-1.67,1.67-1.67-.75-1.67-1.67.75-1.67,1.67-1.67Z"/>
      <path class="cls-40" d="m643.72,147.07c-1.2-1.2-3.15-1.2-4.35,0l-9.73,9.2c-.55.5-1.28.81-2.06.81-.78,0-1.58-.29-2.19-.9"/>
      <line class="cls-39" x1="642.9" y1="151.64" x2="638.92" y2="155.62"/>
      <polyline class="cls-36" points="642.93 155.41 642.93 151.62 639.15 151.62"/>
      <line class="cls-35" x1="636.38" y1="158.15" x2="639.06" y2="155.48"/>
      <polyline class="cls-36" points="636.45 154.32 636.45 158.11 640.23 158.11"/>
      <rect class="cls-61" x="742.57" y="151.84" width="23.86" height="18.67"/>
      <path class="cls-40" d="m749.74,162.8c0-2.05,1.66-3.71,3.71-3.71,1.28,0,2.4.64,3.07,1.62"/>
      <path class="cls-37" d="m753.44,153.41c.92,0,1.67.75,1.67,1.67s-.75,1.67-1.67,1.67-1.67-.75-1.67-1.67.75-1.67,1.67-1.67Z"/>
      <path class="cls-40" d="m762.82,158.97c-1.2-1.2-3.15-1.2-4.35,0l-9.73,9.2c-.55.5-1.28.81-2.06.81-.78,0-1.58-.29-2.19-.9"/>
      <line class="cls-39" x1="762" y1="163.55" x2="758.02" y2="167.53"/>
      <polyline class="cls-36" points="762.03 167.31 762.03 163.53 758.25 163.53"/>
      <line class="cls-35" x1="755.47" y1="170.06" x2="758.15" y2="167.38"/>
      <polyline class="cls-36" points="755.55 166.23 755.55 170.01 759.33 170.01"/>
      <path class="cls-40" d="m573.03,338.27c0-2.05,1.66-3.71,3.71-3.71,1.28,0,2.4.64,3.07,1.62"/>
      <path class="cls-37" d="m576.74,328.88c.92,0,1.67.75,1.67,1.67s-.75,1.67-1.67,1.67-1.67-.75-1.67-1.67.75-1.67,1.67-1.67Z"/>
      <path class="cls-40" d="m586.11,334.44c-1.2-1.2-3.15-1.2-4.35,0l-9.73,9.2c-.55.5-1.28.81-2.06.81-.78,0-1.58-.29-2.19-.9"/>
      <line class="cls-39" x1="585.29" y1="339.02" x2="581.31" y2="343"/>
      <polyline class="cls-36" points="585.31 342.79 585.31 339 581.53 339"/>
      <line class="cls-35" x1="578.77" y1="345.52" x2="581.45" y2="342.84"/>
      <polyline class="cls-36" points="578.83 341.7 578.83 345.49 582.61 345.49"/>
      <path class="cls-40" d="m318.71,515.3c0-2.05,1.66-3.71,3.71-3.71,1.28,0,2.4.64,3.07,1.62"/>
      <path class="cls-37" d="m322.42,505.91c.92,0,1.67.75,1.67,1.67s-.75,1.67-1.67,1.67-1.67-.75-1.67-1.67.75-1.67,1.67-1.67Z"/>
      <path class="cls-40" d="m331.79,511.47c-1.2-1.2-3.15-1.2-4.35,0l-9.73,9.2c-.55.5-1.28.81-2.06.81-.78,0-1.58-.29-2.19-.9"/>
      <line class="cls-39" x1="330.96" y1="516.05" x2="326.98" y2="520.03"/>
      <polyline class="cls-36" points="330.98 519.83 330.98 516.05 327.2 516.05"/>
      <line class="cls-35" x1="324.46" y1="522.54" x2="327.13" y2="519.87"/>
      <polyline class="cls-36" points="324.5 518.75 324.5 522.53 328.28 522.53"/>
      <path class="cls-40" d="m155.04,151.29c0-2.05,1.66-3.71,3.71-3.71,1.28,0,2.4.64,3.07,1.62"/>
      <path class="cls-37" d="m158.75,141.9c.92,0,1.67.75,1.67,1.67s-.75,1.67-1.67,1.67-1.67-.75-1.67-1.67.75-1.67,1.67-1.67Z"/>
      <path class="cls-40" d="m168.12,147.46c-1.2-1.2-3.15-1.2-4.35,0l-9.73,9.2c-.55.5-1.28.81-2.06.81-.78,0-1.58-.29-2.19-.9"/>
      <line class="cls-39" x1="167.29" y1="152.04" x2="163.31" y2="156.02"/>
      <polyline class="cls-36" points="167.3 155.8 167.3 152.02 163.52 152.02"/>
      <line class="cls-35" x1="160.79" y1="158.54" x2="163.46" y2="155.87"/>
      <polyline class="cls-36" points="160.82 154.72 160.82 158.5 164.6 158.5"/>
      <rect class="cls-61" x="711.09" y="254.72" width="20.19" height="24.34"/>
      <polyline class="cls-26" points="715.98 268.3 717.67 266.61 719.36 268.3"/>
      <rect class="cls-30" x="714.68" y="259.07" width="6.18" height="16.68"/>
      <rect class="cls-30" x="720.85" y="259.07" width="6.18" height="16.68"/>
      <polyline class="cls-26" points="722.16 267.05 723.85 268.73 725.53 267.05"/>
      <polyline class="cls-41" points="871.73 256.94 867.7 256.94 867.7 260.97 863.67 260.97 863.67 265 859.64 265 859.64 269.03 855.61 269.03"/>
      <line class="cls-29" x1="865.3" y1="253.71" x2="853.21" y2="265.8"/>
      <g>
        <line class="cls-50" x1="469.09" y1="144.7" x2="469.09" y2="152.36"/>
        <polygon class="cls-16" points="466.14 148.9 469.09 151.85 472.03 148.9 472.03 151.4 469.09 154.34 466.14 151.4 466.14 148.9"/>
      </g>
      <text class="cls-9" transform="translate(175.41 81.52)"><tspan class="cls-89" x="0" y="0">Х</tspan><tspan x="4.27" y="0">озяин</tspan><tspan x="1.72" y="6.94">Барин</tspan></text>
      <text class="cls-9" transform="translate(212.46 88.34)"><tspan x="0" y="0">Boot</tspan><tspan class="cls-74" x="-1.43" y="6.94">W</tspan><tspan x="4.88" y="6.94">ood</tspan></text>
      <text class="cls-9" transform="translate(251.69 187.12)"><tspan x="0" y="0">K</tspan><tspan class="cls-52" x="4.59" y="0">e</tspan><tspan x="8.47" y="0">ddo</tspan></text>
      <text class="cls-9" transform="translate(302.96 200.13)"><tspan x="0" y="0">Mustang</tspan></text>
      <text class="cls-9" transform="translate(93.93 76.93)"><tspan x="0" y="0">Snea</tspan><tspan class="cls-67" x="16" y="0">k</tspan><tspan x="19.48" y="0">er B</tspan><tspan class="cls-67" x="32.64" y="0">o</tspan><tspan x="36.75" y="0">x</tspan></text>
      <rect class="cls-45" x="314.9" y="470.52" width="17.43" height="45.66" transform="translate(816.96 169.74) rotate(90)"/>
      <text class="cls-11" transform="translate(308.2 495.56)"><tspan class="cls-88" x="0" y="0">Y</tspan><tspan x="3.23" y="0">amaguchi</tspan></text>
      <text class="cls-11" transform="translate(334.52 577.09) rotate(90)"><tspan class="cls-73" x="0" y="0">O</tspan><tspan class="cls-80" x="4.62" y="0">’Boutique</tspan></text>
      <text class="cls-11" transform="translate(203.89 443.88)"><tspan class="cls-20" x="0" y="0">V</tspan><tspan class="cls-65" x="3.85" y="0">ar</tspan><tspan class="cls-18" x="9.25" y="0">r</tspan><tspan x="11.33" y="0">a&amp;</tspan><tspan class="cls-76" x="19.33" y="0">C</tspan><tspan class="cls-65" x="23.35" y="0">o</tspan></text>
      <text class="cls-6" transform="translate(272.03 442.54) rotate(59.12)"><tspan class="cls-1"><tspan x="0" y="0">DUSHA</tspan></tspan><tspan class="cls-86"><tspan x="3.34" y="5.21">Natu</tspan><tspan class="cls-63" x="15.17" y="5.21">r</tspan><tspan x="16.95" y="5.21">al</tspan></tspan><tspan class="cls-86"><tspan class="cls-23" x="-.26" y="10.42">c</tspan><tspan x="2.48" y="10.42">osmetics</tspan></tspan></text>
      <rect class="cls-45" x="428.93" y="390.82" width="17.43" height="45.66" transform="translate(519.79 -182.91) rotate(54.45)"/>
      <text class="cls-10" transform="translate(422.9 423.5) rotate(-35.55)"><tspan x="0" y="0">Mas</tspan><tspan class="cls-91" x="11.35" y="0">t</tspan><tspan x="13.81" y="0">erskaya</tspan><tspan x="-1.69" y="6.08">S</tspan><tspan class="cls-69" x="2.03" y="6.08">k</tspan><tspan x="5.06" y="6.08">o</tspan><tspan class="cls-69" x="8.81" y="6.08">k</tspan><tspan class="cls-91" x="11.84" y="6.08">o</tspan><tspan x="15.49" y="6.08">va </tspan><tspan class="cls-87" x="23.67" y="6.08">Y</tspan><tspan x="26.9" y="6.08">ana</tspan></text>
      <rect class="cls-45" x="172.61" y="237.63" width="17.43" height="25.02" transform="translate(437.05 423.49) rotate(160.07)"/>
      <g>
        <rect class="cls-59" x="166.3" y="216.08" width="17.43" height="25.02" transform="translate(412.37 391.54) rotate(161.91)"/>
        <text class="cls-13" transform="translate(169.83 220.41) rotate(72.1)"><tspan class="cls-93" x="0" y="0">Т</tspan><tspan x="2.74" y="0">епло</tspan></text>
      </g>
      <g>
        <line class="cls-50" x1="313.63" y1="465.96" x2="313.63" y2="461.61"/>
        <polygon class="cls-16" points="316.57 465.06 313.63 462.12 310.68 465.06 310.68 462.56 313.63 459.62 316.57 462.56 316.57 465.06"/>
      </g>
      <g>
        <rect class="cls-59" x="197.65" y="302.97" width="18.71" height="27.32" transform="translate(515.87 535.04) rotate(158.44)"/>
        <text class="cls-10" transform="translate(201.96 308.25) rotate(68.49)"><tspan x="0" y="0">Be Hip</tspan></text>
      </g>
      <polygon class="cls-49" points="219.46 630.4 .25 423.6 .25 25.81 273.66 25.94 557.55 .25 719.8 .64 895.11 174.31 895.11 242.94 818.48 490.15 818.49 631.39 219.46 630.4"/>
      <path class="cls-58" d="m686.61,263.43c-.88,2.32-2.33,4.82-4.66,7.31-.01.02-.02.03-.03.04h-.01c-7.75,6.08-15.13,9.97-28.03,13.83-.09.02-.19.05-.28.08-4.51,1.29-8.98,2.62-13.39,3.98h-.01c-23.96,7.25-70.59,22.39-109.27,43.1-.05.03-.1.05-.15.08-13.98,6.83-27.15,13.81-39.5,20.8v-155.78h162.07v29.15h25.91s.01.07.02.1c1.45,8.01,3.53,14.77,5.2,19.42.02.03.03.07.03.1.21.6.4,1.13.59,1.58.14.37.28.72.41,1.05,1.31,3.68,2.52,9.78,1.1,15.16Z"/>
      <polygon class="cls-28" points="886.61 177.85 716.3 9.13 557.93 8.75 274.05 34.44 8.76 34.31 8.76 419.93 222.85 621.89 809.99 622.86 809.98 488.86 886.61 241.65 886.61 177.85"/>
      <path class="cls-28" d="m588.91,52.29h66.11l.23-37.98h58.84l83.67,82.9-40.8,41.18c-1.07-.32-2.13-.6-3.17-.84-12.01-3.25-20.9-1.89-29.85-.12-.02,0-.04.01-.05.01-10.67,1.43-21.9,3.66-36.07,1.26-.02,0-.04-.01-.06-.01-1.24-.27-2.52-.58-3.83-.93-3.04-.81-6.06-1.6-9.05-2.36-.01-.01-.02-.01-.02-.01-16.27-5.13-58.02-13.11-76.69-16.57-.29-.05-.58-.11-.86-.16-.37-.08-.73-.14-1.08-.2-2.67-.51-4.67-.87-5.9-1.08h-.01c-.17-.03-.32-.05-.46-.08-.19-.04-.35-.07-.48-.09-.04-.01-.08-.01-.11-.02-.24-.04-.36-.06-.36-.06V52.29Z"/>
      <path class="cls-28" d="m679.26,226.02s.01.07.02.1c.1.58.21,1.15.32,1.71.08.43.17.86.26,1.28.1.47.2.92.3,1.38.2.94.41,1.86.64,2.75.1.44.21.88.33,1.32.1.43.22.86.33,1.28.18.69.37,1.36.56,2.02.11.38.22.76.33,1.13.19.67.39,1.32.59,1.95.19.61.38,1.2.57,1.77.15.47.31.92.46,1.36.1.31.21.6.31.89.06.2.13.39.2.58.02.03.03.07.03.1.21.6.4,1.13.59,1.58.14.37.28.72.41,1.05,1.31,3.68,2.52,9.78,1.1,15.16-.88,2.32-2.33,4.82-4.66,7.31-.01.02-.02.03-.03.04h-.01c-7.75,6.08-15.13,9.97-28.03,13.83-.09.02-.19.05-.28.08-.32.09-.63.18-.94.28-.09.02-.17.05-.26.07-.09.03-.17.06-.26.08-1.39.39-2.77.79-4.15,1.2-.48.14-.96.29-1.43.43-.48.15-.95.29-1.43.44-.9.26-1.8.53-2.7.81-.71.21-1.45.44-2.22.67h-.01c-.37.11-.75.23-1.14.35-.77.23-1.56.48-2.38.72-.79.25-1.59.49-2.42.75-.17.05-.34.11-.51.16-.67.21-1.36.42-2.05.64-.16.05-.33.1-.5.16-.67.21-1.36.42-2.06.64-1.03.33-2.08.66-3.15,1.01-.48.15-.97.31-1.46.47-.49.15-.98.31-1.48.48-.5.16-1,.32-1.51.49-1.61.52-3.27,1.07-4.96,1.63-.81.27-1.63.55-2.46.83-3.39,1.14-6.92,2.36-10.55,3.64-.58.2-1.16.41-1.74.62-1.17.41-2.35.83-3.53,1.26-.33.12-.67.24-1,.36-.8.29-1.6.59-2.41.88-3.66,1.34-7.4,2.75-11.19,4.22-1.24.48-2.49.97-3.74,1.46-2.72,1.07-5.46,2.17-8.22,3.31-2.19.91-4.4,1.82-6.6,2.77-.11.04-.21.08-.32.13-2.08.89-4.17,1.79-6.25,2.72-.9.39-1.79.79-2.69,1.2-.99.44-1.98.89-2.97,1.35-.87.39-1.73.79-2.59,1.19-1.13.53-2.26,1.06-3.39,1.6-.93.44-1.86.89-2.79,1.34-1.72.83-3.44,1.68-5.14,2.53-.82.42-1.63.83-2.44,1.25-.66.33-1.32.67-1.98,1.02-1.22.63-2.44,1.27-3.65,1.92-.05.03-.1.05-.15.08-13.98,6.83-27.15,13.81-39.5,20.8v-155.78h162.07v29.15h25.91Z"/>
      <path class="cls-28" d="m424.69,454.95s.04-.03.06-.04c8.53-6.03,17.38-12.12,26.11-18.01v78.98h-73.24c.19-6.93-1.34-12.55-1.3-16.8,0-.02,0-.04.01-.06.1-.78.24-1.45.46-1.94.51-1.14,1.14-2.62,2.87-4.92,4.63-4.24,9.38-8.43,14.21-12.55.22-.19.45-.38.68-.57,3.12-2.66,6.28-5.29,9.46-7.88,6.85-5.59,13.79-11.01,20.68-16.21Z"/>
      <path class="cls-28" d="m824.62,424.7h-19.55v-110.25c9.14-5.6,16.46-13.99,20.84-24.91.01-.02.02-.03.02-.04,2.21-4.78,3.75-9.54,4.81-13.94,0-.01,0-.02.01-.03,4.14-14.75,2.31-20.59,2.31-20.59h16.09l.08,18,21.68,3.42-46.29,148.34Z"/>
      <path class="cls-54" d="m797.76,97.21l-40.8,41.18c-1.07-.32-2.13-.6-3.17-.84-12.01-3.25-20.9-1.89-29.85-.12-.02,0-.04.01-.05.01-10.67,1.43-21.9,3.66-36.07,1.26-.02,0-.04-.01-.06-.01-1.24-.27-2.52-.58-3.83-.93-3.04-.81-6.06-1.6-9.05-2.36-.01-.01-.02-.01-.02-.01-16.27-5.13-58.02-13.11-76.69-16.57-.29-.05-.58-.11-.86-.16-.37-.08-.73-.14-1.08-.2-2.67-.51-4.67-.87-5.9-1.08h-.01c-.17-.04-.32-.06-.46-.08-.19-.04-.35-.07-.48-.09-.04-.01-.08-.01-.11-.02-.24-.04-.36-.06-.36-.06V52.29h66.11l.23-37.98h58.84l83.67,82.9Z"/>
      <path class="cls-75" d="m404.01,471.16v44.72h-26.39c.19-6.93-1.34-12.55-1.3-16.8,0-.02,0-.04.01-.06.1-.78.24-1.45.46-1.94.51-1.14,1.14-2.62,2.87-4.92,7.84-7.19,16.03-14.22,24.35-21Z"/>
      <path class="cls-75" d="m450.86,436.9v78.98h-46.85v-44.72c6.85-5.59,13.79-11.01,20.68-16.21.02-.01.04-.03.06-.04,8.53-6.03,17.38-12.12,26.11-18.01Z"/>
      <path class="cls-75" d="m870.91,276.36l-46.29,148.34h-19.55v-110.25c9.14-5.6,16.46-13.99,20.84-24.91.01-.02.02-.03.02-.04,2.21-4.78,3.75-9.54,4.81-13.94,0-.01,0-.02.01-.03,4.14-14.75,2.31-20.59,2.31-20.59h16.09l.08,18,21.68,3.42Z"/>
      <path class="cls-45" d="m322.89,617.82h27.01v-55.06c-7.86,4.18-16.83,6.55-26.35,6.55-.22,0-.44,0-.66,0v48.53Z"/>
      <path class="cls-45" d="m275.07,541.6l-33.34,35.21,25.56,20.35h13.62v20.66h41.98v-48.52h0c-20.36-.24-38.12-11.3-47.8-27.69h0Z"/>
      <g>
        <polyline class="cls-46" points="598.19 27.34 599.88 25.65 601.57 27.34"/>
        <rect class="cls-27" x="596.82" y="18.11" width="6.17" height="16.67"/>
        <rect class="cls-27" x="602.99" y="18.11" width="6.17" height="16.67"/>
        <polyline class="cls-46" points="604.37 26.08 606.05 27.77 607.74 26.08"/>
      </g>
      <g>
        <rect class="cls-59" x="367.87" y="113.48" width="17.43" height="38.95" transform="translate(509.54 -243.62) rotate(90)"/>
        <text class="cls-11" transform="translate(363.2 134.64)"><tspan x="0" y="0">Montse</tspan><tspan class="cls-18" x="21.43" y="0">r</tspan><tspan x="23.51" y="0">a</tspan></text>
      </g>
      <g>
        <rect class="cls-59" x="411.96" y="113.48" width="17.43" height="38.95" transform="translate(553.64 -287.72) rotate(90)"/>
        <text class="cls-11" transform="translate(405.46 134.64)"><tspan x="0" y="0">Island Soul</tspan></text>
      </g>
      <g>
        <rect class="cls-59" x="243.05" y="399.26" width="17.95" height="25.3" transform="translate(664.08 663.71) rotate(152.89)"/>
        <text class="cls-15" transform="translate(245.58 404.33) rotate(62.89)"><tspan class="cls-77" x="0" y="0">С</tspan><tspan x="4.02" y="0">офия</tspan></text>
      </g>
      <rect class="cls-59" x="377.23" y="435.88" width="16.86" height="39.73" transform="translate(482.51 -133.37) rotate(49.58)"/>
      <text class="cls-14" transform="translate(373.84 467.57) rotate(-40.43)"><tspan x="0" y="0">Evita </tspan><tspan class="cls-94" x="15.98" y="0">P</tspan><tspan x="19.7" y="0">e</tspan><tspan class="cls-24" x="23.15" y="0">r</tspan><tspan x="25.12" y="0">oni</tspan></text>
      <g>
        <rect class="cls-59" x="328" y="118.12" width="17.43" height="29.67" transform="translate(469.67 -203.76) rotate(90)"/>
        <text class="cls-11" transform="translate(323.86 134.63)"><tspan class="cls-21" x="0" y="0">V</tspan><tspan class="cls-83" x="3.82" y="0">o</tspan><tspan class="cls-19" x="7.39" y="0">z</tspan><tspan x="10.26" y="0">dooh</tspan></text>
      </g>
      <g>
        <rect class="cls-59" x="288.13" y="119.58" width="17.43" height="26.86" transform="translate(429.86 -163.84) rotate(90)"/>
        <text class="cls-11" transform="translate(287.59 134.69)"><tspan x="0" y="0">Rafam</tspan></text>
      </g>
      <g>
        <polygon class="cls-59" points="230.3 347.34 212.96 355.9 229.44 388.56 246.78 380.01 230.3 347.34"/>
        <text class="cls-10" transform="translate(220.79 353.73) rotate(63.24)"><tspan x="0" y="0">Nomination</tspan></text>
      </g>
      <text class="cls-9" transform="translate(657.01 207.15)"><tspan x="0" y="0">Belle</tspan><tspan class="cls-84" x="1.88" y="6.94">Y</tspan><tspan x="5.47" y="6.94">ou</tspan></text>
      <g>
        <polygon class="cls-59" points="191.85 251.83 174.36 258.49 187.36 291.85 204.85 285.19 191.85 251.83"/>
        <text class="cls-12" transform="translate(186.57 260.53) rotate(69.19)"><tspan class="cls-70" x="0" y="0">Э</tspan><tspan x="3.97" y="0">литная</tspan><tspan x="-3.8" y="6.08">би</tspan><tspan class="cls-90" x="3.52" y="6.08">ж</tspan><tspan class="cls-85" x="7.89" y="6.08">у</tspan><tspan class="cls-22" x="11.14" y="6.08">т</tspan><tspan x="13.97" y="6.08">ерия</tspan></text>
      </g>
      <g>
        <rect class="cls-59" x="241.71" y="110.7" width="17.43" height="42.79" transform="translate(382.52 -118.33) rotate(90)"/>
        <text class="cls-11" transform="translate(234.06 130.97)"><tspan x="0" y="0">А</tspan><tspan class="cls-17" x="4.18" y="0">к</tspan><tspan class="cls-78" x="7.23" y="0">с</tspan><tspan x="10.29" y="0">е</tspan><tspan class="cls-83" x="13.75" y="0">с</tspan><tspan class="cls-66" x="16.81" y="0">с</tspan><tspan class="cls-65" x="20.01" y="0">уары</tspan><tspan x="2.28" y="6.08">для в</tspan><tspan class="cls-18" x="17.81" y="6.08">о</tspan><tspan x="21.48" y="6.08">лос</tspan></text>
      </g>
      <g>
        <circle class="cls-55" cx="597.61" cy="41.35" r="4.02"/>
        <text class="cls-3" transform="translate(596.29 43.13)"><tspan x="0" y="0">1</tspan></text>
      </g>
      <g>
        <circle class="cls-55" cx="608.38" cy="41.35" r="4.02"/>
        <text class="cls-3" transform="translate(606.91 43.13)"><tspan x="0" y="0">2</tspan></text>
      </g>
      <text class="cls-7" transform="translate(328.99 99.61)"><tspan x="0" y="0">Ar</tspan><tspan class="cls-92" x="5.96" y="0">n</tspan><tspan class="cls-79" x="9.22" y="0">y</tspan><tspan class="cls-82" x="-1.1" y="5.72">P</tspan><tspan class="cls-71" x="2.52" y="5.72">r</tspan><tspan x="4.47" y="5.72">aht</tspan></text>
      <g>
        <polygon class="cls-16" points="818.27 337.85 818.92 337.85 818.92 336.07 819.45 335.56 821.59 337.85 822.44 337.85 819.93 335.14 822.27 332.89 821.42 332.89 818.92 335.29 818.92 332.89 818.27 332.89 818.27 337.85"/>
        <path class="cls-16" d="m824.08,337.36c-.5,0-.85-.23-.85-.61,0-.45.47-.59,1.21-.59.3,0,.6.04.79.11v.38c-.13.3-.53.72-1.15.72h0Zm-.93-2.31c.34-.25.68-.41,1.1-.41.77,0,.98.43.98,1.1-.18-.06-.59-.11-.86-.11-1.06,0-1.76.34-1.76,1.14,0,.68.54,1.13,1.34,1.13.64,0,1.08-.28,1.29-.59v.54h.59v-2.27c0-.95-.52-1.49-1.51-1.49-.55,0-1.13.21-1.47.52l.3.45Z"/>
        <path class="cls-16" d="m826.64,337.85h.59v-2.46c.2-.45.63-.74,1.08-.74.72,0,1.08.36,1.08,1.18v2.02h.59v-2.1c0-1.17-.53-1.66-1.49-1.66-.53,0-1.02.19-1.26.56v-.48h-.59v3.68Z"/>
        <polygon class="cls-16" points="830.63 334.73 832.85 334.73 830.52 337.45 830.52 337.85 833.71 337.85 833.71 337.29 831.42 337.29 833.75 334.56 833.75 334.17 830.63 334.17 830.63 334.73"/>
        <rect class="cls-16" x="834.38" y="332.68" width=".59" height="5.17"/>
        <path class="cls-16" d="m837.52,334.63c.66,0,1.08.38,1.11,1.03h-2.31c.09-.6.52-1.03,1.2-1.03h0Zm1.22,2.17c-.22.32-.62.56-1.07.56-.75,0-1.31-.41-1.34-1.15h2.9c.03-.16.04-.33.04-.45,0-1.02-.73-1.67-1.7-1.67-1.22,0-1.88.84-1.88,1.92,0,1.17.79,1.91,1.96,1.91.6,0,1.13-.25,1.47-.76l-.38-.35Z"/>
        <path class="cls-16" d="m839.92,337.85h.59v-2.56c.08-.38.37-.64.69-.64.23,0,.35.07.44.18l.37-.41c-.16-.21-.4-.33-.75-.33-.28,0-.63.1-.76.36v-.28h-.59v3.68Z"/>
      </g>
      <g>
        <polygon class="cls-16" points="412.68 500.3 413.32 500.3 413.32 496.46 415.07 498.74 415.22 498.74 416.91 496.46 416.91 500.3 417.56 500.3 417.56 495.35 416.98 495.35 415.16 497.84 413.27 495.35 412.68 495.35 412.68 500.3"/>
        <path class="cls-16" d="m419.73,499.82c-.5,0-.85-.23-.85-.61,0-.45.47-.59,1.21-.59.3,0,.6.04.79.11v.38c-.13.3-.53.72-1.15.72h0Zm-.93-2.31c.34-.25.68-.41,1.1-.41.77,0,.98.43.98,1.1-.18-.06-.59-.11-.86-.11-1.06,0-1.76.34-1.76,1.14,0,.68.54,1.13,1.34,1.13.64,0,1.08-.28,1.29-.59v.54h.59v-2.27c0-.95-.52-1.49-1.51-1.49-.54,0-1.13.21-1.47.52l.3.45Z"/>
        <path class="cls-16" d="m424.55,499.3c0,.38-.33.51-.75.51-.57,0-1.07-.25-1.29-.64l-.47.33c.26.52.91.87,1.66.87.85,0,1.47-.33,1.47-1.08,0-1.44-2.34-.96-2.34-1.73,0-.33.42-.47.79-.47.48,0,.86.2,1.06.47l.42-.39c-.25-.36-.73-.64-1.37-.64-.9,0-1.53.4-1.53,1.05,0,1.36,2.34.84,2.34,1.71h0Z"/>
        <path class="cls-16" d="m428.66,499.24c-.23.34-.59.57-1.03.57-.84,0-1.39-.54-1.39-1.35s.56-1.36,1.32-1.36c.45,0,.76.16,1.02.5l.46-.31c-.25-.45-.84-.75-1.49-.75-1.16,0-1.93.84-1.93,1.92,0,1.17.8,1.91,1.97,1.91.59,0,1.23-.28,1.51-.82l-.42-.3Z"/>
        <path class="cls-16" d="m429.96,498.46c0-.82.56-1.36,1.32-1.36s1.33.54,1.33,1.36-.55,1.35-1.33,1.35-1.32-.57-1.32-1.35h0Zm-.63,0c0,1.11.81,1.91,1.95,1.91s1.96-.8,1.96-1.91-.8-1.92-1.96-1.92-1.95.8-1.95,1.92Z"/>
        <path class="cls-16" d="m433.51,497.19h.76v1.78c0,.91.4,1.39,1.13,1.39.46,0,.81-.14,1.04-.39l-.27-.44c-.2.16-.41.26-.67.26-.44,0-.64-.25-.64-.98v-1.62h1.27v-.57h-1.27v-.94h-.59v.94h-.76v.57Z"/>
        <path class="cls-16" d="m436.38,497.19h.76v1.78c0,.91.4,1.39,1.13,1.39.46,0,.81-.14,1.04-.39l-.27-.44c-.2.16-.41.26-.67.26-.44,0-.64-.25-.64-.98v-1.62h1.27v-.57h-1.27v-.94h-.59v.94h-.76v.57Z"/>
        <path class="cls-16" d="m441.26,497.08c.66,0,1.08.38,1.11,1.03h-2.31c.09-.6.52-1.03,1.2-1.03h0Zm1.22,2.17c-.22.32-.62.56-1.07.56-.75,0-1.31-.41-1.34-1.15h2.9c.03-.16.04-.33.04-.45,0-1.02-.73-1.67-1.7-1.67-1.22,0-1.88.84-1.88,1.92,0,1.17.79,1.91,1.96,1.91.6,0,1.13-.25,1.47-.76l-.38-.35Z"/>
      </g>
      <g>
        <polygon class="cls-16" points="385.66 498.35 389.29 498.35 389.29 497.75 386.3 497.75 386.3 496.13 389.03 496.13 389.03 495.54 386.3 495.54 386.3 494 389.22 494 389.22 493.4 385.66 493.4 385.66 498.35"/>
        <path class="cls-16" d="m392.93,497.29c-.23.34-.59.57-1.03.57-.84,0-1.39-.54-1.39-1.35s.56-1.36,1.32-1.36c.45,0,.76.16,1.02.5l.46-.31c-.25-.45-.84-.75-1.49-.75-1.16,0-1.93.84-1.93,1.92,0,1.17.8,1.91,1.97,1.91.59,0,1.23-.28,1.51-.82l-.42-.3Z"/>
        <path class="cls-16" d="m394.23,496.51c0-.82.56-1.36,1.32-1.36s1.33.54,1.33,1.36-.54,1.35-1.33,1.35-1.32-.57-1.32-1.35h0Zm-.63,0c0,1.11.81,1.91,1.95,1.91s1.96-.8,1.96-1.91-.8-1.92-1.96-1.92-1.95.8-1.95,1.92Z"/>
        <path class="cls-16" d="m385.01,501.31c.98,0,1.34.4,1.34.95,0,.59-.42.98-1.39.98h-1.26v-1.93h1.31Zm-1.31,4.35v-1.83h1.27c1.51,0,2.04-.77,2.04-1.57,0-.76-.38-1.56-2.03-1.56h-1.93v4.95h.64Z"/>
        <rect class="cls-16" x="387.71" y="500.49" width=".59" height="5.17"/>
        <path class="cls-16" d="m390.44,505.17c-.5,0-.85-.23-.85-.61,0-.45.47-.59,1.21-.59.3,0,.6.04.79.11v.38c-.13.3-.53.72-1.15.72h0Zm-.93-2.31c.34-.25.68-.41,1.1-.41.77,0,.98.43.98,1.1-.18-.06-.59-.11-.86-.11-1.06,0-1.76.34-1.76,1.14,0,.68.54,1.13,1.34,1.13.64,0,1.08-.28,1.29-.59v.54h.59v-2.27c0-.95-.52-1.49-1.51-1.49-.54,0-1.13.21-1.47.52l.3.45Z"/>
        <path class="cls-16" d="m395.86,504.6c-.23.34-.59.57-1.03.57-.84,0-1.39-.54-1.39-1.35s.56-1.36,1.32-1.36c.45,0,.76.16,1.02.5l.46-.31c-.25-.45-.83-.75-1.49-.75-1.16,0-1.93.84-1.93,1.92,0,1.17.8,1.91,1.97,1.91.59,0,1.23-.28,1.51-.82l-.42-.3Z"/>
        <path class="cls-16" d="m398.36,502.44c.66,0,1.08.38,1.11,1.03h-2.31c.09-.6.52-1.03,1.2-1.03h0Zm1.22,2.17c-.22.32-.62.56-1.07.56-.75,0-1.31-.41-1.34-1.15h2.9c.03-.16.04-.33.04-.45,0-1.02-.73-1.67-1.7-1.67-1.22,0-1.88.84-1.88,1.92,0,1.17.79,1.91,1.96,1.91.6,0,1.13-.25,1.47-.76l-.38-.35Z"/>
      </g>
      <g>
        <path class="cls-16" d="m547.62,252.38h7.55v1.34l-4.87,5.9h4.98v1.89h-7.89v-1.34l4.84-5.9h-4.62v-1.89Z"/>
        <path class="cls-16" d="m559.43,252.38h1.5l4.01,9.13h-2.11l-.74-1.7h-3.82l-.74,1.7h-2.09l4-9.13Zm-.47,5.73h2.37l-1.17-2.73-1.2,2.73Z"/>
        <path class="cls-16" d="m565.73,261.52v-9.13h3.69c.7,0,1.29.08,1.79.25.5.17.88.39,1.15.68.26.29.46.6.57.93.12.33.18.7.18,1.11,0,.59-.16,1.13-.48,1.62-.32.49-.76.84-1.3,1.06l2.54,3.48h-2.44l-2.23-3.12h-1.45v3.12h-2.02Zm2.02-7.24v2.23h1.71c.5,0,.88-.1,1.15-.3.27-.2.4-.48.4-.85s-.12-.63-.36-.81c-.24-.18-.66-.27-1.27-.27h-1.63Z"/>
        <path class="cls-16" d="m574.78,252.38h2.02v9.13h-2.02v-9.13Z"/>
        <path class="cls-16" d="m584.95,261.52l-4.42-5.41v5.41h-1.97v-9.13h1.55l4.44,5.43v-5.43h1.97v9.13h-1.57Z"/>
        <path class="cls-16" d="m591.32,252.38h1.5l4.01,9.13h-2.11l-.74-1.7h-3.82l-.74,1.7h-2.09l4-9.13Zm-.47,5.73h2.37l-1.17-2.73-1.2,2.73Z"/>
      </g>
      <text class="cls-9" transform="translate(827.83 189.88)"><tspan x="0" y="0">Iddi</tspan></text>
      <text class="cls-9" transform="translate(849.28 211.33)"><tspan x="0" y="0">Rich</tspan></text>
      <text class="cls-8" transform="translate(799.22 151.47)"><tspan x="0" y="0">Lichi</tspan></text>
      <path class="cls-61" d="m754.93,137.51c-.2,0-.37.03-.56.06-.56-.57-1.33-.97-2.34-1.01-1.13-.05-2.26-.1-3.4-.15-.48-.28-1.06-.46-1.76-.46h-.83c-.24-.34-.61-.6-1.13-.65-5.04-.46-10.1-.15-15.05.86-.26.05-.47.17-.63.32-1.55.19-3.1.38-4.66.57-.81.1-1.49.62-1.5,1.5,0,.73.7,1.6,1.5,1.5,1.66-.2,3.32-.41,4.98-.61,0,1.75,1.13,3.5,3.38,3.5,2.19,0,4.37,0,6.56,0,.22.05.45.09.7.1l11.34.5c.59,1.14,1.71,1.98,3.38,1.98,5.15,0,5.16-8,0-8Z"/>
      <path class="cls-61" d="m689.55,139c-4.03-1.24-8.06-2.49-12.09-3.73-.52-.16-.95-.04-1.26.22-.13-.08-.26-.15-.41-.19-.34-.08-.68-.16-1.01-.24-.2-.06-.4-.07-.6-.03-.2,0-.39.07-.56.18-.17.09-.32.22-.42.39-.13.14-.22.31-.27.51-.02.13-.04.27-.05.4,0,.27.07.52.2.76l.23.3c.19.19.41.31.66.39.28.07.56.13.84.2.19.23.45.41.75.51,3.67,1.28,7.45,2.14,11.3,2.65.63.19,1.26.39,1.89.58,1.85.57,2.64-2.32.8-2.89Z"/>
      <path class="cls-61" d="m597.42,118.41c-2.27-.49-4.54-.98-6.81-1.47-.76-.17-1.66.23-1.85,1.05-.17.76.23,1.67,1.05,1.85l6.81,1.47c.76.17,1.66-.23,1.85-1.05.17-.76-.23-1.67-1.05-1.85Z"/>
      <text class="cls-2" transform="translate(634.82 94.51)"><tspan class="cls-72" x="0" y="0">L</tspan><tspan class="cls-53" x="7.29" y="0">O</tspan><tspan x="16.8" y="0">VE REPUBLIC</tspan></text>
      <g>
        <polyline class="cls-26" points="397.19 603.15 398.88 601.46 400.56 603.15"/>
        <rect class="cls-30" x="395.95" y="593.95" width="6.18" height="16.68"/>
        <rect class="cls-30" x="402.13" y="593.95" width="6.18" height="16.68"/>
        <polyline class="cls-26" points="403.36 601.89 405.05 603.58 406.74 601.89"/>
        <g>
          <circle class="cls-55" cx="415.48" cy="607.57" r="4.09"/>
          <text class="cls-4" transform="translate(412.67 609.37)"><tspan x="0" y="0">10</tspan></text>
        </g>
        <g>
          <circle class="cls-55" cx="426.42" cy="607.57" r="4.09"/>
          <text class="cls-4" transform="translate(424.4 609.37)"><tspan x="0" y="0">11</tspan></text>
        </g>
        <g>
          <circle class="cls-55" cx="415.58" cy="597.59" r="4.09"/>
          <text class="cls-4" transform="translate(413.84 599.39)"><tspan x="0" y="0">8</tspan></text>
        </g>
        <g>
          <circle class="cls-55" cx="426.53" cy="597.59" r="4.09"/>
          <text class="cls-4" transform="translate(424.84 599.39)"><tspan x="0" y="0">9</tspan></text>
        </g>
      </g>
      <text class="cls-8" transform="translate(75.89 248.32)"><tspan x="0" y="0">Anta Spo</tspan><tspan class="cls-64" x="30.48" y="0">r</tspan><tspan class="cls-81" x="33.1" y="0">t</tspan></text>
      <text class="cls-5" transform="translate(643.06 483.37)"><tspan x="0" y="0">MA</tspan><tspan class="cls-68" x="17.83" y="0">A</tspan><tspan x="25.73" y="0">G</tspan></text>
      <text class="cls-5" transform="translate(435.48 303.93)"><tspan x="0" y="0">DUB</tspan></text>
      <text class="cls-5" transform="translate(347.07 347.34)"><tspan x="0" y="0">ECRU</tspan></text>
      <text class="cls-5" transform="translate(491.08 531.67) rotate(-90)"><tspan x="0" y="0">VILET</tspan></text>
    </g>
  </g>
</svg>