<svg xmlns="http://www.w3.org/2000/svg" fill="none" viewBox="0 0 25 25">
  <path fill="currentColor" d="M21.999 16.911v3.929a1.112 1.112 0 0 1-1.033 1.109c-.486.033-.883.051-1.19.051C9.959 22 2 14.041 2 4.222c0-.306.017-.703.051-1.189A1.111 1.111 0 0 1 3.16 2h3.929a.555.555 0 0 1 .553.5c.025.256.049.459.071.613.22 1.541.673 3.04 1.342 4.446a.506.506 0 0 1-.163.63L6.494 9.902a14.496 14.496 0 0 0 7.604 7.605l1.711-2.394a.514.514 0 0 1 .637-.165 15.446 15.446 0 0 0 4.444 1.339c.154.022.358.046.611.07a.555.555 0 0 1 .499.554h-.001Z"/>
</svg>
