<svg xmlns="http://www.w3.org/2000/svg" fill="none" viewBox="0 0 118 16">
  <g fill="currentColor" clip-path="url(#clip0_603_7747)">
    <path fill-rule="evenodd" d="M20.349 5A4.22 4.22 0 0 0 16.143.778h-4.989v14.449h2.904V9.969h1.446l2.159 5.257h3.122v-.139l-2.45-5.737a4.232 4.232 0 0 0 2.014-3.605V5Zm-6.291-1.778h2.085c.49 0 .933.2 1.253.52.32.322.518.767.518 1.259v.744a1.778 1.778 0 0 1-1.77 1.779h-2.086V3.222Zm8.651 1.572c0-2.727 2.03-4.451 4.67-4.451 2.549 0 4.66 1.703 4.66 4.36v6.163c0 2.658-2.111 4.36-4.66 4.36-2.64 0-4.67-1.724-4.67-4.45V4.794Zm6.166-.09c0-.895-.583-1.587-1.5-1.587-.916 0-1.498.692-1.498 1.587v6.162c0 .895.582 1.586 1.499 1.586.916 0 1.5-.691 1.5-1.586V4.704Zm27.391.293c0-2.727 2.03-4.45 4.67-4.45 2.548 0 4.658 1.702 4.658 4.36v6.162c0 2.658-2.11 4.36-4.659 4.36-2.64 0-4.67-1.723-4.67-4.45V4.997Zm6.166-.09c0-.895-.583-1.586-1.5-1.586-.916 0-1.499.691-1.499 1.586v6.162c0 .895.583 1.586 1.5 1.586.916 0 1.498-.69 1.498-1.586V4.907ZM4.838 12.781H2.994v-9.56h1.844A1.778 1.778 0 0 1 6.608 5c.001.493-.196.94-.515 1.261l-.002-.003c-.31.312-.737.509-1.207.52l-.023.001h-.023v2.445h.046a1.778 1.778 0 0 1 1.725 1.778c0 .494-.197.94-.516 1.261l-.002-.002c-.32.321-.764.52-1.253.52Zm2.96-4.78.014-.014v-.005a4.217 4.217 0 0 0 1.232-2.981 4.22 4.22 0 0 0-1.232-2.987A4.184 4.184 0 0 0 4.838.777H.09v14.45h4.748a4.187 4.187 0 0 0 2.974-1.238v-.005a4.217 4.217 0 0 0 1.232-2.982 4.221 4.221 0 0 0-1.232-2.986l-.015-.014Zm104.699 4.807h5.099v2.419h-8.002V.777h2.903v12.031Zm-8.887 0h5.099v2.419h-8.002V.777h2.903v12.031ZM91.453 9.84h2.688L92.8 4.687l-1.346 5.155Zm3.329 2.44h-3.96l-.771 2.947h-3.073L91.474.777h2.657l4.525 14.45h-3.102l-.772-2.947ZM75.764.777l2.716 10.45L81.187.776h3.794v14.45h-2.914v-3.91l.267-6.025-2.873 9.935h-1.977l-2.876-9.935.266 6.026v3.909h-2.903V.777h3.793ZM48.94 9.648l-1.146 1.45v4.129h-2.903V.777h2.903v6.3l.92-1.558L51.393.777h3.558l-4.12 6.351 4.187 8.099h-3.446l-2.63-5.579Z" clip-rule="evenodd"/>
    <path d="M42.899 11.198a4.22 4.22 0 0 1-1.232 2.986c-.894.898-2.068 1.246-3.3 1.246-1.256 0-2.394-.327-3.309-1.246a4.22 4.22 0 0 1-1.232-2.986h2.911c0 2.287 3.256 2.287 3.256 0-.036-.471-.197-.837-.454-1.093-.3-.3-.84-.614-1.63-.935a12.726 12.726 0 0 1-1.051-.45 5.722 5.722 0 0 1-1.508-.941h-.014a4.448 4.448 0 0 1-.32-.324l-.004-.004-.001-.002-.005-.006h-.002L35 7.436l-.026-.03c-.622-.728-.92-1.648-.946-2.6A4.22 4.22 0 0 1 35.26 1.82c.894-.898 2.067-1.246 3.3-1.246 1.256 0 2.394.327 3.309 1.246A4.22 4.22 0 0 1 43.1 4.806h-2.912c0-2.287-3.255-2.287-3.255 0 .036.472.196.837.454 1.093.3.3.84.614 1.63.935l.183.07.002.001c1.259.489 1.99.991 2.378 1.32h.01c.049.045.097.091.143.137.155.147.218.235.218.235.623.728.92 1.648.947 2.6Z"/>
  </g>
  <defs>
    <clipPath id="clip0_603_7747">
      <path fill="#fff" d="M0 0h118v16H0z"/>
    </clipPath>
  </defs>
</svg>
